<mxfile host="app.diagrams.net" agent="Mozilla/5.0 (Windows NT 10.0; Win64; x64) AppleWebKit/537.36 (KHTML, like Gecko) Chrome/132.0.0.0 Safari/537.36" version="26.0.13">
  <diagram name="Page-1" id="ifrctuZbqYu_bukefjJx">
    <mxGraphModel dx="2652" dy="1918" grid="1" gridSize="10" guides="1" tooltips="1" connect="1" arrows="1" fold="1" page="1" pageScale="1" pageWidth="850" pageHeight="1100" math="0" shadow="0">
      <root>
        <mxCell id="0" />
        <mxCell id="1" parent="0" />
        <UserObject label="" plantUmlData="{&#xa;  &quot;data&quot;: &quot;@startuml\nactor User\n\nparticipant \&quot;API Gateway\&quot; as AG\nparticipant \&quot;File Ingestion Service\&quot; as FIS\nparticipant \&quot;Text Extraction/OCR Module\&quot; as TEOM\nparticipant \&quot;Document Processing Service\&quot; as DPS\nparticipant \&quot;AI Analysis Service\&quot; as AIS\nparticipant \&quot;OpenAI/Claude/Gemini API\&quot; as OCG\nparticipant \&quot;Vector Database\&quot; as VD\nparticipant \&quot;Document Standardization Service\&quot; as DSS\n\nUser -&gt; AG: Upload file request\nAG -&gt; FIS: Forward request\nFIS -&gt; TEOM: Extract content\nTEOM -&gt; FIS: Return extracted text\nFIS -&gt; DPS: Send extracted text\nDPS -&gt; AIS: Send processed content\nAIS -&gt; OCG: Request embedding &amp; summary\nOCG -&gt; AIS: Return embedding &amp; summary\nAIS -&gt; VD: Store embedding\nAIS -&gt; DSS: Send analysis result\nDSS -&gt; AIS: Return Agile documents\n\nUser -&gt; AG: Q&amp;A Request\nAG -&gt; AIS: Forward Q&amp;A request\nAIS -&gt; VD: Query related content\nVD -&gt; AIS: Return matching vectors\nAIS -&gt; AG: Return Q&amp;A result\nAG -&gt; User: Display result\n@enduml\n&quot;,&#xa;  &quot;format&quot;: &quot;svg&quot;&#xa;}" id="wLRpZgvh6ZqnwfxEwsv6-1">
          <mxCell style="shape=image;noLabel=1;verticalAlign=top;aspect=fixed;imageAspect=0;image=data:image/svg+xml,PD94bWwgdmVyc2lvbj0iMS4wIiBlbmNvZGluZz0idXMtYXNjaWkiIHN0YW5kYWxvbmU9Im5vIj8+PHN2ZyB4bWxucz0iaHR0cDovL3d3dy53My5vcmcvMjAwMC9zdmciIHhtbG5zOnhsaW5rPSJodHRwOi8vd3d3LnczLm9yZy8xOTk5L3hsaW5rIiBjb250ZW50U3R5bGVUeXBlPSJ0ZXh0L2NzcyIgaGVpZ2h0PSI2NTRweCIgcHJlc2VydmVBc3BlY3RSYXRpbz0ibm9uZSIgc3R5bGU9IndpZHRoOjE1ODVweDtoZWlnaHQ6NjU0cHg7YmFja2dyb3VuZDojRkZGRkZGOyIgdmVyc2lvbj0iMS4xIiB2aWV3Qm94PSIwIDAgMTU4NSA2NTQiIHdpZHRoPSIxNTg1cHgiIHpvb21BbmRQYW49Im1hZ25pZnkiPjxkZWZzLz48Zz48bGluZSBzdHlsZT0ic3Ryb2tlOiMxODE4MTg7c3Ryb2tlLXdpZHRoOjAuNTtzdHJva2UtZGFzaGFycmF5OjUuMCw1LjA7IiB4MT0iMjIiIHgyPSIyMiIgeTE9Ijc5Ljk4NDQiIHkyPSI1NzQuNTIzNCIvPjxsaW5lIHN0eWxlPSJzdHJva2U6IzE4MTgxODtzdHJva2Utd2lkdGg6MC41O3N0cm9rZS1kYXNoYXJyYXk6NS4wLDUuMDsiIHgxPSIxNzQiIHgyPSIxNzQiIHkxPSI3OS45ODQ0IiB5Mj0iNTc0LjUyMzQiLz48bGluZSBzdHlsZT0ic3Ryb2tlOiMxODE4MTg7c3Ryb2tlLXdpZHRoOjAuNTtzdHJva2UtZGFzaGFycmF5OjUuMCw1LjA7IiB4MT0iMzE0IiB4Mj0iMzE0IiB5MT0iNzkuOTg0NCIgeTI9IjU3NC41MjM0Ii8+PGxpbmUgc3R5bGU9InN0cm9rZTojMTgxODE4O3N0cm9rZS13aWR0aDowLjU7c3Ryb2tlLWRhc2hhcnJheTo1LjAsNS4wOyIgeDE9IjUwNiIgeDI9IjUwNiIgeTE9Ijc5Ljk4NDQiIHkyPSI1NzQuNTIzNCIvPjxsaW5lIHN0eWxlPSJzdHJva2U6IzE4MTgxODtzdHJva2Utd2lkdGg6MC41O3N0cm9rZS1kYXNoYXJyYXk6NS4wLDUuMDsiIHgxPSI3MTYiIHgyPSI3MTYiIHkxPSI3OS45ODQ0IiB5Mj0iNTc0LjUyMzQiLz48bGluZSBzdHlsZT0ic3Ryb2tlOiMxODE4MTg7c3Ryb2tlLXdpZHRoOjAuNTtzdHJva2UtZGFzaGFycmF5OjUuMCw1LjA7IiB4MT0iOTAxIiB4Mj0iOTAxIiB5MT0iNzkuOTg0NCIgeTI9IjU3NC41MjM0Ii8+PGxpbmUgc3R5bGU9InN0cm9rZTojMTgxODE4O3N0cm9rZS13aWR0aDowLjU7c3Ryb2tlLWRhc2hhcnJheTo1LjAsNS4wOyIgeDE9IjExMDkiIHgyPSIxMTA5IiB5MT0iNzkuOTg0NCIgeTI9IjU3NC41MjM0Ii8+PGxpbmUgc3R5bGU9InN0cm9rZTojMTgxODE4O3N0cm9rZS13aWR0aDowLjU7c3Ryb2tlLWRhc2hhcnJheTo1LjAsNS4wOyIgeDE9IjEyNzAiIHgyPSIxMjcwIiB5MT0iNzkuOTg0NCIgeTI9IjU3NC41MjM0Ii8+PGxpbmUgc3R5bGU9InN0cm9rZTojMTgxODE4O3N0cm9rZS13aWR0aDowLjU7c3Ryb2tlLWRhc2hhcnJheTo1LjAsNS4wOyIgeDE9IjE0NTkiIHgyPSIxNDU5IiB5MT0iNzkuOTg0NCIgeTI9IjU3NC41MjM0Ii8+PHRleHQgZmlsbD0iIzAwMDAwMCIgZm9udC1mYW1pbHk9InNhbnMtc2VyaWYiIGZvbnQtc2l6ZT0iMTQiIGxlbmd0aEFkanVzdD0ic3BhY2luZyIgdGV4dExlbmd0aD0iMjgiIHg9IjUiIHk9Ijc4LjIzNDQiPlVzZXI8L3RleHQ+PGVsbGlwc2UgY3g9IjIyIiBjeT0iMTMuNSIgZmlsbD0iI0UyRTJGMCIgcng9IjgiIHJ5PSI4IiBzdHlsZT0ic3Ryb2tlOiMxODE4MTg7c3Ryb2tlLXdpZHRoOjAuNTsiLz48cGF0aCBkPSJNMjIsMjEuNSBMMjIsNDguNSBNOSwyOS41IEwzNSwyOS41IE0yMiw0OC41IEw5LDYzLjUgTTIyLDQ4LjUgTDM1LDYzLjUgIiBmaWxsPSJub25lIiBzdHlsZT0ic3Ryb2tlOiMxODE4MTg7c3Ryb2tlLXdpZHRoOjAuNTsiLz48dGV4dCBmaWxsPSIjMDAwMDAwIiBmb250LWZhbWlseT0ic2Fucy1zZXJpZiIgZm9udC1zaXplPSIxNCIgbGVuZ3RoQWRqdXN0PSJzcGFjaW5nIiB0ZXh0TGVuZ3RoPSIyOCIgeD0iNSIgeT0iNTg2Ljc1NzgiPlVzZXI8L3RleHQ+PGVsbGlwc2UgY3g9IjIyIiBjeT0iNTk3LjAwNzgiIGZpbGw9IiNFMkUyRjAiIHJ4PSI4IiByeT0iOCIgc3R5bGU9InN0cm9rZTojMTgxODE4O3N0cm9rZS13aWR0aDowLjU7Ii8+PHBhdGggZD0iTTIyLDYwNS4wMDc4IEwyMiw2MzIuMDA3OCBNOSw2MTMuMDA3OCBMMzUsNjEzLjAwNzggTTIyLDYzMi4wMDc4IEw5LDY0Ny4wMDc4IE0yMiw2MzIuMDA3OCBMMzUsNjQ3LjAwNzggIiBmaWxsPSJub25lIiBzdHlsZT0ic3Ryb2tlOiMxODE4MTg7c3Ryb2tlLXdpZHRoOjAuNTsiLz48cmVjdCBmaWxsPSIjRTJFMkYwIiBoZWlnaHQ9IjI4Ljk4NDQiIHJ4PSIyLjUiIHJ5PSIyLjUiIHN0eWxlPSJzdHJva2U6IzE4MTgxODtzdHJva2Utd2lkdGg6MC41OyIgd2lkdGg9IjkyIiB4PSIxMjgiIHk9IjUwIi8+PHRleHQgZmlsbD0iIzAwMDAwMCIgZm9udC1mYW1pbHk9InNhbnMtc2VyaWYiIGZvbnQtc2l6ZT0iMTQiIGxlbmd0aEFkanVzdD0ic3BhY2luZyIgdGV4dExlbmd0aD0iNzgiIHg9IjEzNSIgeT0iNzAuMjM0NCI+QVBJIEdhdGV3YXk8L3RleHQ+PHJlY3QgZmlsbD0iI0UyRTJGMCIgaGVpZ2h0PSIyOC45ODQ0IiByeD0iMi41IiByeT0iMi41IiBzdHlsZT0ic3Ryb2tlOiMxODE4MTg7c3Ryb2tlLXdpZHRoOjAuNTsiIHdpZHRoPSI5MiIgeD0iMTI4IiB5PSI1NzMuNTIzNCIvPjx0ZXh0IGZpbGw9IiMwMDAwMDAiIGZvbnQtZmFtaWx5PSJzYW5zLXNlcmlmIiBmb250LXNpemU9IjE0IiBsZW5ndGhBZGp1c3Q9InNwYWNpbmciIHRleHRMZW5ndGg9Ijc4IiB4PSIxMzUiIHk9IjU5My43NTc4Ij5BUEkgR2F0ZXdheTwvdGV4dD48cmVjdCBmaWxsPSIjRTJFMkYwIiBoZWlnaHQ9IjI4Ljk4NDQiIHJ4PSIyLjUiIHJ5PSIyLjUiIHN0eWxlPSJzdHJva2U6IzE4MTgxODtzdHJva2Utd2lkdGg6MC41OyIgd2lkdGg9IjE2OCIgeD0iMjMwIiB5PSI1MCIvPjx0ZXh0IGZpbGw9IiMwMDAwMDAiIGZvbnQtZmFtaWx5PSJzYW5zLXNlcmlmIiBmb250LXNpemU9IjE0IiBsZW5ndGhBZGp1c3Q9InNwYWNpbmciIHRleHRMZW5ndGg9IjE1NCIgeD0iMjM3IiB5PSI3MC4yMzQ0Ij5GaWxlIEluZ2VzdGlvbiBTZXJ2aWNlPC90ZXh0PjxyZWN0IGZpbGw9IiNFMkUyRjAiIGhlaWdodD0iMjguOTg0NCIgcng9IjIuNSIgcnk9IjIuNSIgc3R5bGU9InN0cm9rZTojMTgxODE4O3N0cm9rZS13aWR0aDowLjU7IiB3aWR0aD0iMTY4IiB4PSIyMzAiIHk9IjU3My41MjM0Ii8+PHRleHQgZmlsbD0iIzAwMDAwMCIgZm9udC1mYW1pbHk9InNhbnMtc2VyaWYiIGZvbnQtc2l6ZT0iMTQiIGxlbmd0aEFkanVzdD0ic3BhY2luZyIgdGV4dExlbmd0aD0iMTU0IiB4PSIyMzciIHk9IjU5My43NTc4Ij5GaWxlIEluZ2VzdGlvbiBTZXJ2aWNlPC90ZXh0PjxyZWN0IGZpbGw9IiNFMkUyRjAiIGhlaWdodD0iMjguOTg0NCIgcng9IjIuNSIgcnk9IjIuNSIgc3R5bGU9InN0cm9rZTojMTgxODE4O3N0cm9rZS13aWR0aDowLjU7IiB3aWR0aD0iMTk2IiB4PSI0MDgiIHk9IjUwIi8+PHRleHQgZmlsbD0iIzAwMDAwMCIgZm9udC1mYW1pbHk9InNhbnMtc2VyaWYiIGZvbnQtc2l6ZT0iMTQiIGxlbmd0aEFkanVzdD0ic3BhY2luZyIgdGV4dExlbmd0aD0iMTgyIiB4PSI0MTUiIHk9IjcwLjIzNDQiPlRleHQgRXh0cmFjdGlvbi9PQ1IgTW9kdWxlPC90ZXh0PjxyZWN0IGZpbGw9IiNFMkUyRjAiIGhlaWdodD0iMjguOTg0NCIgcng9IjIuNSIgcnk9IjIuNSIgc3R5bGU9InN0cm9rZTojMTgxODE4O3N0cm9rZS13aWR0aDowLjU7IiB3aWR0aD0iMTk2IiB4PSI0MDgiIHk9IjU3My41MjM0Ii8+PHRleHQgZmlsbD0iIzAwMDAwMCIgZm9udC1mYW1pbHk9InNhbnMtc2VyaWYiIGZvbnQtc2l6ZT0iMTQiIGxlbmd0aEFkanVzdD0ic3BhY2luZyIgdGV4dExlbmd0aD0iMTgyIiB4PSI0MTUiIHk9IjU5My43NTc4Ij5UZXh0IEV4dHJhY3Rpb24vT0NSIE1vZHVsZTwvdGV4dD48cmVjdCBmaWxsPSIjRTJFMkYwIiBoZWlnaHQ9IjI4Ljk4NDQiIHJ4PSIyLjUiIHJ5PSIyLjUiIHN0eWxlPSJzdHJva2U6IzE4MTgxODtzdHJva2Utd2lkdGg6MC41OyIgd2lkdGg9IjIwNCIgeD0iNjE0IiB5PSI1MCIvPjx0ZXh0IGZpbGw9IiMwMDAwMDAiIGZvbnQtZmFtaWx5PSJzYW5zLXNlcmlmIiBmb250LXNpemU9IjE0IiBsZW5ndGhBZGp1c3Q9InNwYWNpbmciIHRleHRMZW5ndGg9IjE5MCIgeD0iNjIxIiB5PSI3MC4yMzQ0Ij5Eb2N1bWVudCBQcm9jZXNzaW5nIFNlcnZpY2U8L3RleHQ+PHJlY3QgZmlsbD0iI0UyRTJGMCIgaGVpZ2h0PSIyOC45ODQ0IiByeD0iMi41IiByeT0iMi41IiBzdHlsZT0ic3Ryb2tlOiMxODE4MTg7c3Ryb2tlLXdpZHRoOjAuNTsiIHdpZHRoPSIyMDQiIHg9IjYxNCIgeT0iNTczLjUyMzQiLz48dGV4dCBmaWxsPSIjMDAwMDAwIiBmb250LWZhbWlseT0ic2Fucy1zZXJpZiIgZm9udC1zaXplPSIxNCIgbGVuZ3RoQWRqdXN0PSJzcGFjaW5nIiB0ZXh0TGVuZ3RoPSIxOTAiIHg9IjYyMSIgeT0iNTkzLjc1NzgiPkRvY3VtZW50IFByb2Nlc3NpbmcgU2VydmljZTwvdGV4dD48cmVjdCBmaWxsPSIjRTJFMkYwIiBoZWlnaHQ9IjI4Ljk4NDQiIHJ4PSIyLjUiIHJ5PSIyLjUiIHN0eWxlPSJzdHJva2U6IzE4MTgxODtzdHJva2Utd2lkdGg6MC41OyIgd2lkdGg9IjE0NyIgeD0iODI4IiB5PSI1MCIvPjx0ZXh0IGZpbGw9IiMwMDAwMDAiIGZvbnQtZmFtaWx5PSJzYW5zLXNlcmlmIiBmb250LXNpemU9IjE0IiBsZW5ndGhBZGp1c3Q9InNwYWNpbmciIHRleHRMZW5ndGg9IjEzMyIgeD0iODM1IiB5PSI3MC4yMzQ0Ij5BSSBBbmFseXNpcyBTZXJ2aWNlPC90ZXh0PjxyZWN0IGZpbGw9IiNFMkUyRjAiIGhlaWdodD0iMjguOTg0NCIgcng9IjIuNSIgcnk9IjIuNSIgc3R5bGU9InN0cm9rZTojMTgxODE4O3N0cm9rZS13aWR0aDowLjU7IiB3aWR0aD0iMTQ3IiB4PSI4MjgiIHk9IjU3My41MjM0Ii8+PHRleHQgZmlsbD0iIzAwMDAwMCIgZm9udC1mYW1pbHk9InNhbnMtc2VyaWYiIGZvbnQtc2l6ZT0iMTQiIGxlbmd0aEFkanVzdD0ic3BhY2luZyIgdGV4dExlbmd0aD0iMTMzIiB4PSI4MzUiIHk9IjU5My43NTc4Ij5BSSBBbmFseXNpcyBTZXJ2aWNlPC90ZXh0PjxyZWN0IGZpbGw9IiNFMkUyRjAiIGhlaWdodD0iMjguOTg0NCIgcng9IjIuNSIgcnk9IjIuNSIgc3R5bGU9InN0cm9rZTojMTgxODE4O3N0cm9rZS13aWR0aDowLjU7IiB3aWR0aD0iMTgzIiB4PSIxMDE4IiB5PSI1MCIvPjx0ZXh0IGZpbGw9IiMwMDAwMDAiIGZvbnQtZmFtaWx5PSJzYW5zLXNlcmlmIiBmb250LXNpemU9IjE0IiBsZW5ndGhBZGp1c3Q9InNwYWNpbmciIHRleHRMZW5ndGg9IjE2OSIgeD0iMTAyNSIgeT0iNzAuMjM0NCI+T3BlbkFJL0NsYXVkZS9HZW1pbmkgQVBJPC90ZXh0PjxyZWN0IGZpbGw9IiNFMkUyRjAiIGhlaWdodD0iMjguOTg0NCIgcng9IjIuNSIgcnk9IjIuNSIgc3R5bGU9InN0cm9rZTojMTgxODE4O3N0cm9rZS13aWR0aDowLjU7IiB3aWR0aD0iMTgzIiB4PSIxMDE4IiB5PSI1NzMuNTIzNCIvPjx0ZXh0IGZpbGw9IiMwMDAwMDAiIGZvbnQtZmFtaWx5PSJzYW5zLXNlcmlmIiBmb250LXNpemU9IjE0IiBsZW5ndGhBZGp1c3Q9InNwYWNpbmciIHRleHRMZW5ndGg9IjE2OSIgeD0iMTAyNSIgeT0iNTkzLjc1NzgiPk9wZW5BSS9DbGF1ZGUvR2VtaW5pIEFQSTwvdGV4dD48cmVjdCBmaWxsPSIjRTJFMkYwIiBoZWlnaHQ9IjI4Ljk4NDQiIHJ4PSIyLjUiIHJ5PSIyLjUiIHN0eWxlPSJzdHJva2U6IzE4MTgxODtzdHJva2Utd2lkdGg6MC41OyIgd2lkdGg9IjExOSIgeD0iMTIxMSIgeT0iNTAiLz48dGV4dCBmaWxsPSIjMDAwMDAwIiBmb250LWZhbWlseT0ic2Fucy1zZXJpZiIgZm9udC1zaXplPSIxNCIgbGVuZ3RoQWRqdXN0PSJzcGFjaW5nIiB0ZXh0TGVuZ3RoPSIxMDUiIHg9IjEyMTgiIHk9IjcwLjIzNDQiPlZlY3RvciBEYXRhYmFzZTwvdGV4dD48cmVjdCBmaWxsPSIjRTJFMkYwIiBoZWlnaHQ9IjI4Ljk4NDQiIHJ4PSIyLjUiIHJ5PSIyLjUiIHN0eWxlPSJzdHJva2U6IzE4MTgxODtzdHJva2Utd2lkdGg6MC41OyIgd2lkdGg9IjExOSIgeD0iMTIxMSIgeT0iNTczLjUyMzQiLz48dGV4dCBmaWxsPSIjMDAwMDAwIiBmb250LWZhbWlseT0ic2Fucy1zZXJpZiIgZm9udC1zaXplPSIxNCIgbGVuZ3RoQWRqdXN0PSJzcGFjaW5nIiB0ZXh0TGVuZ3RoPSIxMDUiIHg9IjEyMTgiIHk9IjU5My43NTc4Ij5WZWN0b3IgRGF0YWJhc2U8L3RleHQ+PHJlY3QgZmlsbD0iI0UyRTJGMCIgaGVpZ2h0PSIyOC45ODQ0IiByeD0iMi41IiByeT0iMi41IiBzdHlsZT0ic3Ryb2tlOiMxODE4MTg7c3Ryb2tlLXdpZHRoOjAuNTsiIHdpZHRoPSIyMzkiIHg9IjEzNDAiIHk9IjUwIi8+PHRleHQgZmlsbD0iIzAwMDAwMCIgZm9udC1mYW1pbHk9InNhbnMtc2VyaWYiIGZvbnQtc2l6ZT0iMTQiIGxlbmd0aEFkanVzdD0ic3BhY2luZyIgdGV4dExlbmd0aD0iMjI1IiB4PSIxMzQ3IiB5PSI3MC4yMzQ0Ij5Eb2N1bWVudCBTdGFuZGFyZGl6YXRpb24gU2VydmljZTwvdGV4dD48cmVjdCBmaWxsPSIjRTJFMkYwIiBoZWlnaHQ9IjI4Ljk4NDQiIHJ4PSIyLjUiIHJ5PSIyLjUiIHN0eWxlPSJzdHJva2U6IzE4MTgxODtzdHJva2Utd2lkdGg6MC41OyIgd2lkdGg9IjIzOSIgeD0iMTM0MCIgeT0iNTczLjUyMzQiLz48dGV4dCBmaWxsPSIjMDAwMDAwIiBmb250LWZhbWlseT0ic2Fucy1zZXJpZiIgZm9udC1zaXplPSIxNCIgbGVuZ3RoQWRqdXN0PSJzcGFjaW5nIiB0ZXh0TGVuZ3RoPSIyMjUiIHg9IjEzNDciIHk9IjU5My43NTc4Ij5Eb2N1bWVudCBTdGFuZGFyZGl6YXRpb24gU2VydmljZTwvdGV4dD48cG9seWdvbiBmaWxsPSIjMTgxODE4IiBwb2ludHM9IjE2MiwxMDUuODk4NCwxNzIsMTA5Ljg5ODQsMTYyLDExMy44OTg0LDE2NiwxMDkuODk4NCIgc3R5bGU9InN0cm9rZTojMTgxODE4O3N0cm9rZS13aWR0aDoxLjA7Ii8+PGxpbmUgc3R5bGU9InN0cm9rZTojMTgxODE4O3N0cm9rZS13aWR0aDoxLjA7IiB4MT0iMjIiIHgyPSIxNjgiIHkxPSIxMDkuODk4NCIgeTI9IjEwOS44OTg0Ii8+PHRleHQgZmlsbD0iIzAwMDAwMCIgZm9udC1mYW1pbHk9InNhbnMtc2VyaWYiIGZvbnQtc2l6ZT0iMTMiIGxlbmd0aEFkanVzdD0ic3BhY2luZyIgdGV4dExlbmd0aD0iMTI4IiB4PSIyOSIgeT0iMTA2LjI3MzQiPlVwbG9hZCBmaWxlIHJlcXVlc3Q8L3RleHQ+PHBvbHlnb24gZmlsbD0iIzE4MTgxOCIgcG9pbnRzPSIzMDIsMTMzLjgxMjUsMzEyLDEzNy44MTI1LDMwMiwxNDEuODEyNSwzMDYsMTM3LjgxMjUiIHN0eWxlPSJzdHJva2U6IzE4MTgxODtzdHJva2Utd2lkdGg6MS4wOyIvPjxsaW5lIHN0eWxlPSJzdHJva2U6IzE4MTgxODtzdHJva2Utd2lkdGg6MS4wOyIgeDE9IjE3NCIgeDI9IjMwOCIgeTE9IjEzNy44MTI1IiB5Mj0iMTM3LjgxMjUiLz48dGV4dCBmaWxsPSIjMDAwMDAwIiBmb250LWZhbWlseT0ic2Fucy1zZXJpZiIgZm9udC1zaXplPSIxMyIgbGVuZ3RoQWRqdXN0PSJzcGFjaW5nIiB0ZXh0TGVuZ3RoPSIxMDMiIHg9IjE4MSIgeT0iMTM0LjE4NzUiPkZvcndhcmQgcmVxdWVzdDwvdGV4dD48cG9seWdvbiBmaWxsPSIjMTgxODE4IiBwb2ludHM9IjQ5NCwxNjEuNzI2Niw1MDQsMTY1LjcyNjYsNDk0LDE2OS43MjY2LDQ5OCwxNjUuNzI2NiIgc3R5bGU9InN0cm9rZTojMTgxODE4O3N0cm9rZS13aWR0aDoxLjA7Ii8+PGxpbmUgc3R5bGU9InN0cm9rZTojMTgxODE4O3N0cm9rZS13aWR0aDoxLjA7IiB4MT0iMzE0IiB4Mj0iNTAwIiB5MT0iMTY1LjcyNjYiIHkyPSIxNjUuNzI2NiIvPjx0ZXh0IGZpbGw9IiMwMDAwMDAiIGZvbnQtZmFtaWx5PSJzYW5zLXNlcmlmIiBmb250LXNpemU9IjEzIiBsZW5ndGhBZGp1c3Q9InNwYWNpbmciIHRleHRMZW5ndGg9IjEwMSIgeD0iMzIxIiB5PSIxNjIuMTAxNiI+RXh0cmFjdCBjb250ZW50PC90ZXh0Pjxwb2x5Z29uIGZpbGw9IiMxODE4MTgiIHBvaW50cz0iMzI1LDE4OS42NDA2LDMxNSwxOTMuNjQwNiwzMjUsMTk3LjY0MDYsMzIxLDE5My42NDA2IiBzdHlsZT0ic3Ryb2tlOiMxODE4MTg7c3Ryb2tlLXdpZHRoOjEuMDsiLz48bGluZSBzdHlsZT0ic3Ryb2tlOiMxODE4MTg7c3Ryb2tlLXdpZHRoOjEuMDsiIHgxPSIzMTkiIHgyPSI1MDUiIHkxPSIxOTMuNjQwNiIgeTI9IjE5My42NDA2Ii8+PHRleHQgZmlsbD0iIzAwMDAwMCIgZm9udC1mYW1pbHk9InNhbnMtc2VyaWYiIGZvbnQtc2l6ZT0iMTMiIGxlbmd0aEFkanVzdD0ic3BhY2luZyIgdGV4dExlbmd0aD0iMTQyIiB4PSIzMzEiIHk9IjE5MC4wMTU2Ij5SZXR1cm4gZXh0cmFjdGVkIHRleHQ8L3RleHQ+PHBvbHlnb24gZmlsbD0iIzE4MTgxOCIgcG9pbnRzPSI3MDQsMjE3LjU1NDcsNzE0LDIyMS41NTQ3LDcwNCwyMjUuNTU0Nyw3MDgsMjIxLjU1NDciIHN0eWxlPSJzdHJva2U6IzE4MTgxODtzdHJva2Utd2lkdGg6MS4wOyIvPjxsaW5lIHN0eWxlPSJzdHJva2U6IzE4MTgxODtzdHJva2Utd2lkdGg6MS4wOyIgeDE9IjMxNCIgeDI9IjcxMCIgeTE9IjIyMS41NTQ3IiB5Mj0iMjIxLjU1NDciLz48dGV4dCBmaWxsPSIjMDAwMDAwIiBmb250LWZhbWlseT0ic2Fucy1zZXJpZiIgZm9udC1zaXplPSIxMyIgbGVuZ3RoQWRqdXN0PSJzcGFjaW5nIiB0ZXh0TGVuZ3RoPSIxMjkiIHg9IjMyMSIgeT0iMjE3LjkyOTciPlNlbmQgZXh0cmFjdGVkIHRleHQ8L3RleHQ+PHBvbHlnb24gZmlsbD0iIzE4MTgxOCIgcG9pbnRzPSI4ODkuNSwyNDUuNDY4OCw4OTkuNSwyNDkuNDY4OCw4ODkuNSwyNTMuNDY4OCw4OTMuNSwyNDkuNDY4OCIgc3R5bGU9InN0cm9rZTojMTgxODE4O3N0cm9rZS13aWR0aDoxLjA7Ii8+PGxpbmUgc3R5bGU9InN0cm9rZTojMTgxODE4O3N0cm9rZS13aWR0aDoxLjA7IiB4MT0iNzE2IiB4Mj0iODk1LjUiIHkxPSIyNDkuNDY4OCIgeTI9IjI0OS40Njg4Ii8+PHRleHQgZmlsbD0iIzAwMDAwMCIgZm9udC1mYW1pbHk9InNhbnMtc2VyaWYiIGZvbnQtc2l6ZT0iMTMiIGxlbmd0aEFkanVzdD0ic3BhY2luZyIgdGV4dExlbmd0aD0iMTUyIiB4PSI3MjMiIHk9IjI0NS44NDM4Ij5TZW5kIHByb2Nlc3NlZCBjb250ZW50PC90ZXh0Pjxwb2x5Z29uIGZpbGw9IiMxODE4MTgiIHBvaW50cz0iMTA5Ny41LDI3My4zODI4LDExMDcuNSwyNzcuMzgyOCwxMDk3LjUsMjgxLjM4MjgsMTEwMS41LDI3Ny4zODI4IiBzdHlsZT0ic3Ryb2tlOiMxODE4MTg7c3Ryb2tlLXdpZHRoOjEuMDsiLz48bGluZSBzdHlsZT0ic3Ryb2tlOiMxODE4MTg7c3Ryb2tlLXdpZHRoOjEuMDsiIHgxPSI5MDEuNSIgeDI9IjExMDMuNSIgeTE9IjI3Ny4zODI4IiB5Mj0iMjc3LjM4MjgiLz48dGV4dCBmaWxsPSIjMDAwMDAwIiBmb250LWZhbWlseT0ic2Fucy1zZXJpZiIgZm9udC1zaXplPSIxMyIgbGVuZ3RoQWRqdXN0PSJzcGFjaW5nIiB0ZXh0TGVuZ3RoPSIxODQiIHg9IjkwOC41IiB5PSIyNzMuNzU3OCI+UmVxdWVzdCBlbWJlZGRpbmcgJmFtcDsgc3VtbWFyeTwvdGV4dD48cG9seWdvbiBmaWxsPSIjMTgxODE4IiBwb2ludHM9IjkxMi41LDMwMS4yOTY5LDkwMi41LDMwNS4yOTY5LDkxMi41LDMwOS4yOTY5LDkwOC41LDMwNS4yOTY5IiBzdHlsZT0ic3Ryb2tlOiMxODE4MTg7c3Ryb2tlLXdpZHRoOjEuMDsiLz48bGluZSBzdHlsZT0ic3Ryb2tlOiMxODE4MTg7c3Ryb2tlLXdpZHRoOjEuMDsiIHgxPSI5MDYuNSIgeDI9IjExMDguNSIgeTE9IjMwNS4yOTY5IiB5Mj0iMzA1LjI5NjkiLz48dGV4dCBmaWxsPSIjMDAwMDAwIiBmb250LWZhbWlseT0ic2Fucy1zZXJpZiIgZm9udC1zaXplPSIxMyIgbGVuZ3RoQWRqdXN0PSJzcGFjaW5nIiB0ZXh0TGVuZ3RoPSIxNzciIHg9IjkxOC41IiB5PSIzMDEuNjcxOSI+UmV0dXJuIGVtYmVkZGluZyAmYW1wOyBzdW1tYXJ5PC90ZXh0Pjxwb2x5Z29uIGZpbGw9IiMxODE4MTgiIHBvaW50cz0iMTI1OC41LDMyOS4yMTA5LDEyNjguNSwzMzMuMjEwOSwxMjU4LjUsMzM3LjIxMDksMTI2Mi41LDMzMy4yMTA5IiBzdHlsZT0ic3Ryb2tlOiMxODE4MTg7c3Ryb2tlLXdpZHRoOjEuMDsiLz48bGluZSBzdHlsZT0ic3Ryb2tlOiMxODE4MTg7c3Ryb2tlLXdpZHRoOjEuMDsiIHgxPSI5MDEuNSIgeDI9IjEyNjQuNSIgeTE9IjMzMy4yMTA5IiB5Mj0iMzMzLjIxMDkiLz48dGV4dCBmaWxsPSIjMDAwMDAwIiBmb250LWZhbWlseT0ic2Fucy1zZXJpZiIgZm9udC1zaXplPSIxMyIgbGVuZ3RoQWRqdXN0PSJzcGFjaW5nIiB0ZXh0TGVuZ3RoPSIxMDIiIHg9IjkwOC41IiB5PSIzMjkuNTg1OSI+U3RvcmUgZW1iZWRkaW5nPC90ZXh0Pjxwb2x5Z29uIGZpbGw9IiMxODE4MTgiIHBvaW50cz0iMTQ0Ny41LDM1Ny4xMjUsMTQ1Ny41LDM2MS4xMjUsMTQ0Ny41LDM2NS4xMjUsMTQ1MS41LDM2MS4xMjUiIHN0eWxlPSJzdHJva2U6IzE4MTgxODtzdHJva2Utd2lkdGg6MS4wOyIvPjxsaW5lIHN0eWxlPSJzdHJva2U6IzE4MTgxODtzdHJva2Utd2lkdGg6MS4wOyIgeDE9IjkwMS41IiB4Mj0iMTQ1My41IiB5MT0iMzYxLjEyNSIgeTI9IjM2MS4xMjUiLz48dGV4dCBmaWxsPSIjMDAwMDAwIiBmb250LWZhbWlseT0ic2Fucy1zZXJpZiIgZm9udC1zaXplPSIxMyIgbGVuZ3RoQWRqdXN0PSJzcGFjaW5nIiB0ZXh0TGVuZ3RoPSIxMzYiIHg9IjkwOC41IiB5PSIzNTcuNSI+U2VuZCBhbmFseXNpcyByZXN1bHQ8L3RleHQ+PHBvbHlnb24gZmlsbD0iIzE4MTgxOCIgcG9pbnRzPSI5MTIuNSwzODUuMDM5MSw5MDIuNSwzODkuMDM5MSw5MTIuNSwzOTMuMDM5MSw5MDguNSwzODkuMDM5MSIgc3R5bGU9InN0cm9rZTojMTgxODE4O3N0cm9rZS13aWR0aDoxLjA7Ii8+PGxpbmUgc3R5bGU9InN0cm9rZTojMTgxODE4O3N0cm9rZS13aWR0aDoxLjA7IiB4MT0iOTA2LjUiIHgyPSIxNDU4LjUiIHkxPSIzODkuMDM5MSIgeTI9IjM4OS4wMzkxIi8+PHRleHQgZmlsbD0iIzAwMDAwMCIgZm9udC1mYW1pbHk9InNhbnMtc2VyaWYiIGZvbnQtc2l6ZT0iMTMiIGxlbmd0aEFkanVzdD0ic3BhY2luZyIgdGV4dExlbmd0aD0iMTQ5IiB4PSI5MTguNSIgeT0iMzg1LjQxNDEiPlJldHVybiBBZ2lsZSBkb2N1bWVudHM8L3RleHQ+PHBvbHlnb24gZmlsbD0iIzE4MTgxOCIgcG9pbnRzPSIxNjIsNDEyLjk1MzEsMTcyLDQxNi45NTMxLDE2Miw0MjAuOTUzMSwxNjYsNDE2Ljk1MzEiIHN0eWxlPSJzdHJva2U6IzE4MTgxODtzdHJva2Utd2lkdGg6MS4wOyIvPjxsaW5lIHN0eWxlPSJzdHJva2U6IzE4MTgxODtzdHJva2Utd2lkdGg6MS4wOyIgeDE9IjIyIiB4Mj0iMTY4IiB5MT0iNDE2Ljk1MzEiIHkyPSI0MTYuOTUzMSIvPjx0ZXh0IGZpbGw9IiMwMDAwMDAiIGZvbnQtZmFtaWx5PSJzYW5zLXNlcmlmIiBmb250LXNpemU9IjEzIiBsZW5ndGhBZGp1c3Q9InNwYWNpbmciIHRleHRMZW5ndGg9Ijc2IiB4PSIyOSIgeT0iNDEzLjMyODEiPlEmYW1wO0EgUmVxdWVzdDwvdGV4dD48cG9seWdvbiBmaWxsPSIjMTgxODE4IiBwb2ludHM9Ijg4OS41LDQ0MC44NjcyLDg5OS41LDQ0NC44NjcyLDg4OS41LDQ0OC44NjcyLDg5My41LDQ0NC44NjcyIiBzdHlsZT0ic3Ryb2tlOiMxODE4MTg7c3Ryb2tlLXdpZHRoOjEuMDsiLz48bGluZSBzdHlsZT0ic3Ryb2tlOiMxODE4MTg7c3Ryb2tlLXdpZHRoOjEuMDsiIHgxPSIxNzQiIHgyPSI4OTUuNSIgeTE9IjQ0NC44NjcyIiB5Mj0iNDQ0Ljg2NzIiLz48dGV4dCBmaWxsPSIjMDAwMDAwIiBmb250LWZhbWlseT0ic2Fucy1zZXJpZiIgZm9udC1zaXplPSIxMyIgbGVuZ3RoQWRqdXN0PSJzcGFjaW5nIiB0ZXh0TGVuZ3RoPSIxMzEiIHg9IjE4MSIgeT0iNDQxLjI0MjIiPkZvcndhcmQgUSZhbXA7QSByZXF1ZXN0PC90ZXh0Pjxwb2x5Z29uIGZpbGw9IiMxODE4MTgiIHBvaW50cz0iMTI1OC41LDQ2OC43ODEzLDEyNjguNSw0NzIuNzgxMywxMjU4LjUsNDc2Ljc4MTMsMTI2Mi41LDQ3Mi43ODEzIiBzdHlsZT0ic3Ryb2tlOiMxODE4MTg7c3Ryb2tlLXdpZHRoOjEuMDsiLz48bGluZSBzdHlsZT0ic3Ryb2tlOiMxODE4MTg7c3Ryb2tlLXdpZHRoOjEuMDsiIHgxPSI5MDEuNSIgeDI9IjEyNjQuNSIgeTE9IjQ3Mi43ODEzIiB5Mj0iNDcyLjc4MTMiLz48dGV4dCBmaWxsPSIjMDAwMDAwIiBmb250LWZhbWlseT0ic2Fucy1zZXJpZiIgZm9udC1zaXplPSIxMyIgbGVuZ3RoQWRqdXN0PSJzcGFjaW5nIiB0ZXh0TGVuZ3RoPSIxNDMiIHg9IjkwOC41IiB5PSI0NjkuMTU2MyI+UXVlcnkgcmVsYXRlZCBjb250ZW50PC90ZXh0Pjxwb2x5Z29uIGZpbGw9IiMxODE4MTgiIHBvaW50cz0iOTEyLjUsNDk2LjY5NTMsOTAyLjUsNTAwLjY5NTMsOTEyLjUsNTA0LjY5NTMsOTA4LjUsNTAwLjY5NTMiIHN0eWxlPSJzdHJva2U6IzE4MTgxODtzdHJva2Utd2lkdGg6MS4wOyIvPjxsaW5lIHN0eWxlPSJzdHJva2U6IzE4MTgxODtzdHJva2Utd2lkdGg6MS4wOyIgeDE9IjkwNi41IiB4Mj0iMTI2OS41IiB5MT0iNTAwLjY5NTMiIHkyPSI1MDAuNjk1MyIvPjx0ZXh0IGZpbGw9IiMwMDAwMDAiIGZvbnQtZmFtaWx5PSJzYW5zLXNlcmlmIiBmb250LXNpemU9IjEzIiBsZW5ndGhBZGp1c3Q9InNwYWNpbmciIHRleHRMZW5ndGg9IjE1NiIgeD0iOTE4LjUiIHk9IjQ5Ny4wNzAzIj5SZXR1cm4gbWF0Y2hpbmcgdmVjdG9yczwvdGV4dD48cG9seWdvbiBmaWxsPSIjMTgxODE4IiBwb2ludHM9IjE4NSw1MjQuNjA5NCwxNzUsNTI4LjYwOTQsMTg1LDUzMi42MDk0LDE4MSw1MjguNjA5NCIgc3R5bGU9InN0cm9rZTojMTgxODE4O3N0cm9rZS13aWR0aDoxLjA7Ii8+PGxpbmUgc3R5bGU9InN0cm9rZTojMTgxODE4O3N0cm9rZS13aWR0aDoxLjA7IiB4MT0iMTc5IiB4Mj0iOTAwLjUiIHkxPSI1MjguNjA5NCIgeTI9IjUyOC42MDk0Ii8+PHRleHQgZmlsbD0iIzAwMDAwMCIgZm9udC1mYW1pbHk9InNhbnMtc2VyaWYiIGZvbnQtc2l6ZT0iMTMiIGxlbmd0aEFkanVzdD0ic3BhY2luZyIgdGV4dExlbmd0aD0iMTE2IiB4PSIxOTEiIHk9IjUyNC45ODQ0Ij5SZXR1cm4gUSZhbXA7QSByZXN1bHQ8L3RleHQ+PHBvbHlnb24gZmlsbD0iIzE4MTgxOCIgcG9pbnRzPSIzMyw1NTIuNTIzNCwyMyw1NTYuNTIzNCwzMyw1NjAuNTIzNCwyOSw1NTYuNTIzNCIgc3R5bGU9InN0cm9rZTojMTgxODE4O3N0cm9rZS13aWR0aDoxLjA7Ii8+PGxpbmUgc3R5bGU9InN0cm9rZTojMTgxODE4O3N0cm9rZS13aWR0aDoxLjA7IiB4MT0iMjciIHgyPSIxNzMiIHkxPSI1NTYuNTIzNCIgeTI9IjU1Ni41MjM0Ii8+PHRleHQgZmlsbD0iIzAwMDAwMCIgZm9udC1mYW1pbHk9InNhbnMtc2VyaWYiIGZvbnQtc2l6ZT0iMTMiIGxlbmd0aEFkanVzdD0ic3BhY2luZyIgdGV4dExlbmd0aD0iOTQiIHg9IjM5IiB5PSI1NTIuODk4NCI+RGlzcGxheSByZXN1bHQ8L3RleHQ+PCEtLVNSQz1bVFA4blJ1Q200OEx0VmlLZkd4T2dFcUNiQW9JOGVLZVFja25OVjRxaldRNnNRS2pfVlMtMFFRM2pYbG9VeHByXzFuUWtEZDJzUEFBZUdVREtlSGhLM2JSWWM0NkFaWndtTW01UTRFYlN0d2tJOERETmlheEw2ZDhveHdnV3RoaEZ5aGR0WUp1VHgzd1RtU0FSRHVWajJIdmdzUFEzX3NidFU5WFZJRWdZaE9ZX1pnT2tvNWdiaHhFNHZCWDg0MWE4Wk1MZGJQcVBuUkJBZUk0amlpc3NuNVJJOWdMQVFHTnlyanZ6czJ1VVVRNFVKdThFZHo0RThvXzlGcnJwWHJnWWFVZUJWbzU5eVpvQUY2TXVrc1VLQ1BvUmlhTzlCdndZZVJVTUNLT1l6SWhKWXM1VmNteVVES2J5dzNMRkFXdWFlUVlydS0zOGRxdXRKLUhRZXU0NjNxYm1fMWRrQ3hVT1VzY3ZyNWRlY3NMMVJtUm1oOFNLQ09uV0had2FobUxLRlBFS1ZaamhpNnJMZVVhWURhb1pHZmFfUkVFdUl5QTFwOVgtSjQ1WVBjQ1AzQWlyUERrSXMtUnZDYTlTRkthdnhpQkVPSi1rSFFXeUdYUXRhQnF5eFUyZHJjREJmY0VYSDdVM3VQOGllb2pxblFqX3Q3bF9qeldtR3dJSlBLWmVrbV92bGJxQ1lSOURZVHFlVkdDMF0tLT48L2c+PC9zdmc+;" parent="1" vertex="1">
            <mxGeometry x="-370" y="70" width="1585" height="654" as="geometry" />
          </mxCell>
        </UserObject>
        <UserObject label="" plantUmlData="{&#xa;  &quot;data&quot;: &quot;@startuml\nactor User\n\nparticipant \&quot;API Gateway\&quot; as AG\nparticipant \&quot;File Ingestion Service\&quot; as FIS\nparticipant \&quot;Text Extraction/OCR Module\&quot; as TEOM\nparticipant \&quot;Document Processing Service\&quot; as DPS\nparticipant \&quot;AI Analysis Service\&quot; as AIS\nparticipant \&quot;OpenAI/Claude/Gemini API\&quot; as OCG\nparticipant \&quot;Vector Database\&quot; as VD\nparticipant \&quot;Document Standardization Service\&quot; as DSS\n\n&#39; Người dùng gửi yêu cầu tải lên file\nUser -&gt; AG: Yêu cầu tải lên file\n\n&#39; API Gateway chuyển tiếp yêu cầu đến File Ingestion Service\nAG -&gt; FIS: Chuyển tiếp yêu cầu\n\n&#39; File Ingestion Service gọi module trích xuất nội dung (với OCR nếu cần)\nFIS -&gt; TEOM: Trích xuất nội dung từ file\nTEOM -&gt; FIS: Trả về nội dung đã trích xuất\n\n&#39; File Ingestion Service chuyển nội dung đã trích xuất đến Document Processing Service để xử lý\nFIS -&gt; DPS: Gửi nội dung đã trích xuất\n\n&#39; Document Processing Service xử lý và chuẩn hóa nội dung, sau đó gửi đến AI Analysis Service\nDPS -&gt; AIS: Gửi nội dung đã xử lý\n\n&#39; AI Analysis Service gọi API của OpenAI/Claude/Gemini để tạo embedding và tóm tắt nội dung\nAIS -&gt; OCG: Yêu cầu tạo embedding &amp; tóm tắt nội dung\nOCG -&gt; AIS: Trả về embedding &amp; tóm tắt\n\n&#39; AI Analysis Service lưu embedding vào Vector Database\nAIS -&gt; VD: Lưu embedding\n\n&#39; AI Analysis Service gửi kết quả phân tích đến Document Standardization Service để chuẩn hóa tài liệu theo Agile\nAIS -&gt; DSS: Gửi kết quả phân tích\nDSS -&gt; AIS: Trả về tài liệu Agile chuẩn hóa\n\n&#39; Người dùng gửi yêu cầu Q&amp;A\nUser -&gt; AG: Yêu cầu Q&amp;A\n\n&#39; API Gateway chuyển tiếp yêu cầu Q&amp;A đến AI Analysis Service\nAG -&gt; AIS: Chuyển tiếp yêu cầu Q&amp;A\n\n&#39; AI Analysis Service truy vấn Vector Database để tìm kiếm nội dung liên quan\nAIS -&gt; VD: Truy vấn nội dung liên quan\nVD -&gt; AIS: Trả về các vector phù hợp\n\n&#39; AI Analysis Service trả kết quả Q&amp;A cho API Gateway và hiển thị cho người dùng\nAIS -&gt; AG: Trả kết quả Q&amp;A\nAG -&gt; User: Hiển thị kết quả\n@enduml\n&quot;,&#xa;  &quot;format&quot;: &quot;svg&quot;&#xa;}" id="wLRpZgvh6ZqnwfxEwsv6-2">
          <mxCell style="shape=image;noLabel=1;verticalAlign=top;aspect=fixed;imageAspect=0;image=data:image/svg+xml,PD94bWwgdmVyc2lvbj0iMS4wIiBlbmNvZGluZz0idXMtYXNjaWkiIHN0YW5kYWxvbmU9Im5vIj8+PHN2ZyB4bWxucz0iaHR0cDovL3d3dy53My5vcmcvMjAwMC9zdmciIHhtbG5zOnhsaW5rPSJodHRwOi8vd3d3LnczLm9yZy8xOTk5L3hsaW5rIiBjb250ZW50U3R5bGVUeXBlPSJ0ZXh0L2NzcyIgaGVpZ2h0PSI2NTRweCIgcHJlc2VydmVBc3BlY3RSYXRpbz0ibm9uZSIgc3R5bGU9IndpZHRoOjE3MjRweDtoZWlnaHQ6NjU0cHg7YmFja2dyb3VuZDojRkZGRkZGOyIgdmVyc2lvbj0iMS4xIiB2aWV3Qm94PSIwIDAgMTcyNCA2NTQiIHdpZHRoPSIxNzI0cHgiIHpvb21BbmRQYW49Im1hZ25pZnkiPjxkZWZzLz48Zz48bGluZSBzdHlsZT0ic3Ryb2tlOiMxODE4MTg7c3Ryb2tlLXdpZHRoOjAuNTtzdHJva2UtZGFzaGFycmF5OjUuMCw1LjA7IiB4MT0iMjIiIHgyPSIyMiIgeTE9Ijc5Ljk4NDQiIHkyPSI1NzQuNTIzNCIvPjxsaW5lIHN0eWxlPSJzdHJva2U6IzE4MTgxODtzdHJva2Utd2lkdGg6MC41O3N0cm9rZS1kYXNoYXJyYXk6NS4wLDUuMDsiIHgxPSIxODAiIHgyPSIxODAiIHkxPSI3OS45ODQ0IiB5Mj0iNTc0LjUyMzQiLz48bGluZSBzdHlsZT0ic3Ryb2tlOiMxODE4MTg7c3Ryb2tlLXdpZHRoOjAuNTtzdHJva2UtZGFzaGFycmF5OjUuMCw1LjA7IiB4MT0iMzM1IiB4Mj0iMzM1IiB5MT0iNzkuOTg0NCIgeTI9IjU3NC41MjM0Ii8+PGxpbmUgc3R5bGU9InN0cm9rZTojMTgxODE4O3N0cm9rZS13aWR0aDowLjU7c3Ryb2tlLWRhc2hhcnJheTo1LjAsNS4wOyIgeDE9IjU1NyIgeDI9IjU1NyIgeTE9Ijc5Ljk4NDQiIHkyPSI1NzQuNTIzNCIvPjxsaW5lIHN0eWxlPSJzdHJva2U6IzE4MTgxODtzdHJva2Utd2lkdGg6MC41O3N0cm9rZS1kYXNoYXJyYXk6NS4wLDUuMDsiIHgxPSI3NjciIHgyPSI3NjciIHkxPSI3OS45ODQ0IiB5Mj0iNTc0LjUyMzQiLz48bGluZSBzdHlsZT0ic3Ryb2tlOiMxODE4MTg7c3Ryb2tlLXdpZHRoOjAuNTtzdHJva2UtZGFzaGFycmF5OjUuMCw1LjA7IiB4MT0iOTUyIiB4Mj0iOTUyIiB5MT0iNzkuOTg0NCIgeTI9IjU3NC41MjM0Ii8+PGxpbmUgc3R5bGU9InN0cm9rZTojMTgxODE4O3N0cm9rZS13aWR0aDowLjU7c3Ryb2tlLWRhc2hhcnJheTo1LjAsNS4wOyIgeDE9IjEyNDgiIHgyPSIxMjQ4IiB5MT0iNzkuOTg0NCIgeTI9IjU3NC41MjM0Ii8+PGxpbmUgc3R5bGU9InN0cm9rZTojMTgxODE4O3N0cm9rZS13aWR0aDowLjU7c3Ryb2tlLWRhc2hhcnJheTo1LjAsNS4wOyIgeDE9IjE0MDkiIHgyPSIxNDA5IiB5MT0iNzkuOTg0NCIgeTI9IjU3NC41MjM0Ii8+PGxpbmUgc3R5bGU9InN0cm9rZTojMTgxODE4O3N0cm9rZS13aWR0aDowLjU7c3Ryb2tlLWRhc2hhcnJheTo1LjAsNS4wOyIgeDE9IjE1OTgiIHgyPSIxNTk4IiB5MT0iNzkuOTg0NCIgeTI9IjU3NC41MjM0Ii8+PHRleHQgZmlsbD0iIzAwMDAwMCIgZm9udC1mYW1pbHk9InNhbnMtc2VyaWYiIGZvbnQtc2l6ZT0iMTQiIGxlbmd0aEFkanVzdD0ic3BhY2luZyIgdGV4dExlbmd0aD0iMjgiIHg9IjUiIHk9Ijc4LjIzNDQiPlVzZXI8L3RleHQ+PGVsbGlwc2UgY3g9IjIyIiBjeT0iMTMuNSIgZmlsbD0iI0UyRTJGMCIgcng9IjgiIHJ5PSI4IiBzdHlsZT0ic3Ryb2tlOiMxODE4MTg7c3Ryb2tlLXdpZHRoOjAuNTsiLz48cGF0aCBkPSJNMjIsMjEuNSBMMjIsNDguNSBNOSwyOS41IEwzNSwyOS41IE0yMiw0OC41IEw5LDYzLjUgTTIyLDQ4LjUgTDM1LDYzLjUgIiBmaWxsPSJub25lIiBzdHlsZT0ic3Ryb2tlOiMxODE4MTg7c3Ryb2tlLXdpZHRoOjAuNTsiLz48dGV4dCBmaWxsPSIjMDAwMDAwIiBmb250LWZhbWlseT0ic2Fucy1zZXJpZiIgZm9udC1zaXplPSIxNCIgbGVuZ3RoQWRqdXN0PSJzcGFjaW5nIiB0ZXh0TGVuZ3RoPSIyOCIgeD0iNSIgeT0iNTg2Ljc1NzgiPlVzZXI8L3RleHQ+PGVsbGlwc2UgY3g9IjIyIiBjeT0iNTk3LjAwNzgiIGZpbGw9IiNFMkUyRjAiIHJ4PSI4IiByeT0iOCIgc3R5bGU9InN0cm9rZTojMTgxODE4O3N0cm9rZS13aWR0aDowLjU7Ii8+PHBhdGggZD0iTTIyLDYwNS4wMDc4IEwyMiw2MzIuMDA3OCBNOSw2MTMuMDA3OCBMMzUsNjEzLjAwNzggTTIyLDYzMi4wMDc4IEw5LDY0Ny4wMDc4IE0yMiw2MzIuMDA3OCBMMzUsNjQ3LjAwNzggIiBmaWxsPSJub25lIiBzdHlsZT0ic3Ryb2tlOiMxODE4MTg7c3Ryb2tlLXdpZHRoOjAuNTsiLz48cmVjdCBmaWxsPSIjRTJFMkYwIiBoZWlnaHQ9IjI4Ljk4NDQiIHJ4PSIyLjUiIHJ5PSIyLjUiIHN0eWxlPSJzdHJva2U6IzE4MTgxODtzdHJva2Utd2lkdGg6MC41OyIgd2lkdGg9IjkyIiB4PSIxMzQiIHk9IjUwIi8+PHRleHQgZmlsbD0iIzAwMDAwMCIgZm9udC1mYW1pbHk9InNhbnMtc2VyaWYiIGZvbnQtc2l6ZT0iMTQiIGxlbmd0aEFkanVzdD0ic3BhY2luZyIgdGV4dExlbmd0aD0iNzgiIHg9IjE0MSIgeT0iNzAuMjM0NCI+QVBJIEdhdGV3YXk8L3RleHQ+PHJlY3QgZmlsbD0iI0UyRTJGMCIgaGVpZ2h0PSIyOC45ODQ0IiByeD0iMi41IiByeT0iMi41IiBzdHlsZT0ic3Ryb2tlOiMxODE4MTg7c3Ryb2tlLXdpZHRoOjAuNTsiIHdpZHRoPSI5MiIgeD0iMTM0IiB5PSI1NzMuNTIzNCIvPjx0ZXh0IGZpbGw9IiMwMDAwMDAiIGZvbnQtZmFtaWx5PSJzYW5zLXNlcmlmIiBmb250LXNpemU9IjE0IiBsZW5ndGhBZGp1c3Q9InNwYWNpbmciIHRleHRMZW5ndGg9Ijc4IiB4PSIxNDEiIHk9IjU5My43NTc4Ij5BUEkgR2F0ZXdheTwvdGV4dD48cmVjdCBmaWxsPSIjRTJFMkYwIiBoZWlnaHQ9IjI4Ljk4NDQiIHJ4PSIyLjUiIHJ5PSIyLjUiIHN0eWxlPSJzdHJva2U6IzE4MTgxODtzdHJva2Utd2lkdGg6MC41OyIgd2lkdGg9IjE2OCIgeD0iMjUxIiB5PSI1MCIvPjx0ZXh0IGZpbGw9IiMwMDAwMDAiIGZvbnQtZmFtaWx5PSJzYW5zLXNlcmlmIiBmb250LXNpemU9IjE0IiBsZW5ndGhBZGp1c3Q9InNwYWNpbmciIHRleHRMZW5ndGg9IjE1NCIgeD0iMjU4IiB5PSI3MC4yMzQ0Ij5GaWxlIEluZ2VzdGlvbiBTZXJ2aWNlPC90ZXh0PjxyZWN0IGZpbGw9IiNFMkUyRjAiIGhlaWdodD0iMjguOTg0NCIgcng9IjIuNSIgcnk9IjIuNSIgc3R5bGU9InN0cm9rZTojMTgxODE4O3N0cm9rZS13aWR0aDowLjU7IiB3aWR0aD0iMTY4IiB4PSIyNTEiIHk9IjU3My41MjM0Ii8+PHRleHQgZmlsbD0iIzAwMDAwMCIgZm9udC1mYW1pbHk9InNhbnMtc2VyaWYiIGZvbnQtc2l6ZT0iMTQiIGxlbmd0aEFkanVzdD0ic3BhY2luZyIgdGV4dExlbmd0aD0iMTU0IiB4PSIyNTgiIHk9IjU5My43NTc4Ij5GaWxlIEluZ2VzdGlvbiBTZXJ2aWNlPC90ZXh0PjxyZWN0IGZpbGw9IiNFMkUyRjAiIGhlaWdodD0iMjguOTg0NCIgcng9IjIuNSIgcnk9IjIuNSIgc3R5bGU9InN0cm9rZTojMTgxODE4O3N0cm9rZS13aWR0aDowLjU7IiB3aWR0aD0iMTk2IiB4PSI0NTkiIHk9IjUwIi8+PHRleHQgZmlsbD0iIzAwMDAwMCIgZm9udC1mYW1pbHk9InNhbnMtc2VyaWYiIGZvbnQtc2l6ZT0iMTQiIGxlbmd0aEFkanVzdD0ic3BhY2luZyIgdGV4dExlbmd0aD0iMTgyIiB4PSI0NjYiIHk9IjcwLjIzNDQiPlRleHQgRXh0cmFjdGlvbi9PQ1IgTW9kdWxlPC90ZXh0PjxyZWN0IGZpbGw9IiNFMkUyRjAiIGhlaWdodD0iMjguOTg0NCIgcng9IjIuNSIgcnk9IjIuNSIgc3R5bGU9InN0cm9rZTojMTgxODE4O3N0cm9rZS13aWR0aDowLjU7IiB3aWR0aD0iMTk2IiB4PSI0NTkiIHk9IjU3My41MjM0Ii8+PHRleHQgZmlsbD0iIzAwMDAwMCIgZm9udC1mYW1pbHk9InNhbnMtc2VyaWYiIGZvbnQtc2l6ZT0iMTQiIGxlbmd0aEFkanVzdD0ic3BhY2luZyIgdGV4dExlbmd0aD0iMTgyIiB4PSI0NjYiIHk9IjU5My43NTc4Ij5UZXh0IEV4dHJhY3Rpb24vT0NSIE1vZHVsZTwvdGV4dD48cmVjdCBmaWxsPSIjRTJFMkYwIiBoZWlnaHQ9IjI4Ljk4NDQiIHJ4PSIyLjUiIHJ5PSIyLjUiIHN0eWxlPSJzdHJva2U6IzE4MTgxODtzdHJva2Utd2lkdGg6MC41OyIgd2lkdGg9IjIwNCIgeD0iNjY1IiB5PSI1MCIvPjx0ZXh0IGZpbGw9IiMwMDAwMDAiIGZvbnQtZmFtaWx5PSJzYW5zLXNlcmlmIiBmb250LXNpemU9IjE0IiBsZW5ndGhBZGp1c3Q9InNwYWNpbmciIHRleHRMZW5ndGg9IjE5MCIgeD0iNjcyIiB5PSI3MC4yMzQ0Ij5Eb2N1bWVudCBQcm9jZXNzaW5nIFNlcnZpY2U8L3RleHQ+PHJlY3QgZmlsbD0iI0UyRTJGMCIgaGVpZ2h0PSIyOC45ODQ0IiByeD0iMi41IiByeT0iMi41IiBzdHlsZT0ic3Ryb2tlOiMxODE4MTg7c3Ryb2tlLXdpZHRoOjAuNTsiIHdpZHRoPSIyMDQiIHg9IjY2NSIgeT0iNTczLjUyMzQiLz48dGV4dCBmaWxsPSIjMDAwMDAwIiBmb250LWZhbWlseT0ic2Fucy1zZXJpZiIgZm9udC1zaXplPSIxNCIgbGVuZ3RoQWRqdXN0PSJzcGFjaW5nIiB0ZXh0TGVuZ3RoPSIxOTAiIHg9IjY3MiIgeT0iNTkzLjc1NzgiPkRvY3VtZW50IFByb2Nlc3NpbmcgU2VydmljZTwvdGV4dD48cmVjdCBmaWxsPSIjRTJFMkYwIiBoZWlnaHQ9IjI4Ljk4NDQiIHJ4PSIyLjUiIHJ5PSIyLjUiIHN0eWxlPSJzdHJva2U6IzE4MTgxODtzdHJva2Utd2lkdGg6MC41OyIgd2lkdGg9IjE0NyIgeD0iODc5IiB5PSI1MCIvPjx0ZXh0IGZpbGw9IiMwMDAwMDAiIGZvbnQtZmFtaWx5PSJzYW5zLXNlcmlmIiBmb250LXNpemU9IjE0IiBsZW5ndGhBZGp1c3Q9InNwYWNpbmciIHRleHRMZW5ndGg9IjEzMyIgeD0iODg2IiB5PSI3MC4yMzQ0Ij5BSSBBbmFseXNpcyBTZXJ2aWNlPC90ZXh0PjxyZWN0IGZpbGw9IiNFMkUyRjAiIGhlaWdodD0iMjguOTg0NCIgcng9IjIuNSIgcnk9IjIuNSIgc3R5bGU9InN0cm9rZTojMTgxODE4O3N0cm9rZS13aWR0aDowLjU7IiB3aWR0aD0iMTQ3IiB4PSI4NzkiIHk9IjU3My41MjM0Ii8+PHRleHQgZmlsbD0iIzAwMDAwMCIgZm9udC1mYW1pbHk9InNhbnMtc2VyaWYiIGZvbnQtc2l6ZT0iMTQiIGxlbmd0aEFkanVzdD0ic3BhY2luZyIgdGV4dExlbmd0aD0iMTMzIiB4PSI4ODYiIHk9IjU5My43NTc4Ij5BSSBBbmFseXNpcyBTZXJ2aWNlPC90ZXh0PjxyZWN0IGZpbGw9IiNFMkUyRjAiIGhlaWdodD0iMjguOTg0NCIgcng9IjIuNSIgcnk9IjIuNSIgc3R5bGU9InN0cm9rZTojMTgxODE4O3N0cm9rZS13aWR0aDowLjU7IiB3aWR0aD0iMTgzIiB4PSIxMTU3IiB5PSI1MCIvPjx0ZXh0IGZpbGw9IiMwMDAwMDAiIGZvbnQtZmFtaWx5PSJzYW5zLXNlcmlmIiBmb250LXNpemU9IjE0IiBsZW5ndGhBZGp1c3Q9InNwYWNpbmciIHRleHRMZW5ndGg9IjE2OSIgeD0iMTE2NCIgeT0iNzAuMjM0NCI+T3BlbkFJL0NsYXVkZS9HZW1pbmkgQVBJPC90ZXh0PjxyZWN0IGZpbGw9IiNFMkUyRjAiIGhlaWdodD0iMjguOTg0NCIgcng9IjIuNSIgcnk9IjIuNSIgc3R5bGU9InN0cm9rZTojMTgxODE4O3N0cm9rZS13aWR0aDowLjU7IiB3aWR0aD0iMTgzIiB4PSIxMTU3IiB5PSI1NzMuNTIzNCIvPjx0ZXh0IGZpbGw9IiMwMDAwMDAiIGZvbnQtZmFtaWx5PSJzYW5zLXNlcmlmIiBmb250LXNpemU9IjE0IiBsZW5ndGhBZGp1c3Q9InNwYWNpbmciIHRleHRMZW5ndGg9IjE2OSIgeD0iMTE2NCIgeT0iNTkzLjc1NzgiPk9wZW5BSS9DbGF1ZGUvR2VtaW5pIEFQSTwvdGV4dD48cmVjdCBmaWxsPSIjRTJFMkYwIiBoZWlnaHQ9IjI4Ljk4NDQiIHJ4PSIyLjUiIHJ5PSIyLjUiIHN0eWxlPSJzdHJva2U6IzE4MTgxODtzdHJva2Utd2lkdGg6MC41OyIgd2lkdGg9IjExOSIgeD0iMTM1MCIgeT0iNTAiLz48dGV4dCBmaWxsPSIjMDAwMDAwIiBmb250LWZhbWlseT0ic2Fucy1zZXJpZiIgZm9udC1zaXplPSIxNCIgbGVuZ3RoQWRqdXN0PSJzcGFjaW5nIiB0ZXh0TGVuZ3RoPSIxMDUiIHg9IjEzNTciIHk9IjcwLjIzNDQiPlZlY3RvciBEYXRhYmFzZTwvdGV4dD48cmVjdCBmaWxsPSIjRTJFMkYwIiBoZWlnaHQ9IjI4Ljk4NDQiIHJ4PSIyLjUiIHJ5PSIyLjUiIHN0eWxlPSJzdHJva2U6IzE4MTgxODtzdHJva2Utd2lkdGg6MC41OyIgd2lkdGg9IjExOSIgeD0iMTM1MCIgeT0iNTczLjUyMzQiLz48dGV4dCBmaWxsPSIjMDAwMDAwIiBmb250LWZhbWlseT0ic2Fucy1zZXJpZiIgZm9udC1zaXplPSIxNCIgbGVuZ3RoQWRqdXN0PSJzcGFjaW5nIiB0ZXh0TGVuZ3RoPSIxMDUiIHg9IjEzNTciIHk9IjU5My43NTc4Ij5WZWN0b3IgRGF0YWJhc2U8L3RleHQ+PHJlY3QgZmlsbD0iI0UyRTJGMCIgaGVpZ2h0PSIyOC45ODQ0IiByeD0iMi41IiByeT0iMi41IiBzdHlsZT0ic3Ryb2tlOiMxODE4MTg7c3Ryb2tlLXdpZHRoOjAuNTsiIHdpZHRoPSIyMzkiIHg9IjE0NzkiIHk9IjUwIi8+PHRleHQgZmlsbD0iIzAwMDAwMCIgZm9udC1mYW1pbHk9InNhbnMtc2VyaWYiIGZvbnQtc2l6ZT0iMTQiIGxlbmd0aEFkanVzdD0ic3BhY2luZyIgdGV4dExlbmd0aD0iMjI1IiB4PSIxNDg2IiB5PSI3MC4yMzQ0Ij5Eb2N1bWVudCBTdGFuZGFyZGl6YXRpb24gU2VydmljZTwvdGV4dD48cmVjdCBmaWxsPSIjRTJFMkYwIiBoZWlnaHQ9IjI4Ljk4NDQiIHJ4PSIyLjUiIHJ5PSIyLjUiIHN0eWxlPSJzdHJva2U6IzE4MTgxODtzdHJva2Utd2lkdGg6MC41OyIgd2lkdGg9IjIzOSIgeD0iMTQ3OSIgeT0iNTczLjUyMzQiLz48dGV4dCBmaWxsPSIjMDAwMDAwIiBmb250LWZhbWlseT0ic2Fucy1zZXJpZiIgZm9udC1zaXplPSIxNCIgbGVuZ3RoQWRqdXN0PSJzcGFjaW5nIiB0ZXh0TGVuZ3RoPSIyMjUiIHg9IjE0ODYiIHk9IjU5My43NTc4Ij5Eb2N1bWVudCBTdGFuZGFyZGl6YXRpb24gU2VydmljZTwvdGV4dD48cG9seWdvbiBmaWxsPSIjMTgxODE4IiBwb2ludHM9IjE2OCwxMDUuODk4NCwxNzgsMTA5Ljg5ODQsMTY4LDExMy44OTg0LDE3MiwxMDkuODk4NCIgc3R5bGU9InN0cm9rZTojMTgxODE4O3N0cm9rZS13aWR0aDoxLjA7Ii8+PGxpbmUgc3R5bGU9InN0cm9rZTojMTgxODE4O3N0cm9rZS13aWR0aDoxLjA7IiB4MT0iMjIiIHgyPSIxNzQiIHkxPSIxMDkuODk4NCIgeTI9IjEwOS44OTg0Ii8+PHRleHQgZmlsbD0iIzAwMDAwMCIgZm9udC1mYW1pbHk9InNhbnMtc2VyaWYiIGZvbnQtc2l6ZT0iMTMiIGxlbmd0aEFkanVzdD0ic3BhY2luZyIgdGV4dExlbmd0aD0iMTM0IiB4PSIyOSIgeT0iMTA2LjI3MzQiPlkmIzIzNDt1IGMmIzc4NDc7dSB0JiM3ODQzO2kgbCYjMjM0O24gZmlsZTwvdGV4dD48cG9seWdvbiBmaWxsPSIjMTgxODE4IiBwb2ludHM9IjMyMywxMzMuODEyNSwzMzMsMTM3LjgxMjUsMzIzLDE0MS44MTI1LDMyNywxMzcuODEyNSIgc3R5bGU9InN0cm9rZTojMTgxODE4O3N0cm9rZS13aWR0aDoxLjA7Ii8+PGxpbmUgc3R5bGU9InN0cm9rZTojMTgxODE4O3N0cm9rZS13aWR0aDoxLjA7IiB4MT0iMTgwIiB4Mj0iMzI5IiB5MT0iMTM3LjgxMjUiIHkyPSIxMzcuODEyNSIvPjx0ZXh0IGZpbGw9IiMwMDAwMDAiIGZvbnQtZmFtaWx5PSJzYW5zLXNlcmlmIiBmb250LXNpemU9IjEzIiBsZW5ndGhBZGp1c3Q9InNwYWNpbmciIHRleHRMZW5ndGg9IjEzMSIgeD0iMTg3IiB5PSIxMzQuMTg3NSI+Q2h1eSYjNzg3NTtuIHRpJiM3ODcxO3AgeSYjMjM0O3UgYyYjNzg0Nzt1PC90ZXh0Pjxwb2x5Z29uIGZpbGw9IiMxODE4MTgiIHBvaW50cz0iNTQ1LDE2MS43MjY2LDU1NSwxNjUuNzI2Niw1NDUsMTY5LjcyNjYsNTQ5LDE2NS43MjY2IiBzdHlsZT0ic3Ryb2tlOiMxODE4MTg7c3Ryb2tlLXdpZHRoOjEuMDsiLz48bGluZSBzdHlsZT0ic3Ryb2tlOiMxODE4MTg7c3Ryb2tlLXdpZHRoOjEuMDsiIHgxPSIzMzUiIHgyPSI1NTEiIHkxPSIxNjUuNzI2NiIgeTI9IjE2NS43MjY2Ii8+PHRleHQgZmlsbD0iIzAwMDAwMCIgZm9udC1mYW1pbHk9InNhbnMtc2VyaWYiIGZvbnQtc2l6ZT0iMTMiIGxlbmd0aEFkanVzdD0ic3BhY2luZyIgdGV4dExlbmd0aD0iMTgxIiB4PSIzNDIiIHk9IjE2Mi4xMDE2Ij5UciYjMjM3O2NoIHh1JiM3ODQ1O3QgbiYjNzg5NztpIGR1bmcgdCYjNzkxNTsgZmlsZTwvdGV4dD48cG9seWdvbiBmaWxsPSIjMTgxODE4IiBwb2ludHM9IjM0NiwxODkuNjQwNiwzMzYsMTkzLjY0MDYsMzQ2LDE5Ny42NDA2LDM0MiwxOTMuNjQwNiIgc3R5bGU9InN0cm9rZTojMTgxODE4O3N0cm9rZS13aWR0aDoxLjA7Ii8+PGxpbmUgc3R5bGU9InN0cm9rZTojMTgxODE4O3N0cm9rZS13aWR0aDoxLjA7IiB4MT0iMzQwIiB4Mj0iNTU2IiB5MT0iMTkzLjY0MDYiIHkyPSIxOTMuNjQwNiIvPjx0ZXh0IGZpbGw9IiMwMDAwMDAiIGZvbnQtZmFtaWx5PSJzYW5zLXNlcmlmIiBmb250LXNpemU9IjEzIiBsZW5ndGhBZGp1c3Q9InNwYWNpbmciIHRleHRMZW5ndGg9IjE5OCIgeD0iMzUyIiB5PSIxOTAuMDE1NiI+VHImIzc4NDM7IHYmIzc4NzM7IG4mIzc4OTc7aSBkdW5nICYjMjczOyYjMjI3OyB0ciYjMjM3O2NoIHh1JiM3ODQ1O3Q8L3RleHQ+PHBvbHlnb24gZmlsbD0iIzE4MTgxOCIgcG9pbnRzPSI3NTUsMjE3LjU1NDcsNzY1LDIyMS41NTQ3LDc1NSwyMjUuNTU0Nyw3NTksMjIxLjU1NDciIHN0eWxlPSJzdHJva2U6IzE4MTgxODtzdHJva2Utd2lkdGg6MS4wOyIvPjxsaW5lIHN0eWxlPSJzdHJva2U6IzE4MTgxODtzdHJva2Utd2lkdGg6MS4wOyIgeDE9IjMzNSIgeDI9Ijc2MSIgeTE9IjIyMS41NTQ3IiB5Mj0iMjIxLjU1NDciLz48dGV4dCBmaWxsPSIjMDAwMDAwIiBmb250LWZhbWlseT0ic2Fucy1zZXJpZiIgZm9udC1zaXplPSIxMyIgbGVuZ3RoQWRqdXN0PSJzcGFjaW5nIiB0ZXh0TGVuZ3RoPSIxNzciIHg9IjM0MiIgeT0iMjE3LjkyOTciPkcmIzc5MTc7aSBuJiM3ODk3O2kgZHVuZyAmIzI3MzsmIzIyNzsgdHImIzIzNztjaCB4dSYjNzg0NTt0PC90ZXh0Pjxwb2x5Z29uIGZpbGw9IiMxODE4MTgiIHBvaW50cz0iOTQwLjUsMjQ1LjQ2ODgsOTUwLjUsMjQ5LjQ2ODgsOTQwLjUsMjUzLjQ2ODgsOTQ0LjUsMjQ5LjQ2ODgiIHN0eWxlPSJzdHJva2U6IzE4MTgxODtzdHJva2Utd2lkdGg6MS4wOyIvPjxsaW5lIHN0eWxlPSJzdHJva2U6IzE4MTgxODtzdHJva2Utd2lkdGg6MS4wOyIgeDE9Ijc2NyIgeDI9Ijk0Ni41IiB5MT0iMjQ5LjQ2ODgiIHkyPSIyNDkuNDY4OCIvPjx0ZXh0IGZpbGw9IiMwMDAwMDAiIGZvbnQtZmFtaWx5PSJzYW5zLXNlcmlmIiBmb250LXNpemU9IjEzIiBsZW5ndGhBZGp1c3Q9InNwYWNpbmciIHRleHRMZW5ndGg9IjE0NCIgeD0iNzc0IiB5PSIyNDUuODQzOCI+RyYjNzkxNztpIG4mIzc4OTc7aSBkdW5nICYjMjczOyYjMjI3OyB4JiM3OTE3OyBsJiMyNTM7PC90ZXh0Pjxwb2x5Z29uIGZpbGw9IiMxODE4MTgiIHBvaW50cz0iMTIzNi41LDI3My4zODI4LDEyNDYuNSwyNzcuMzgyOCwxMjM2LjUsMjgxLjM4MjgsMTI0MC41LDI3Ny4zODI4IiBzdHlsZT0ic3Ryb2tlOiMxODE4MTg7c3Ryb2tlLXdpZHRoOjEuMDsiLz48bGluZSBzdHlsZT0ic3Ryb2tlOiMxODE4MTg7c3Ryb2tlLXdpZHRoOjEuMDsiIHgxPSI5NTIuNSIgeDI9IjEyNDIuNSIgeTE9IjI3Ny4zODI4IiB5Mj0iMjc3LjM4MjgiLz48dGV4dCBmaWxsPSIjMDAwMDAwIiBmb250LWZhbWlseT0ic2Fucy1zZXJpZiIgZm9udC1zaXplPSIxMyIgbGVuZ3RoQWRqdXN0PSJzcGFjaW5nIiB0ZXh0TGVuZ3RoPSIyNzIiIHg9Ijk1OS41IiB5PSIyNzMuNzU3OCI+WSYjMjM0O3UgYyYjNzg0Nzt1IHQmIzc4NDE7byBlbWJlZGRpbmcgJmFtcDsgdCYjMjQzO20gdCYjNzg1NTt0IG4mIzc4OTc7aSBkdW5nPC90ZXh0Pjxwb2x5Z29uIGZpbGw9IiMxODE4MTgiIHBvaW50cz0iOTYzLjUsMzAxLjI5NjksOTUzLjUsMzA1LjI5NjksOTYzLjUsMzA5LjI5NjksOTU5LjUsMzA1LjI5NjkiIHN0eWxlPSJzdHJva2U6IzE4MTgxODtzdHJva2Utd2lkdGg6MS4wOyIvPjxsaW5lIHN0eWxlPSJzdHJva2U6IzE4MTgxODtzdHJva2Utd2lkdGg6MS4wOyIgeDE9Ijk1Ny41IiB4Mj0iMTI0Ny41IiB5MT0iMzA1LjI5NjkiIHkyPSIzMDUuMjk2OSIvPjx0ZXh0IGZpbGw9IiMwMDAwMDAiIGZvbnQtZmFtaWx5PSJzYW5zLXNlcmlmIiBmb250LXNpemU9IjEzIiBsZW5ndGhBZGp1c3Q9InNwYWNpbmciIHRleHRMZW5ndGg9IjE3NSIgeD0iOTY5LjUiIHk9IjMwMS42NzE5Ij5UciYjNzg0MzsgdiYjNzg3MzsgZW1iZWRkaW5nICZhbXA7IHQmIzI0MzttIHQmIzc4NTU7dDwvdGV4dD48cG9seWdvbiBmaWxsPSIjMTgxODE4IiBwb2ludHM9IjEzOTcuNSwzMjkuMjEwOSwxNDA3LjUsMzMzLjIxMDksMTM5Ny41LDMzNy4yMTA5LDE0MDEuNSwzMzMuMjEwOSIgc3R5bGU9InN0cm9rZTojMTgxODE4O3N0cm9rZS13aWR0aDoxLjA7Ii8+PGxpbmUgc3R5bGU9InN0cm9rZTojMTgxODE4O3N0cm9rZS13aWR0aDoxLjA7IiB4MT0iOTUyLjUiIHgyPSIxNDAzLjUiIHkxPSIzMzMuMjEwOSIgeTI9IjMzMy4yMTA5Ii8+PHRleHQgZmlsbD0iIzAwMDAwMCIgZm9udC1mYW1pbHk9InNhbnMtc2VyaWYiIGZvbnQtc2l6ZT0iMTMiIGxlbmd0aEFkanVzdD0ic3BhY2luZyIgdGV4dExlbmd0aD0iODkiIHg9Ijk1OS41IiB5PSIzMjkuNTg1OSI+TCYjNDMyO3UgZW1iZWRkaW5nPC90ZXh0Pjxwb2x5Z29uIGZpbGw9IiMxODE4MTgiIHBvaW50cz0iMTU4Ni41LDM1Ny4xMjUsMTU5Ni41LDM2MS4xMjUsMTU4Ni41LDM2NS4xMjUsMTU5MC41LDM2MS4xMjUiIHN0eWxlPSJzdHJva2U6IzE4MTgxODtzdHJva2Utd2lkdGg6MS4wOyIvPjxsaW5lIHN0eWxlPSJzdHJva2U6IzE4MTgxODtzdHJva2Utd2lkdGg6MS4wOyIgeDE9Ijk1Mi41IiB4Mj0iMTU5Mi41IiB5MT0iMzYxLjEyNSIgeTI9IjM2MS4xMjUiLz48dGV4dCBmaWxsPSIjMDAwMDAwIiBmb250LWZhbWlseT0ic2Fucy1zZXJpZiIgZm9udC1zaXplPSIxMyIgbGVuZ3RoQWRqdXN0PSJzcGFjaW5nIiB0ZXh0TGVuZ3RoPSIxNDMiIHg9Ijk1OS41IiB5PSIzNTcuNSI+RyYjNzkxNztpIGsmIzc4NzE7dCBxdSYjNzg0MzsgcGgmIzIyNjtuIHQmIzIzNztjaDwvdGV4dD48cG9seWdvbiBmaWxsPSIjMTgxODE4IiBwb2ludHM9Ijk2My41LDM4NS4wMzkxLDk1My41LDM4OS4wMzkxLDk2My41LDM5My4wMzkxLDk1OS41LDM4OS4wMzkxIiBzdHlsZT0ic3Ryb2tlOiMxODE4MTg7c3Ryb2tlLXdpZHRoOjEuMDsiLz48bGluZSBzdHlsZT0ic3Ryb2tlOiMxODE4MTg7c3Ryb2tlLXdpZHRoOjEuMDsiIHgxPSI5NTcuNSIgeDI9IjE1OTcuNSIgeTE9IjM4OS4wMzkxIiB5Mj0iMzg5LjAzOTEiLz48dGV4dCBmaWxsPSIjMDAwMDAwIiBmb250LWZhbWlseT0ic2Fucy1zZXJpZiIgZm9udC1zaXplPSIxMyIgbGVuZ3RoQWRqdXN0PSJzcGFjaW5nIiB0ZXh0TGVuZ3RoPSIyMTAiIHg9Ijk2OS41IiB5PSIzODUuNDE0MSI+VHImIzc4NDM7IHYmIzc4NzM7IHQmIzIyNDtpIGxpJiM3ODc5O3UgQWdpbGUgY2h1JiM3ODQ5O24gaCYjMjQzO2E8L3RleHQ+PHBvbHlnb24gZmlsbD0iIzE4MTgxOCIgcG9pbnRzPSIxNjgsNDEyLjk1MzEsMTc4LDQxNi45NTMxLDE2OCw0MjAuOTUzMSwxNzIsNDE2Ljk1MzEiIHN0eWxlPSJzdHJva2U6IzE4MTgxODtzdHJva2Utd2lkdGg6MS4wOyIvPjxsaW5lIHN0eWxlPSJzdHJva2U6IzE4MTgxODtzdHJva2Utd2lkdGg6MS4wOyIgeDE9IjIyIiB4Mj0iMTc0IiB5MT0iNDE2Ljk1MzEiIHkyPSI0MTYuOTUzMSIvPjx0ZXh0IGZpbGw9IiMwMDAwMDAiIGZvbnQtZmFtaWx5PSJzYW5zLXNlcmlmIiBmb250LXNpemU9IjEzIiBsZW5ndGhBZGp1c3Q9InNwYWNpbmciIHRleHRMZW5ndGg9Ijc3IiB4PSIyOSIgeT0iNDEzLjMyODEiPlkmIzIzNDt1IGMmIzc4NDc7dSBRJmFtcDtBPC90ZXh0Pjxwb2x5Z29uIGZpbGw9IiMxODE4MTgiIHBvaW50cz0iOTQwLjUsNDQwLjg2NzIsOTUwLjUsNDQ0Ljg2NzIsOTQwLjUsNDQ4Ljg2NzIsOTQ0LjUsNDQ0Ljg2NzIiIHN0eWxlPSJzdHJva2U6IzE4MTgxODtzdHJva2Utd2lkdGg6MS4wOyIvPjxsaW5lIHN0eWxlPSJzdHJva2U6IzE4MTgxODtzdHJva2Utd2lkdGg6MS4wOyIgeDE9IjE4MCIgeDI9Ijk0Ni41IiB5MT0iNDQ0Ljg2NzIiIHkyPSI0NDQuODY3MiIvPjx0ZXh0IGZpbGw9IiMwMDAwMDAiIGZvbnQtZmFtaWx5PSJzYW5zLXNlcmlmIiBmb250LXNpemU9IjEzIiBsZW5ndGhBZGp1c3Q9InNwYWNpbmciIHRleHRMZW5ndGg9IjE1OSIgeD0iMTg3IiB5PSI0NDEuMjQyMiI+Q2h1eSYjNzg3NTtuIHRpJiM3ODcxO3AgeSYjMjM0O3UgYyYjNzg0Nzt1IFEmYW1wO0E8L3RleHQ+PHBvbHlnb24gZmlsbD0iIzE4MTgxOCIgcG9pbnRzPSIxMzk3LjUsNDY4Ljc4MTMsMTQwNy41LDQ3Mi43ODEzLDEzOTcuNSw0NzYuNzgxMywxNDAxLjUsNDcyLjc4MTMiIHN0eWxlPSJzdHJva2U6IzE4MTgxODtzdHJva2Utd2lkdGg6MS4wOyIvPjxsaW5lIHN0eWxlPSJzdHJva2U6IzE4MTgxODtzdHJva2Utd2lkdGg6MS4wOyIgeDE9Ijk1Mi41IiB4Mj0iMTQwMy41IiB5MT0iNDcyLjc4MTMiIHkyPSI0NzIuNzgxMyIvPjx0ZXh0IGZpbGw9IiMwMDAwMDAiIGZvbnQtZmFtaWx5PSJzYW5zLXNlcmlmIiBmb250LXNpemU9IjEzIiBsZW5ndGhBZGp1c3Q9InNwYWNpbmciIHRleHRMZW5ndGg9IjE4NSIgeD0iOTU5LjUiIHk9IjQ2OS4xNTYzIj5UcnV5IHYmIzc4NDU7biBuJiM3ODk3O2kgZHVuZyBsaSYjMjM0O24gcXVhbjwvdGV4dD48cG9seWdvbiBmaWxsPSIjMTgxODE4IiBwb2ludHM9Ijk2My41LDQ5Ni42OTUzLDk1My41LDUwMC42OTUzLDk2My41LDUwNC42OTUzLDk1OS41LDUwMC42OTUzIiBzdHlsZT0ic3Ryb2tlOiMxODE4MTg7c3Ryb2tlLXdpZHRoOjEuMDsiLz48bGluZSBzdHlsZT0ic3Ryb2tlOiMxODE4MTg7c3Ryb2tlLXdpZHRoOjEuMDsiIHgxPSI5NTcuNSIgeDI9IjE0MDguNSIgeTE9IjUwMC42OTUzIiB5Mj0iNTAwLjY5NTMiLz48dGV4dCBmaWxsPSIjMDAwMDAwIiBmb250LWZhbWlseT0ic2Fucy1zZXJpZiIgZm9udC1zaXplPSIxMyIgbGVuZ3RoQWRqdXN0PSJzcGFjaW5nIiB0ZXh0TGVuZ3RoPSIxNzMiIHg9Ijk2OS41IiB5PSI0OTcuMDcwMyI+VHImIzc4NDM7IHYmIzc4NzM7IGMmIzIyNTtjIHZlY3RvciBwaCYjMjQ5OyBoJiM3OTA3O3A8L3RleHQ+PHBvbHlnb24gZmlsbD0iIzE4MTgxOCIgcG9pbnRzPSIxOTEsNTI0LjYwOTQsMTgxLDUyOC42MDk0LDE5MSw1MzIuNjA5NCwxODcsNTI4LjYwOTQiIHN0eWxlPSJzdHJva2U6IzE4MTgxODtzdHJva2Utd2lkdGg6MS4wOyIvPjxsaW5lIHN0eWxlPSJzdHJva2U6IzE4MTgxODtzdHJva2Utd2lkdGg6MS4wOyIgeDE9IjE4NSIgeDI9Ijk1MS41IiB5MT0iNTI4LjYwOTQiIHkyPSI1MjguNjA5NCIvPjx0ZXh0IGZpbGw9IiMwMDAwMDAiIGZvbnQtZmFtaWx5PSJzYW5zLXNlcmlmIiBmb250LXNpemU9IjEzIiBsZW5ndGhBZGp1c3Q9InNwYWNpbmciIHRleHRMZW5ndGg9IjEwMyIgeD0iMTk3IiB5PSI1MjQuOTg0NCI+VHImIzc4NDM7IGsmIzc4NzE7dCBxdSYjNzg0MzsgUSZhbXA7QTwvdGV4dD48cG9seWdvbiBmaWxsPSIjMTgxODE4IiBwb2ludHM9IjMzLDU1Mi41MjM0LDIzLDU1Ni41MjM0LDMzLDU2MC41MjM0LDI5LDU1Ni41MjM0IiBzdHlsZT0ic3Ryb2tlOiMxODE4MTg7c3Ryb2tlLXdpZHRoOjEuMDsiLz48bGluZSBzdHlsZT0ic3Ryb2tlOiMxODE4MTg7c3Ryb2tlLXdpZHRoOjEuMDsiIHgxPSIyNyIgeDI9IjE3OSIgeTE9IjU1Ni41MjM0IiB5Mj0iNTU2LjUyMzQiLz48dGV4dCBmaWxsPSIjMDAwMDAwIiBmb250LWZhbWlseT0ic2Fucy1zZXJpZiIgZm9udC1zaXplPSIxMyIgbGVuZ3RoQWRqdXN0PSJzcGFjaW5nIiB0ZXh0TGVuZ3RoPSIxMDgiIHg9IjM5IiB5PSI1NTIuODk4NCI+SGkmIzc4NzU7biB0aCYjNzg4MzsgayYjNzg3MTt0IHF1JiM3ODQzOzwvdGV4dD48IS0tU1JDPVtaTEoxUmpEMDVCcHhBdnZ3QTIyMVVpeTFvT2hSNDhjSUdhOGFaYmp4WUxVcnJ3Y3ozV2F0cjBDN25BNTdYOTFRZWdnWUs1NmZmeVAyNzVwckZfUEZVNmw3Z1V0UWZoU2VkZnF0UnNQc1lJYXk3cnU3ckRVcUNWNDVDemNPUzA1aC1hdU5FYUpHVHNJczFZRzBsTEZ5bGlLUzJicS1lZTVXN2VTLXpJVkNmMGJxZ3ppbE9XVHFBYzFwQWRuWUFsMTZoX3FBalpxaFQ1QnlPQkV0TkpuV1U2UmVLbG9ydXRpYzNHQjZIdUs5bmF2ZldqdTVkSERkNWgyVzBESkJLZGZab2xOa0hqaVhlS0t0RWpIYmQwN2tjZzF4eFRBSUd2aE9PbjExVGFjR0tXd0Q2Z3J6R1JYNVY4a3o5dFNpQ1ZmekpOaTBCcU90NXBCd25pMkFodDJiYU9wRTZTcFlpbjFDa0pXREdTWjVkODRKZHQ1dVlfdmdBWFR1eVhKRFJ5NlJVWFdvdi04MnFtdmRDWmhXODlYU18xdGQxcm1WdVp5U2dpRkp6OHVRWGw2cmU1dEJlUVBMZHJWeFY2Ulc5aWMyeUVEcHF1UGZBMVNkMGhZQ2xrM1E4TXh6UzJBWmhtbksySlhvZnhKeWFPUHByTlpMWFhPQ3dhdUI2VnJDanJSMGJUdzFadnUwQ2RfOFd3eUZ1dGJISThGd2JNc0QxOWM1M0hMTGFFVzBmZldrWGxHZE1tbkJzdTlFNGxiXzlKUW5QeG1tWU8tS1FCZHVtUzZFQnFjRXpaNDRIQUtUTm92QmpiSFRTS3lxcjlMcWg1aWhSeE05QWpmVFhjTmtnZUFjWjR1OUw1d29yMUlpeGg0N3JEc2JiZ01NS1prOC1EOUw3dHhkV3pScXIzTXlhLU5rNW1aTVF1eFprVExNa045Szd3blJwQmN2MjhqWUZJWXoyUGRFZVQ2MnZtTHVXcmxleUh4YzhNMF9MQ2g2VGxtVFJyaElXTkF6UWJ3TGZQczUtNEx5WEF5MmF6NTdqQ2NjN2tXWlRLLU0wbDQ5b2xBamNRcVhmQ2dwRjZ6Mk1IWHhkdFZqdlJmVXp2UWZKX1RfbG4zVEw2TnpEbERzOHFiVERpOEZQeFpxdWVJTlN5eHc2X3pvT0t6SGtsYmh1WjNyNkUtN1hFVnhDQlhiZ3lPRVpJZ19wVlpPWDRhdzdrRXYwYmo2eXQ2elA3S203d2Fvb1JJeldnVmdkamFpREdKZkZZSzBOZVdqS3d1MjZiSUhCa3JMR1JSV01QdWkxX203XS0tPjwvZz48L3N2Zz4=;" parent="1" vertex="1">
            <mxGeometry x="-370" y="760" width="1724" height="654" as="geometry" />
          </mxCell>
        </UserObject>
        <mxCell id="wLRpZgvh6ZqnwfxEwsv6-3" value="&lt;h3&gt;&lt;font style=&quot;font-size: 18px;&quot;&gt;Giải thích chi tiết các bước:&lt;/font&gt;&lt;/h3&gt;&lt;ol&gt;&lt;li&gt;&lt;font size=&quot;3&quot;&gt;&lt;strong&gt;Người dùng gửi yêu cầu tải lên file&lt;/strong&gt;: Người dùng bắt đầu quá trình bằng cách gửi file tài liệu cần xử lý lên hệ thống thông qua API Gateway.&lt;/font&gt;&lt;/li&gt;&lt;li&gt;&lt;font size=&quot;3&quot;&gt;&lt;strong&gt;API Gateway chuyển tiếp yêu cầu&lt;/strong&gt;: API Gateway định tuyến và chuyển yêu cầu tải lên file đến dịch vụ File Ingestion Service.&lt;/font&gt;&lt;/li&gt;&lt;li&gt;&lt;font size=&quot;3&quot;&gt;&lt;strong&gt;File Ingestion Service gọi module trích xuất nội dung&lt;/strong&gt;: Dịch vụ này nhận file, xác định loại file và sử dụng module Text Extraction/OCR để trích xuất nội dung từ file (sử dụng OCR nếu file là ảnh).&lt;/font&gt;&lt;/li&gt;&lt;li&gt;&lt;font size=&quot;3&quot;&gt;&lt;strong&gt;Trả về nội dung đã trích xuất&lt;/strong&gt;: Module trích xuất trả về nội dung đã được trích xuất cho File Ingestion Service.&lt;/font&gt;&lt;/li&gt;&lt;li&gt;&lt;font size=&quot;3&quot;&gt;&lt;strong&gt;Chuyển nội dung đến Document Processing Service&lt;/strong&gt;: Nội dung trích xuất được gửi đến Document Processing Service để làm sạch, phân đoạn và chuẩn hóa.&lt;/font&gt;&lt;/li&gt;&lt;li&gt;&lt;font size=&quot;3&quot;&gt;&lt;strong&gt;Xử lý nội dung và gửi đến AI Analysis Service&lt;/strong&gt;: Nội dung đã xử lý được gửi tới AI Analysis Service để phân tích sâu hơn.&lt;/font&gt;&lt;/li&gt;&lt;li&gt;&lt;font size=&quot;3&quot;&gt;&lt;strong&gt;Gọi API của OpenAI/Claude/Gemini&lt;/strong&gt;: AI Analysis Service sử dụng các API từ các dịch vụ AI tiên tiến (OpenAI, Claude, Gemini) để tạo embedding và tóm tắt nội dung.&lt;/font&gt;&lt;/li&gt;&lt;li&gt;&lt;font size=&quot;3&quot;&gt;&lt;strong&gt;Lưu embedding vào Vector Database&lt;/strong&gt;: Các vector embedding được lưu vào Vector Database nhằm phục vụ tìm kiếm theo ngữ nghĩa.&lt;/font&gt;&lt;/li&gt;&lt;li&gt;&lt;font size=&quot;3&quot;&gt;&lt;strong&gt;Chuẩn hóa tài liệu theo Agile&lt;/strong&gt;: Kết quả phân tích được gửi đến Document Standardization Service để chuyển đổi thành tài liệu theo chuẩn Agile.&lt;/font&gt;&lt;/li&gt;&lt;li&gt;&lt;font size=&quot;3&quot;&gt;&lt;strong&gt;Xử lý yêu cầu Q&amp;amp;A&lt;/strong&gt;: Người dùng gửi yêu cầu Q&amp;amp;A, quá trình được thực hiện tương tự bằng cách chuyển yêu cầu qua API Gateway đến AI Analysis Service.&lt;/font&gt;&lt;/li&gt;&lt;li&gt;&lt;font size=&quot;3&quot;&gt;&lt;strong&gt;Truy vấn và trả kết quả Q&amp;amp;A&lt;/strong&gt;: AI Analysis Service truy vấn Vector Database để tìm nội dung liên quan và trả kết quả Q&amp;amp;A về cho người dùng thông qua API Gateway.&lt;/font&gt;&lt;/li&gt;&lt;/ol&gt;" style="text;html=1;align=left;verticalAlign=middle;resizable=0;points=[];autosize=1;strokeColor=none;fillColor=none;" parent="1" vertex="1">
          <mxGeometry x="-350" y="1460" width="1460" height="290" as="geometry" />
        </mxCell>
        <UserObject label="" plantUmlData="{&#xa;  &quot;data&quot;: &quot;@startuml\nactor User\nparticipant \&quot;API Gateway\&quot; as GW\nparticipant \&quot;File Service\&quot; as FS\nparticipant \&quot;AI Processor\&quot; as AI\nparticipant \&quot;Vector DB\&quot; as VDB\nparticipant \&quot;Doc Generator\&quot; as DG\n\nUser -&gt; GW: Upload BRD/API Doc/DB Schema\nGW -&gt; FS: Store raw files\nFS -&gt; AI: Trigger processing\nAI -&gt; AI: Extract text/OCR\nAI -&gt; AI: Semantic chunking\nAI -&gt; VDB: Store embeddings\nAI -&gt; DG: Generate standardized docs\nDG -&gt; User: Return Agile templates\nUser -&gt; GW: Query technical specs\nGW -&gt; VDB: Semantic search\nVDB -&gt; AI: Context retrieval\nAI -&gt; User: Answer with sources\n@enduml&quot;,&#xa;  &quot;format&quot;: &quot;svg&quot;&#xa;}" id="wLRpZgvh6ZqnwfxEwsv6-4">
          <mxCell style="shape=image;noLabel=1;verticalAlign=top;aspect=fixed;imageAspect=0;image=data:image/svg+xml,PD94bWwgdmVyc2lvbj0iMS4wIiBlbmNvZGluZz0idXMtYXNjaWkiIHN0YW5kYWxvbmU9Im5vIj8+PHN2ZyB4bWxucz0iaHR0cDovL3d3dy53My5vcmcvMjAwMC9zdmciIHhtbG5zOnhsaW5rPSJodHRwOi8vd3d3LnczLm9yZy8xOTk5L3hsaW5rIiBjb250ZW50U3R5bGVUeXBlPSJ0ZXh0L2NzcyIgaGVpZ2h0PSI1NDBweCIgcHJlc2VydmVBc3BlY3RSYXRpbz0ibm9uZSIgc3R5bGU9IndpZHRoOjgwN3B4O2hlaWdodDo1NDBweDtiYWNrZ3JvdW5kOiNGRkZGRkY7IiB2ZXJzaW9uPSIxLjEiIHZpZXdCb3g9IjAgMCA4MDcgNTQwIiB3aWR0aD0iODA3cHgiIHpvb21BbmRQYW49Im1hZ25pZnkiPjxkZWZzLz48Zz48bGluZSBzdHlsZT0ic3Ryb2tlOiMxODE4MTg7c3Ryb2tlLXdpZHRoOjAuNTtzdHJva2UtZGFzaGFycmF5OjUuMCw1LjA7IiB4MT0iMjIiIHgyPSIyMiIgeTE9Ijc5Ljk4NDQiIHkyPSI0NjAuOTUzMSIvPjxsaW5lIHN0eWxlPSJzdHJva2U6IzE4MTgxODtzdHJva2Utd2lkdGg6MC41O3N0cm9rZS1kYXNoYXJyYXk6NS4wLDUuMDsiIHgxPSIyMzkiIHgyPSIyMzkiIHkxPSI3OS45ODQ0IiB5Mj0iNDYwLjk1MzEiLz48bGluZSBzdHlsZT0ic3Ryb2tlOiMxODE4MTg7c3Ryb2tlLXdpZHRoOjAuNTtzdHJva2UtZGFzaGFycmF5OjUuMCw1LjA7IiB4MT0iMzYzIiB4Mj0iMzYzIiB5MT0iNzkuOTg0NCIgeTI9IjQ2MC45NTMxIi8+PGxpbmUgc3R5bGU9InN0cm9rZTojMTgxODE4O3N0cm9rZS13aWR0aDowLjU7c3Ryb2tlLWRhc2hhcnJheTo1LjAsNS4wOyIgeDE9IjUxMCIgeDI9IjUxMCIgeTE9Ijc5Ljk4NDQiIHkyPSI0NjAuOTUzMSIvPjxsaW5lIHN0eWxlPSJzdHJva2U6IzE4MTgxODtzdHJva2Utd2lkdGg6MC41O3N0cm9rZS1kYXNoYXJyYXk6NS4wLDUuMDsiIHgxPSI2NDcuNSIgeDI9IjY0Ny41IiB5MT0iNzkuOTg0NCIgeTI9IjQ2MC45NTMxIi8+PGxpbmUgc3R5bGU9InN0cm9rZTojMTgxODE4O3N0cm9rZS13aWR0aDowLjU7c3Ryb2tlLWRhc2hhcnJheTo1LjAsNS4wOyIgeDE9Ijc0OC41IiB4Mj0iNzQ4LjUiIHkxPSI3OS45ODQ0IiB5Mj0iNDYwLjk1MzEiLz48dGV4dCBmaWxsPSIjMDAwMDAwIiBmb250LWZhbWlseT0ic2Fucy1zZXJpZiIgZm9udC1zaXplPSIxNCIgbGVuZ3RoQWRqdXN0PSJzcGFjaW5nIiB0ZXh0TGVuZ3RoPSIyOCIgeD0iNSIgeT0iNzguMjM0NCI+VXNlcjwvdGV4dD48ZWxsaXBzZSBjeD0iMjIiIGN5PSIxMy41IiBmaWxsPSIjRTJFMkYwIiByeD0iOCIgcnk9IjgiIHN0eWxlPSJzdHJva2U6IzE4MTgxODtzdHJva2Utd2lkdGg6MC41OyIvPjxwYXRoIGQ9Ik0yMiwyMS41IEwyMiw0OC41IE05LDI5LjUgTDM1LDI5LjUgTTIyLDQ4LjUgTDksNjMuNSBNMjIsNDguNSBMMzUsNjMuNSAiIGZpbGw9Im5vbmUiIHN0eWxlPSJzdHJva2U6IzE4MTgxODtzdHJva2Utd2lkdGg6MC41OyIvPjx0ZXh0IGZpbGw9IiMwMDAwMDAiIGZvbnQtZmFtaWx5PSJzYW5zLXNlcmlmIiBmb250LXNpemU9IjE0IiBsZW5ndGhBZGp1c3Q9InNwYWNpbmciIHRleHRMZW5ndGg9IjI4IiB4PSI1IiB5PSI0NzMuMTg3NSI+VXNlcjwvdGV4dD48ZWxsaXBzZSBjeD0iMjIiIGN5PSI0ODMuNDM3NSIgZmlsbD0iI0UyRTJGMCIgcng9IjgiIHJ5PSI4IiBzdHlsZT0ic3Ryb2tlOiMxODE4MTg7c3Ryb2tlLXdpZHRoOjAuNTsiLz48cGF0aCBkPSJNMjIsNDkxLjQzNzUgTDIyLDUxOC40Mzc1IE05LDQ5OS40Mzc1IEwzNSw0OTkuNDM3NSBNMjIsNTE4LjQzNzUgTDksNTMzLjQzNzUgTTIyLDUxOC40Mzc1IEwzNSw1MzMuNDM3NSAiIGZpbGw9Im5vbmUiIHN0eWxlPSJzdHJva2U6IzE4MTgxODtzdHJva2Utd2lkdGg6MC41OyIvPjxyZWN0IGZpbGw9IiNFMkUyRjAiIGhlaWdodD0iMjguOTg0NCIgcng9IjIuNSIgcnk9IjIuNSIgc3R5bGU9InN0cm9rZTojMTgxODE4O3N0cm9rZS13aWR0aDowLjU7IiB3aWR0aD0iOTIiIHg9IjE5MyIgeT0iNTAiLz48dGV4dCBmaWxsPSIjMDAwMDAwIiBmb250LWZhbWlseT0ic2Fucy1zZXJpZiIgZm9udC1zaXplPSIxNCIgbGVuZ3RoQWRqdXN0PSJzcGFjaW5nIiB0ZXh0TGVuZ3RoPSI3OCIgeD0iMjAwIiB5PSI3MC4yMzQ0Ij5BUEkgR2F0ZXdheTwvdGV4dD48cmVjdCBmaWxsPSIjRTJFMkYwIiBoZWlnaHQ9IjI4Ljk4NDQiIHJ4PSIyLjUiIHJ5PSIyLjUiIHN0eWxlPSJzdHJva2U6IzE4MTgxODtzdHJva2Utd2lkdGg6MC41OyIgd2lkdGg9IjkyIiB4PSIxOTMiIHk9IjQ1OS45NTMxIi8+PHRleHQgZmlsbD0iIzAwMDAwMCIgZm9udC1mYW1pbHk9InNhbnMtc2VyaWYiIGZvbnQtc2l6ZT0iMTQiIGxlbmd0aEFkanVzdD0ic3BhY2luZyIgdGV4dExlbmd0aD0iNzgiIHg9IjIwMCIgeT0iNDgwLjE4NzUiPkFQSSBHYXRld2F5PC90ZXh0PjxyZWN0IGZpbGw9IiNFMkUyRjAiIGhlaWdodD0iMjguOTg0NCIgcng9IjIuNSIgcnk9IjIuNSIgc3R5bGU9InN0cm9rZTojMTgxODE4O3N0cm9rZS13aWR0aDowLjU7IiB3aWR0aD0iOTgiIHg9IjMxNCIgeT0iNTAiLz48dGV4dCBmaWxsPSIjMDAwMDAwIiBmb250LWZhbWlseT0ic2Fucy1zZXJpZiIgZm9udC1zaXplPSIxNCIgbGVuZ3RoQWRqdXN0PSJzcGFjaW5nIiB0ZXh0TGVuZ3RoPSI4NCIgeD0iMzIxIiB5PSI3MC4yMzQ0Ij5GaWxlIFNlcnZpY2U8L3RleHQ+PHJlY3QgZmlsbD0iI0UyRTJGMCIgaGVpZ2h0PSIyOC45ODQ0IiByeD0iMi41IiByeT0iMi41IiBzdHlsZT0ic3Ryb2tlOiMxODE4MTg7c3Ryb2tlLXdpZHRoOjAuNTsiIHdpZHRoPSI5OCIgeD0iMzE0IiB5PSI0NTkuOTUzMSIvPjx0ZXh0IGZpbGw9IiMwMDAwMDAiIGZvbnQtZmFtaWx5PSJzYW5zLXNlcmlmIiBmb250LXNpemU9IjE0IiBsZW5ndGhBZGp1c3Q9InNwYWNpbmciIHRleHRMZW5ndGg9Ijg0IiB4PSIzMjEiIHk9IjQ4MC4xODc1Ij5GaWxlIFNlcnZpY2U8L3RleHQ+PHJlY3QgZmlsbD0iI0UyRTJGMCIgaGVpZ2h0PSIyOC45ODQ0IiByeD0iMi41IiByeT0iMi41IiBzdHlsZT0ic3Ryb2tlOiMxODE4MTg7c3Ryb2tlLXdpZHRoOjAuNTsiIHdpZHRoPSI5OCIgeD0iNDYxIiB5PSI1MCIvPjx0ZXh0IGZpbGw9IiMwMDAwMDAiIGZvbnQtZmFtaWx5PSJzYW5zLXNlcmlmIiBmb250LXNpemU9IjE0IiBsZW5ndGhBZGp1c3Q9InNwYWNpbmciIHRleHRMZW5ndGg9Ijg0IiB4PSI0NjgiIHk9IjcwLjIzNDQiPkFJIFByb2Nlc3NvcjwvdGV4dD48cmVjdCBmaWxsPSIjRTJFMkYwIiBoZWlnaHQ9IjI4Ljk4NDQiIHJ4PSIyLjUiIHJ5PSIyLjUiIHN0eWxlPSJzdHJva2U6IzE4MTgxODtzdHJva2Utd2lkdGg6MC41OyIgd2lkdGg9Ijk4IiB4PSI0NjEiIHk9IjQ1OS45NTMxIi8+PHRleHQgZmlsbD0iIzAwMDAwMCIgZm9udC1mYW1pbHk9InNhbnMtc2VyaWYiIGZvbnQtc2l6ZT0iMTQiIGxlbmd0aEFkanVzdD0ic3BhY2luZyIgdGV4dExlbmd0aD0iODQiIHg9IjQ2OCIgeT0iNDgwLjE4NzUiPkFJIFByb2Nlc3NvcjwvdGV4dD48cmVjdCBmaWxsPSIjRTJFMkYwIiBoZWlnaHQ9IjI4Ljk4NDQiIHJ4PSIyLjUiIHJ5PSIyLjUiIHN0eWxlPSJzdHJva2U6IzE4MTgxODtzdHJva2Utd2lkdGg6MC41OyIgd2lkdGg9Ijc3IiB4PSI2MDkuNSIgeT0iNTAiLz48dGV4dCBmaWxsPSIjMDAwMDAwIiBmb250LWZhbWlseT0ic2Fucy1zZXJpZiIgZm9udC1zaXplPSIxNCIgbGVuZ3RoQWRqdXN0PSJzcGFjaW5nIiB0ZXh0TGVuZ3RoPSI2MyIgeD0iNjE2LjUiIHk9IjcwLjIzNDQiPlZlY3RvciBEQjwvdGV4dD48cmVjdCBmaWxsPSIjRTJFMkYwIiBoZWlnaHQ9IjI4Ljk4NDQiIHJ4PSIyLjUiIHJ5PSIyLjUiIHN0eWxlPSJzdHJva2U6IzE4MTgxODtzdHJva2Utd2lkdGg6MC41OyIgd2lkdGg9Ijc3IiB4PSI2MDkuNSIgeT0iNDU5Ljk1MzEiLz48dGV4dCBmaWxsPSIjMDAwMDAwIiBmb250LWZhbWlseT0ic2Fucy1zZXJpZiIgZm9udC1zaXplPSIxNCIgbGVuZ3RoQWRqdXN0PSJzcGFjaW5nIiB0ZXh0TGVuZ3RoPSI2MyIgeD0iNjE2LjUiIHk9IjQ4MC4xODc1Ij5WZWN0b3IgREI8L3RleHQ+PHJlY3QgZmlsbD0iI0UyRTJGMCIgaGVpZ2h0PSIyOC45ODQ0IiByeD0iMi41IiByeT0iMi41IiBzdHlsZT0ic3Ryb2tlOiMxODE4MTg7c3Ryb2tlLXdpZHRoOjAuNTsiIHdpZHRoPSIxMDUiIHg9IjY5Ni41IiB5PSI1MCIvPjx0ZXh0IGZpbGw9IiMwMDAwMDAiIGZvbnQtZmFtaWx5PSJzYW5zLXNlcmlmIiBmb250LXNpemU9IjE0IiBsZW5ndGhBZGp1c3Q9InNwYWNpbmciIHRleHRMZW5ndGg9IjkxIiB4PSI3MDMuNSIgeT0iNzAuMjM0NCI+RG9jIEdlbmVyYXRvcjwvdGV4dD48cmVjdCBmaWxsPSIjRTJFMkYwIiBoZWlnaHQ9IjI4Ljk4NDQiIHJ4PSIyLjUiIHJ5PSIyLjUiIHN0eWxlPSJzdHJva2U6IzE4MTgxODtzdHJva2Utd2lkdGg6MC41OyIgd2lkdGg9IjEwNSIgeD0iNjk2LjUiIHk9IjQ1OS45NTMxIi8+PHRleHQgZmlsbD0iIzAwMDAwMCIgZm9udC1mYW1pbHk9InNhbnMtc2VyaWYiIGZvbnQtc2l6ZT0iMTQiIGxlbmd0aEFkanVzdD0ic3BhY2luZyIgdGV4dExlbmd0aD0iOTEiIHg9IjcwMy41IiB5PSI0ODAuMTg3NSI+RG9jIEdlbmVyYXRvcjwvdGV4dD48cG9seWdvbiBmaWxsPSIjMTgxODE4IiBwb2ludHM9IjIyNywxMDUuODk4NCwyMzcsMTA5Ljg5ODQsMjI3LDExMy44OTg0LDIzMSwxMDkuODk4NCIgc3R5bGU9InN0cm9rZTojMTgxODE4O3N0cm9rZS13aWR0aDoxLjA7Ii8+PGxpbmUgc3R5bGU9InN0cm9rZTojMTgxODE4O3N0cm9rZS13aWR0aDoxLjA7IiB4MT0iMjIiIHgyPSIyMzMiIHkxPSIxMDkuODk4NCIgeTI9IjEwOS44OTg0Ii8+PHRleHQgZmlsbD0iIzAwMDAwMCIgZm9udC1mYW1pbHk9InNhbnMtc2VyaWYiIGZvbnQtc2l6ZT0iMTMiIGxlbmd0aEFkanVzdD0ic3BhY2luZyIgdGV4dExlbmd0aD0iMTkzIiB4PSIyOSIgeT0iMTA2LjI3MzQiPlVwbG9hZCBCUkQvQVBJIERvYy9EQiBTY2hlbWE8L3RleHQ+PHBvbHlnb24gZmlsbD0iIzE4MTgxOCIgcG9pbnRzPSIzNTEsMTMzLjgxMjUsMzYxLDEzNy44MTI1LDM1MSwxNDEuODEyNSwzNTUsMTM3LjgxMjUiIHN0eWxlPSJzdHJva2U6IzE4MTgxODtzdHJva2Utd2lkdGg6MS4wOyIvPjxsaW5lIHN0eWxlPSJzdHJva2U6IzE4MTgxODtzdHJva2Utd2lkdGg6MS4wOyIgeDE9IjIzOSIgeDI9IjM1NyIgeTE9IjEzNy44MTI1IiB5Mj0iMTM3LjgxMjUiLz48dGV4dCBmaWxsPSIjMDAwMDAwIiBmb250LWZhbWlseT0ic2Fucy1zZXJpZiIgZm9udC1zaXplPSIxMyIgbGVuZ3RoQWRqdXN0PSJzcGFjaW5nIiB0ZXh0TGVuZ3RoPSIxMDAiIHg9IjI0NiIgeT0iMTM0LjE4NzUiPlN0b3JlIHJhdyBmaWxlczwvdGV4dD48cG9seWdvbiBmaWxsPSIjMTgxODE4IiBwb2ludHM9IjQ5OCwxNjEuNzI2Niw1MDgsMTY1LjcyNjYsNDk4LDE2OS43MjY2LDUwMiwxNjUuNzI2NiIgc3R5bGU9InN0cm9rZTojMTgxODE4O3N0cm9rZS13aWR0aDoxLjA7Ii8+PGxpbmUgc3R5bGU9InN0cm9rZTojMTgxODE4O3N0cm9rZS13aWR0aDoxLjA7IiB4MT0iMzYzIiB4Mj0iNTA0IiB5MT0iMTY1LjcyNjYiIHkyPSIxNjUuNzI2NiIvPjx0ZXh0IGZpbGw9IiMwMDAwMDAiIGZvbnQtZmFtaWx5PSJzYW5zLXNlcmlmIiBmb250LXNpemU9IjEzIiBsZW5ndGhBZGp1c3Q9InNwYWNpbmciIHRleHRMZW5ndGg9IjEyMyIgeD0iMzcwIiB5PSIxNjIuMTAxNiI+VHJpZ2dlciBwcm9jZXNzaW5nPC90ZXh0PjxsaW5lIHN0eWxlPSJzdHJva2U6IzE4MTgxODtzdHJva2Utd2lkdGg6MS4wOyIgeDE9IjUxMCIgeDI9IjU1MiIgeTE9IjE5My42NDA2IiB5Mj0iMTkzLjY0MDYiLz48bGluZSBzdHlsZT0ic3Ryb2tlOiMxODE4MTg7c3Ryb2tlLXdpZHRoOjEuMDsiIHgxPSI1NTIiIHgyPSI1NTIiIHkxPSIxOTMuNjQwNiIgeTI9IjIwNi42NDA2Ii8+PGxpbmUgc3R5bGU9InN0cm9rZTojMTgxODE4O3N0cm9rZS13aWR0aDoxLjA7IiB4MT0iNTExIiB4Mj0iNTUyIiB5MT0iMjA2LjY0MDYiIHkyPSIyMDYuNjQwNiIvPjxwb2x5Z29uIGZpbGw9IiMxODE4MTgiIHBvaW50cz0iNTIxLDIwMi42NDA2LDUxMSwyMDYuNjQwNiw1MjEsMjEwLjY0MDYsNTE3LDIwNi42NDA2IiBzdHlsZT0ic3Ryb2tlOiMxODE4MTg7c3Ryb2tlLXdpZHRoOjEuMDsiLz48dGV4dCBmaWxsPSIjMDAwMDAwIiBmb250LWZhbWlseT0ic2Fucy1zZXJpZiIgZm9udC1zaXplPSIxMyIgbGVuZ3RoQWRqdXN0PSJzcGFjaW5nIiB0ZXh0TGVuZ3RoPSIxMDgiIHg9IjUxNyIgeT0iMTkwLjAxNTYiPkV4dHJhY3QgdGV4dC9PQ1I8L3RleHQ+PGxpbmUgc3R5bGU9InN0cm9rZTojMTgxODE4O3N0cm9rZS13aWR0aDoxLjA7IiB4MT0iNTEwIiB4Mj0iNTUyIiB5MT0iMjM0LjU1NDciIHkyPSIyMzQuNTU0NyIvPjxsaW5lIHN0eWxlPSJzdHJva2U6IzE4MTgxODtzdHJva2Utd2lkdGg6MS4wOyIgeDE9IjU1MiIgeDI9IjU1MiIgeTE9IjIzNC41NTQ3IiB5Mj0iMjQ3LjU1NDciLz48bGluZSBzdHlsZT0ic3Ryb2tlOiMxODE4MTg7c3Ryb2tlLXdpZHRoOjEuMDsiIHgxPSI1MTEiIHgyPSI1NTIiIHkxPSIyNDcuNTU0NyIgeTI9IjI0Ny41NTQ3Ii8+PHBvbHlnb24gZmlsbD0iIzE4MTgxOCIgcG9pbnRzPSI1MjEsMjQzLjU1NDcsNTExLDI0Ny41NTQ3LDUyMSwyNTEuNTU0Nyw1MTcsMjQ3LjU1NDciIHN0eWxlPSJzdHJva2U6IzE4MTgxODtzdHJva2Utd2lkdGg6MS4wOyIvPjx0ZXh0IGZpbGw9IiMwMDAwMDAiIGZvbnQtZmFtaWx5PSJzYW5zLXNlcmlmIiBmb250LXNpemU9IjEzIiBsZW5ndGhBZGp1c3Q9InNwYWNpbmciIHRleHRMZW5ndGg9IjExNSIgeD0iNTE3IiB5PSIyMzAuOTI5NyI+U2VtYW50aWMgY2h1bmtpbmc8L3RleHQ+PHBvbHlnb24gZmlsbD0iIzE4MTgxOCIgcG9pbnRzPSI2MzYsMjcxLjQ2ODgsNjQ2LDI3NS40Njg4LDYzNiwyNzkuNDY4OCw2NDAsMjc1LjQ2ODgiIHN0eWxlPSJzdHJva2U6IzE4MTgxODtzdHJva2Utd2lkdGg6MS4wOyIvPjxsaW5lIHN0eWxlPSJzdHJva2U6IzE4MTgxODtzdHJva2Utd2lkdGg6MS4wOyIgeDE9IjUxMCIgeDI9IjY0MiIgeTE9IjI3NS40Njg4IiB5Mj0iMjc1LjQ2ODgiLz48dGV4dCBmaWxsPSIjMDAwMDAwIiBmb250LWZhbWlseT0ic2Fucy1zZXJpZiIgZm9udC1zaXplPSIxMyIgbGVuZ3RoQWRqdXN0PSJzcGFjaW5nIiB0ZXh0TGVuZ3RoPSIxMDkiIHg9IjUxNyIgeT0iMjcxLjg0MzgiPlN0b3JlIGVtYmVkZGluZ3M8L3RleHQ+PHBvbHlnb24gZmlsbD0iIzE4MTgxOCIgcG9pbnRzPSI3MzcsMjk5LjM4MjgsNzQ3LDMwMy4zODI4LDczNywzMDcuMzgyOCw3NDEsMzAzLjM4MjgiIHN0eWxlPSJzdHJva2U6IzE4MTgxODtzdHJva2Utd2lkdGg6MS4wOyIvPjxsaW5lIHN0eWxlPSJzdHJva2U6IzE4MTgxODtzdHJva2Utd2lkdGg6MS4wOyIgeDE9IjUxMCIgeDI9Ijc0MyIgeTE9IjMwMy4zODI4IiB5Mj0iMzAzLjM4MjgiLz48dGV4dCBmaWxsPSIjMDAwMDAwIiBmb250LWZhbWlseT0ic2Fucy1zZXJpZiIgZm9udC1zaXplPSIxMyIgbGVuZ3RoQWRqdXN0PSJzcGFjaW5nIiB0ZXh0TGVuZ3RoPSIxNzkiIHg9IjUxNyIgeT0iMjk5Ljc1NzgiPkdlbmVyYXRlIHN0YW5kYXJkaXplZCBkb2NzPC90ZXh0Pjxwb2x5Z29uIGZpbGw9IiMxODE4MTgiIHBvaW50cz0iMzMsMzI3LjI5NjksMjMsMzMxLjI5NjksMzMsMzM1LjI5NjksMjksMzMxLjI5NjkiIHN0eWxlPSJzdHJva2U6IzE4MTgxODtzdHJva2Utd2lkdGg6MS4wOyIvPjxsaW5lIHN0eWxlPSJzdHJva2U6IzE4MTgxODtzdHJva2Utd2lkdGg6MS4wOyIgeDE9IjI3IiB4Mj0iNzQ4IiB5MT0iMzMxLjI5NjkiIHkyPSIzMzEuMjk2OSIvPjx0ZXh0IGZpbGw9IiMwMDAwMDAiIGZvbnQtZmFtaWx5PSJzYW5zLXNlcmlmIiBmb250LXNpemU9IjEzIiBsZW5ndGhBZGp1c3Q9InNwYWNpbmciIHRleHRMZW5ndGg9IjE0NyIgeD0iMzkiIHk9IjMyNy42NzE5Ij5SZXR1cm4gQWdpbGUgdGVtcGxhdGVzPC90ZXh0Pjxwb2x5Z29uIGZpbGw9IiMxODE4MTgiIHBvaW50cz0iMjI3LDM1NS4yMTA5LDIzNywzNTkuMjEwOSwyMjcsMzYzLjIxMDksMjMxLDM1OS4yMTA5IiBzdHlsZT0ic3Ryb2tlOiMxODE4MTg7c3Ryb2tlLXdpZHRoOjEuMDsiLz48bGluZSBzdHlsZT0ic3Ryb2tlOiMxODE4MTg7c3Ryb2tlLXdpZHRoOjEuMDsiIHgxPSIyMiIgeDI9IjIzMyIgeTE9IjM1OS4yMTA5IiB5Mj0iMzU5LjIxMDkiLz48dGV4dCBmaWxsPSIjMDAwMDAwIiBmb250LWZhbWlseT0ic2Fucy1zZXJpZiIgZm9udC1zaXplPSIxMyIgbGVuZ3RoQWRqdXN0PSJzcGFjaW5nIiB0ZXh0TGVuZ3RoPSIxNDQiIHg9IjI5IiB5PSIzNTUuNTg1OSI+UXVlcnkgdGVjaG5pY2FsIHNwZWNzPC90ZXh0Pjxwb2x5Z29uIGZpbGw9IiMxODE4MTgiIHBvaW50cz0iNjM2LDM4My4xMjUsNjQ2LDM4Ny4xMjUsNjM2LDM5MS4xMjUsNjQwLDM4Ny4xMjUiIHN0eWxlPSJzdHJva2U6IzE4MTgxODtzdHJva2Utd2lkdGg6MS4wOyIvPjxsaW5lIHN0eWxlPSJzdHJva2U6IzE4MTgxODtzdHJva2Utd2lkdGg6MS4wOyIgeDE9IjIzOSIgeDI9IjY0MiIgeTE9IjM4Ny4xMjUiIHkyPSIzODcuMTI1Ii8+PHRleHQgZmlsbD0iIzAwMDAwMCIgZm9udC1mYW1pbHk9InNhbnMtc2VyaWYiIGZvbnQtc2l6ZT0iMTMiIGxlbmd0aEFkanVzdD0ic3BhY2luZyIgdGV4dExlbmd0aD0iMTAyIiB4PSIyNDYiIHk9IjM4My41Ij5TZW1hbnRpYyBzZWFyY2g8L3RleHQ+PHBvbHlnb24gZmlsbD0iIzE4MTgxOCIgcG9pbnRzPSI1MjEsNDExLjAzOTEsNTExLDQxNS4wMzkxLDUyMSw0MTkuMDM5MSw1MTcsNDE1LjAzOTEiIHN0eWxlPSJzdHJva2U6IzE4MTgxODtzdHJva2Utd2lkdGg6MS4wOyIvPjxsaW5lIHN0eWxlPSJzdHJva2U6IzE4MTgxODtzdHJva2Utd2lkdGg6MS4wOyIgeDE9IjUxNSIgeDI9IjY0NyIgeTE9IjQxNS4wMzkxIiB5Mj0iNDE1LjAzOTEiLz48dGV4dCBmaWxsPSIjMDAwMDAwIiBmb250LWZhbWlseT0ic2Fucy1zZXJpZiIgZm9udC1zaXplPSIxMyIgbGVuZ3RoQWRqdXN0PSJzcGFjaW5nIiB0ZXh0TGVuZ3RoPSIxMTQiIHg9IjUyNyIgeT0iNDExLjQxNDEiPkNvbnRleHQgcmV0cmlldmFsPC90ZXh0Pjxwb2x5Z29uIGZpbGw9IiMxODE4MTgiIHBvaW50cz0iMzMsNDM4Ljk1MzEsMjMsNDQyLjk1MzEsMzMsNDQ2Ljk1MzEsMjksNDQyLjk1MzEiIHN0eWxlPSJzdHJva2U6IzE4MTgxODtzdHJva2Utd2lkdGg6MS4wOyIvPjxsaW5lIHN0eWxlPSJzdHJva2U6IzE4MTgxODtzdHJva2Utd2lkdGg6MS4wOyIgeDE9IjI3IiB4Mj0iNTA5IiB5MT0iNDQyLjk1MzEiIHkyPSI0NDIuOTUzMSIvPjx0ZXh0IGZpbGw9IiMwMDAwMDAiIGZvbnQtZmFtaWx5PSJzYW5zLXNlcmlmIiBmb250LXNpemU9IjEzIiBsZW5ndGhBZGp1c3Q9InNwYWNpbmciIHRleHRMZW5ndGg9IjEyOSIgeD0iMzkiIHk9IjQzOS4zMjgxIj5BbnN3ZXIgd2l0aCBzb3VyY2VzPC90ZXh0PjwhLS1TUkM9W05QM0RSZUNtNDhKbFZlZkx4Yk5rNzJmMU4xMmRmZzU5cGJrcDNMUTlaVE9jOTd0d3Nsb2VmTFZGcEN1dEhrS2ptejRIWW14UFF3S3hEMXVzd1J3NDBacUQtRFcwRVlaRVFwdE5CSzU1VkRFQUhhRFVfSmpHbWZ3ajhrU2ladVFxTjFqRUQ1UkJSNUhGQ2JsQnFZZWVvMTJaZG1fOEdlVzgyYV9GMElVMU96VFFoMjR4bzZzYTNPNmpwQTFJM0xySDVFVGVvd2k0Z2YwZE8xcFdDcDB4YUxUSElTaTR0YmJWQms1VUR0NWdTbjYxVVhQVnhmdkhVVjFxenpsTnRVNkZMOEsyNHFYMURSdHYtZXM1M0tpVE5KLWVoZUZhUGFxTW9KQTdtN2FxRE5Bamx3YzZzWWVkUDE1RFNMcTIxXzh6NnFXbHlPaXpOUmlzUERuZy1iakZfMFlRUWVuTXM4QmhBMW9QRGF5SzJ3OFpQRE04eUJaR3h3bzljdTM5aXdPUmpaRlhMOXVRRHVJVUdWaTZkRXF2VkNtRl0tLT48L2c+PC9zdmc+;" parent="1" vertex="1">
            <mxGeometry x="-370" y="-670" width="1010" height="675.83" as="geometry" />
          </mxCell>
        </UserObject>
        <UserObject label="" plantUmlData="{&quot;data&quot;:&quot;@startuml\nactor Client\nparticipant API_Gateway\nparticipant Orchestrator\nparticipant Kafka\nparticipant Worker\nparticipant Account_Manager\nparticipant LLM_APIs\nparticipant Aggregator\nparticipant Validator\n\nClient -&gt; API_Gateway: Submit Project (JSON)\nAPI_Gateway -&gt; Orchestrator: Forward Request\nOrchestrator -&gt; Orchestrator: Task Decomposition\nOrchestrator -&gt; Kafka: Push Subtasks\nKafka -&gt; Worker: Consume Tasks\nWorker -&gt; Account_Manager: Get API Key\nAccount_Manager -&gt; Worker: Return Available Key\nWorker -&gt; LLM_APIs: Call API (Round Robin)\nLLM_APIs -&gt; Worker: Return Result\nWorker -&gt; Aggregator: Send Result\nAggregator -&gt; Validator: Validate Results\nValidator -&gt; Orchestrator: Final Evaluation\nOrchestrator -&gt; Client: Return Final Result\n@enduml\n&quot;,&quot;format&quot;:&quot;svg&quot;}" id="P0KIgLAv_do0OGR5v37D-1">
          <mxCell style="shape=image;noLabel=1;verticalAlign=top;aspect=fixed;imageAspect=0;image=data:image/svg+xml,PD94bWwgdmVyc2lvbj0iMS4wIiBlbmNvZGluZz0idXMtYXNjaWkiIHN0YW5kYWxvbmU9Im5vIj8+PHN2ZyB4bWxucz0iaHR0cDovL3d3dy53My5vcmcvMjAwMC9zdmciIHhtbG5zOnhsaW5rPSJodHRwOi8vd3d3LnczLm9yZy8xOTk5L3hsaW5rIiBjb250ZW50U3R5bGVUeXBlPSJ0ZXh0L2NzcyIgaGVpZ2h0PSI1NTVweCIgcHJlc2VydmVBc3BlY3RSYXRpbz0ibm9uZSIgc3R5bGU9IndpZHRoOjEwOTZweDtoZWlnaHQ6NTU1cHg7YmFja2dyb3VuZDojRkZGRkZGOyIgdmVyc2lvbj0iMS4xIiB2aWV3Qm94PSIwIDAgMTA5NiA1NTUiIHdpZHRoPSIxMDk2cHgiIHpvb21BbmRQYW49Im1hZ25pZnkiPjxkZWZzLz48Zz48bGluZSBzdHlsZT0ic3Ryb2tlOiMxODE4MTg7c3Ryb2tlLXdpZHRoOjAuNTtzdHJva2UtZGFzaGFycmF5OjUuMCw1LjA7IiB4MT0iMjkiIHgyPSIyOSIgeTE9Ijc5Ljk4NDQiIHkyPSI0NzUuODY3MiIvPjxsaW5lIHN0eWxlPSJzdHJva2U6IzE4MTgxODtzdHJva2Utd2lkdGg6MC41O3N0cm9rZS1kYXNoYXJyYXk6NS4wLDUuMDsiIHgxPSIxOTQiIHgyPSIxOTQiIHkxPSI3OS45ODQ0IiB5Mj0iNDc1Ljg2NzIiLz48bGluZSBzdHlsZT0ic3Ryb2tlOiMxODE4MTg7c3Ryb2tlLXdpZHRoOjAuNTtzdHJva2UtZGFzaGFycmF5OjUuMCw1LjA7IiB4MT0iMzIxIiB4Mj0iMzIxIiB5MT0iNzkuOTg0NCIgeTI9IjQ3NS44NjcyIi8+PGxpbmUgc3R5bGU9InN0cm9rZTojMTgxODE4O3N0cm9rZS13aWR0aDowLjU7c3Ryb2tlLWRhc2hhcnJheTo1LjAsNS4wOyIgeDE9IjQ1NS41IiB4Mj0iNDU1LjUiIHkxPSI3OS45ODQ0IiB5Mj0iNDc1Ljg2NzIiLz48bGluZSBzdHlsZT0ic3Ryb2tlOiMxODE4MTg7c3Ryb2tlLXdpZHRoOjAuNTtzdHJva2UtZGFzaGFycmF5OjUuMCw1LjA7IiB4MT0iNTY5IiB4Mj0iNTY5IiB5MT0iNzkuOTg0NCIgeTI9IjQ3NS44NjcyIi8+PGxpbmUgc3R5bGU9InN0cm9rZTojMTgxODE4O3N0cm9rZS13aWR0aDowLjU7c3Ryb2tlLWRhc2hhcnJheTo1LjAsNS4wOyIgeDE9IjcyOC41IiB4Mj0iNzI4LjUiIHkxPSI3OS45ODQ0IiB5Mj0iNDc1Ljg2NzIiLz48bGluZSBzdHlsZT0ic3Ryb2tlOiMxODE4MTg7c3Ryb2tlLXdpZHRoOjAuNTtzdHJva2UtZGFzaGFycmF5OjUuMCw1LjA7IiB4MT0iODMzLjUiIHgyPSI4MzMuNSIgeTE9Ijc5Ljk4NDQiIHkyPSI0NzUuODY3MiIvPjxsaW5lIHN0eWxlPSJzdHJva2U6IzE4MTgxODtzdHJva2Utd2lkdGg6MC41O3N0cm9rZS1kYXNoYXJyYXk6NS4wLDUuMDsiIHgxPSI5MjAuNSIgeDI9IjkyMC41IiB5MT0iNzkuOTg0NCIgeTI9IjQ3NS44NjcyIi8+PGxpbmUgc3R5bGU9InN0cm9rZTojMTgxODE4O3N0cm9rZS13aWR0aDowLjU7c3Ryb2tlLWRhc2hhcnJheTo1LjAsNS4wOyIgeDE9IjEwNTEiIHgyPSIxMDUxIiB5MT0iNzkuOTg0NCIgeTI9IjQ3NS44NjcyIi8+PHRleHQgZmlsbD0iIzAwMDAwMCIgZm9udC1mYW1pbHk9InNhbnMtc2VyaWYiIGZvbnQtc2l6ZT0iMTQiIGxlbmd0aEFkanVzdD0ic3BhY2luZyIgdGV4dExlbmd0aD0iNDIiIHg9IjUiIHk9Ijc4LjIzNDQiPkNsaWVudDwvdGV4dD48ZWxsaXBzZSBjeD0iMjkiIGN5PSIxMy41IiBmaWxsPSIjRTJFMkYwIiByeD0iOCIgcnk9IjgiIHN0eWxlPSJzdHJva2U6IzE4MTgxODtzdHJva2Utd2lkdGg6MC41OyIvPjxwYXRoIGQ9Ik0yOSwyMS41IEwyOSw0OC41IE0xNiwyOS41IEw0MiwyOS41IE0yOSw0OC41IEwxNiw2My41IE0yOSw0OC41IEw0Miw2My41ICIgZmlsbD0ibm9uZSIgc3R5bGU9InN0cm9rZTojMTgxODE4O3N0cm9rZS13aWR0aDowLjU7Ii8+PHRleHQgZmlsbD0iIzAwMDAwMCIgZm9udC1mYW1pbHk9InNhbnMtc2VyaWYiIGZvbnQtc2l6ZT0iMTQiIGxlbmd0aEFkanVzdD0ic3BhY2luZyIgdGV4dExlbmd0aD0iNDIiIHg9IjUiIHk9IjQ4OC4xMDE2Ij5DbGllbnQ8L3RleHQ+PGVsbGlwc2UgY3g9IjI5IiBjeT0iNDk4LjM1MTYiIGZpbGw9IiNFMkUyRjAiIHJ4PSI4IiByeT0iOCIgc3R5bGU9InN0cm9rZTojMTgxODE4O3N0cm9rZS13aWR0aDowLjU7Ii8+PHBhdGggZD0iTTI5LDUwNi4zNTE2IEwyOSw1MzMuMzUxNiBNMTYsNTE0LjM1MTYgTDQyLDUxNC4zNTE2IE0yOSw1MzMuMzUxNiBMMTYsNTQ4LjM1MTYgTTI5LDUzMy4zNTE2IEw0Miw1NDguMzUxNiAiIGZpbGw9Im5vbmUiIHN0eWxlPSJzdHJva2U6IzE4MTgxODtzdHJva2Utd2lkdGg6MC41OyIvPjxyZWN0IGZpbGw9IiNFMkUyRjAiIGhlaWdodD0iMjguOTg0NCIgcng9IjIuNSIgcnk9IjIuNSIgc3R5bGU9InN0cm9rZTojMTgxODE4O3N0cm9rZS13aWR0aDowLjU7IiB3aWR0aD0iOTIiIHg9IjE0OCIgeT0iNTAiLz48dGV4dCBmaWxsPSIjMDAwMDAwIiBmb250LWZhbWlseT0ic2Fucy1zZXJpZiIgZm9udC1zaXplPSIxNCIgbGVuZ3RoQWRqdXN0PSJzcGFjaW5nIiB0ZXh0TGVuZ3RoPSI3OCIgeD0iMTU1IiB5PSI3MC4yMzQ0Ij5BUElfR2F0ZXdheTwvdGV4dD48cmVjdCBmaWxsPSIjRTJFMkYwIiBoZWlnaHQ9IjI4Ljk4NDQiIHJ4PSIyLjUiIHJ5PSIyLjUiIHN0eWxlPSJzdHJva2U6IzE4MTgxODtzdHJva2Utd2lkdGg6MC41OyIgd2lkdGg9IjkyIiB4PSIxNDgiIHk9IjQ3NC44NjcyIi8+PHRleHQgZmlsbD0iIzAwMDAwMCIgZm9udC1mYW1pbHk9InNhbnMtc2VyaWYiIGZvbnQtc2l6ZT0iMTQiIGxlbmd0aEFkanVzdD0ic3BhY2luZyIgdGV4dExlbmd0aD0iNzgiIHg9IjE1NSIgeT0iNDk1LjEwMTYiPkFQSV9HYXRld2F5PC90ZXh0PjxyZWN0IGZpbGw9IiNFMkUyRjAiIGhlaWdodD0iMjguOTg0NCIgcng9IjIuNSIgcnk9IjIuNSIgc3R5bGU9InN0cm9rZTojMTgxODE4O3N0cm9rZS13aWR0aDowLjU7IiB3aWR0aD0iOTgiIHg9IjI3MiIgeT0iNTAiLz48dGV4dCBmaWxsPSIjMDAwMDAwIiBmb250LWZhbWlseT0ic2Fucy1zZXJpZiIgZm9udC1zaXplPSIxNCIgbGVuZ3RoQWRqdXN0PSJzcGFjaW5nIiB0ZXh0TGVuZ3RoPSI4NCIgeD0iMjc5IiB5PSI3MC4yMzQ0Ij5PcmNoZXN0cmF0b3I8L3RleHQ+PHJlY3QgZmlsbD0iI0UyRTJGMCIgaGVpZ2h0PSIyOC45ODQ0IiByeD0iMi41IiByeT0iMi41IiBzdHlsZT0ic3Ryb2tlOiMxODE4MTg7c3Ryb2tlLXdpZHRoOjAuNTsiIHdpZHRoPSI5OCIgeD0iMjcyIiB5PSI0NzQuODY3MiIvPjx0ZXh0IGZpbGw9IiMwMDAwMDAiIGZvbnQtZmFtaWx5PSJzYW5zLXNlcmlmIiBmb250LXNpemU9IjE0IiBsZW5ndGhBZGp1c3Q9InNwYWNpbmciIHRleHRMZW5ndGg9Ijg0IiB4PSIyNzkiIHk9IjQ5NS4xMDE2Ij5PcmNoZXN0cmF0b3I8L3RleHQ+PHJlY3QgZmlsbD0iI0UyRTJGMCIgaGVpZ2h0PSIyOC45ODQ0IiByeD0iMi41IiByeT0iMi41IiBzdHlsZT0ic3Ryb2tlOiMxODE4MTg7c3Ryb2tlLXdpZHRoOjAuNTsiIHdpZHRoPSI0OSIgeD0iNDMxLjUiIHk9IjUwIi8+PHRleHQgZmlsbD0iIzAwMDAwMCIgZm9udC1mYW1pbHk9InNhbnMtc2VyaWYiIGZvbnQtc2l6ZT0iMTQiIGxlbmd0aEFkanVzdD0ic3BhY2luZyIgdGV4dExlbmd0aD0iMzUiIHg9IjQzOC41IiB5PSI3MC4yMzQ0Ij5LYWZrYTwvdGV4dD48cmVjdCBmaWxsPSIjRTJFMkYwIiBoZWlnaHQ9IjI4Ljk4NDQiIHJ4PSIyLjUiIHJ5PSIyLjUiIHN0eWxlPSJzdHJva2U6IzE4MTgxODtzdHJva2Utd2lkdGg6MC41OyIgd2lkdGg9IjQ5IiB4PSI0MzEuNSIgeT0iNDc0Ljg2NzIiLz48dGV4dCBmaWxsPSIjMDAwMDAwIiBmb250LWZhbWlseT0ic2Fucy1zZXJpZiIgZm9udC1zaXplPSIxNCIgbGVuZ3RoQWRqdXN0PSJzcGFjaW5nIiB0ZXh0TGVuZ3RoPSIzNSIgeD0iNDM4LjUiIHk9IjQ5NS4xMDE2Ij5LYWZrYTwvdGV4dD48cmVjdCBmaWxsPSIjRTJFMkYwIiBoZWlnaHQ9IjI4Ljk4NDQiIHJ4PSIyLjUiIHJ5PSIyLjUiIHN0eWxlPSJzdHJva2U6IzE4MTgxODtzdHJva2Utd2lkdGg6MC41OyIgd2lkdGg9IjU2IiB4PSI1NDEiIHk9IjUwIi8+PHRleHQgZmlsbD0iIzAwMDAwMCIgZm9udC1mYW1pbHk9InNhbnMtc2VyaWYiIGZvbnQtc2l6ZT0iMTQiIGxlbmd0aEFkanVzdD0ic3BhY2luZyIgdGV4dExlbmd0aD0iNDIiIHg9IjU0OCIgeT0iNzAuMjM0NCI+V29ya2VyPC90ZXh0PjxyZWN0IGZpbGw9IiNFMkUyRjAiIGhlaWdodD0iMjguOTg0NCIgcng9IjIuNSIgcnk9IjIuNSIgc3R5bGU9InN0cm9rZTojMTgxODE4O3N0cm9rZS13aWR0aDowLjU7IiB3aWR0aD0iNTYiIHg9IjU0MSIgeT0iNDc0Ljg2NzIiLz48dGV4dCBmaWxsPSIjMDAwMDAwIiBmb250LWZhbWlseT0ic2Fucy1zZXJpZiIgZm9udC1zaXplPSIxNCIgbGVuZ3RoQWRqdXN0PSJzcGFjaW5nIiB0ZXh0TGVuZ3RoPSI0MiIgeD0iNTQ4IiB5PSI0OTUuMTAxNiI+V29ya2VyPC90ZXh0PjxyZWN0IGZpbGw9IiNFMkUyRjAiIGhlaWdodD0iMjguOTg0NCIgcng9IjIuNSIgcnk9IjIuNSIgc3R5bGU9InN0cm9rZTojMTgxODE4O3N0cm9rZS13aWR0aDowLjU7IiB3aWR0aD0iMTE5IiB4PSI2NjkuNSIgeT0iNTAiLz48dGV4dCBmaWxsPSIjMDAwMDAwIiBmb250LWZhbWlseT0ic2Fucy1zZXJpZiIgZm9udC1zaXplPSIxNCIgbGVuZ3RoQWRqdXN0PSJzcGFjaW5nIiB0ZXh0TGVuZ3RoPSIxMDUiIHg9IjY3Ni41IiB5PSI3MC4yMzQ0Ij5BY2NvdW50X01hbmFnZXI8L3RleHQ+PHJlY3QgZmlsbD0iI0UyRTJGMCIgaGVpZ2h0PSIyOC45ODQ0IiByeD0iMi41IiByeT0iMi41IiBzdHlsZT0ic3Ryb2tlOiMxODE4MTg7c3Ryb2tlLXdpZHRoOjAuNTsiIHdpZHRoPSIxMTkiIHg9IjY2OS41IiB5PSI0NzQuODY3MiIvPjx0ZXh0IGZpbGw9IiMwMDAwMDAiIGZvbnQtZmFtaWx5PSJzYW5zLXNlcmlmIiBmb250LXNpemU9IjE0IiBsZW5ndGhBZGp1c3Q9InNwYWNpbmciIHRleHRMZW5ndGg9IjEwNSIgeD0iNjc2LjUiIHk9IjQ5NS4xMDE2Ij5BY2NvdW50X01hbmFnZXI8L3RleHQ+PHJlY3QgZmlsbD0iI0UyRTJGMCIgaGVpZ2h0PSIyOC45ODQ0IiByeD0iMi41IiByeT0iMi41IiBzdHlsZT0ic3Ryb2tlOiMxODE4MTg7c3Ryb2tlLXdpZHRoOjAuNTsiIHdpZHRoPSI3MCIgeD0iNzk4LjUiIHk9IjUwIi8+PHRleHQgZmlsbD0iIzAwMDAwMCIgZm9udC1mYW1pbHk9InNhbnMtc2VyaWYiIGZvbnQtc2l6ZT0iMTQiIGxlbmd0aEFkanVzdD0ic3BhY2luZyIgdGV4dExlbmd0aD0iNTYiIHg9IjgwNS41IiB5PSI3MC4yMzQ0Ij5MTE1fQVBJczwvdGV4dD48cmVjdCBmaWxsPSIjRTJFMkYwIiBoZWlnaHQ9IjI4Ljk4NDQiIHJ4PSIyLjUiIHJ5PSIyLjUiIHN0eWxlPSJzdHJva2U6IzE4MTgxODtzdHJva2Utd2lkdGg6MC41OyIgd2lkdGg9IjcwIiB4PSI3OTguNSIgeT0iNDc0Ljg2NzIiLz48dGV4dCBmaWxsPSIjMDAwMDAwIiBmb250LWZhbWlseT0ic2Fucy1zZXJpZiIgZm9udC1zaXplPSIxNCIgbGVuZ3RoQWRqdXN0PSJzcGFjaW5nIiB0ZXh0TGVuZ3RoPSI1NiIgeD0iODA1LjUiIHk9IjQ5NS4xMDE2Ij5MTE1fQVBJczwvdGV4dD48cmVjdCBmaWxsPSIjRTJFMkYwIiBoZWlnaHQ9IjI4Ljk4NDQiIHJ4PSIyLjUiIHJ5PSIyLjUiIHN0eWxlPSJzdHJva2U6IzE4MTgxODtzdHJva2Utd2lkdGg6MC41OyIgd2lkdGg9Ijg0IiB4PSI4NzguNSIgeT0iNTAiLz48dGV4dCBmaWxsPSIjMDAwMDAwIiBmb250LWZhbWlseT0ic2Fucy1zZXJpZiIgZm9udC1zaXplPSIxNCIgbGVuZ3RoQWRqdXN0PSJzcGFjaW5nIiB0ZXh0TGVuZ3RoPSI3MCIgeD0iODg1LjUiIHk9IjcwLjIzNDQiPkFnZ3JlZ2F0b3I8L3RleHQ+PHJlY3QgZmlsbD0iI0UyRTJGMCIgaGVpZ2h0PSIyOC45ODQ0IiByeD0iMi41IiByeT0iMi41IiBzdHlsZT0ic3Ryb2tlOiMxODE4MTg7c3Ryb2tlLXdpZHRoOjAuNTsiIHdpZHRoPSI4NCIgeD0iODc4LjUiIHk9IjQ3NC44NjcyIi8+PHRleHQgZmlsbD0iIzAwMDAwMCIgZm9udC1mYW1pbHk9InNhbnMtc2VyaWYiIGZvbnQtc2l6ZT0iMTQiIGxlbmd0aEFkanVzdD0ic3BhY2luZyIgdGV4dExlbmd0aD0iNzAiIHg9Ijg4NS41IiB5PSI0OTUuMTAxNiI+QWdncmVnYXRvcjwvdGV4dD48cmVjdCBmaWxsPSIjRTJFMkYwIiBoZWlnaHQ9IjI4Ljk4NDQiIHJ4PSIyLjUiIHJ5PSIyLjUiIHN0eWxlPSJzdHJva2U6IzE4MTgxODtzdHJva2Utd2lkdGg6MC41OyIgd2lkdGg9Ijc3IiB4PSIxMDEzIiB5PSI1MCIvPjx0ZXh0IGZpbGw9IiMwMDAwMDAiIGZvbnQtZmFtaWx5PSJzYW5zLXNlcmlmIiBmb250LXNpemU9IjE0IiBsZW5ndGhBZGp1c3Q9InNwYWNpbmciIHRleHRMZW5ndGg9IjYzIiB4PSIxMDIwIiB5PSI3MC4yMzQ0Ij5WYWxpZGF0b3I8L3RleHQ+PHJlY3QgZmlsbD0iI0UyRTJGMCIgaGVpZ2h0PSIyOC45ODQ0IiByeD0iMi41IiByeT0iMi41IiBzdHlsZT0ic3Ryb2tlOiMxODE4MTg7c3Ryb2tlLXdpZHRoOjAuNTsiIHdpZHRoPSI3NyIgeD0iMTAxMyIgeT0iNDc0Ljg2NzIiLz48dGV4dCBmaWxsPSIjMDAwMDAwIiBmb250LWZhbWlseT0ic2Fucy1zZXJpZiIgZm9udC1zaXplPSIxNCIgbGVuZ3RoQWRqdXN0PSJzcGFjaW5nIiB0ZXh0TGVuZ3RoPSI2MyIgeD0iMTAyMCIgeT0iNDk1LjEwMTYiPlZhbGlkYXRvcjwvdGV4dD48cG9seWdvbiBmaWxsPSIjMTgxODE4IiBwb2ludHM9IjE4MiwxMDUuODk4NCwxOTIsMTA5Ljg5ODQsMTgyLDExMy44OTg0LDE4NiwxMDkuODk4NCIgc3R5bGU9InN0cm9rZTojMTgxODE4O3N0cm9rZS13aWR0aDoxLjA7Ii8+PGxpbmUgc3R5bGU9InN0cm9rZTojMTgxODE4O3N0cm9rZS13aWR0aDoxLjA7IiB4MT0iMjkiIHgyPSIxODgiIHkxPSIxMDkuODk4NCIgeTI9IjEwOS44OTg0Ii8+PHRleHQgZmlsbD0iIzAwMDAwMCIgZm9udC1mYW1pbHk9InNhbnMtc2VyaWYiIGZvbnQtc2l6ZT0iMTMiIGxlbmd0aEFkanVzdD0ic3BhY2luZyIgdGV4dExlbmd0aD0iMTQxIiB4PSIzNiIgeT0iMTA2LjI3MzQiPlN1Ym1pdCBQcm9qZWN0IChKU09OKTwvdGV4dD48cG9seWdvbiBmaWxsPSIjMTgxODE4IiBwb2ludHM9IjMwOSwxMzMuODEyNSwzMTksMTM3LjgxMjUsMzA5LDE0MS44MTI1LDMxMywxMzcuODEyNSIgc3R5bGU9InN0cm9rZTojMTgxODE4O3N0cm9rZS13aWR0aDoxLjA7Ii8+PGxpbmUgc3R5bGU9InN0cm9rZTojMTgxODE4O3N0cm9rZS13aWR0aDoxLjA7IiB4MT0iMTk0IiB4Mj0iMzE1IiB5MT0iMTM3LjgxMjUiIHkyPSIxMzcuODEyNSIvPjx0ZXh0IGZpbGw9IiMwMDAwMDAiIGZvbnQtZmFtaWx5PSJzYW5zLXNlcmlmIiBmb250LXNpemU9IjEzIiBsZW5ndGhBZGp1c3Q9InNwYWNpbmciIHRleHRMZW5ndGg9IjEwMyIgeD0iMjAxIiB5PSIxMzQuMTg3NSI+Rm9yd2FyZCBSZXF1ZXN0PC90ZXh0PjxsaW5lIHN0eWxlPSJzdHJva2U6IzE4MTgxODtzdHJva2Utd2lkdGg6MS4wOyIgeDE9IjMyMSIgeDI9IjM2MyIgeTE9IjE2NS43MjY2IiB5Mj0iMTY1LjcyNjYiLz48bGluZSBzdHlsZT0ic3Ryb2tlOiMxODE4MTg7c3Ryb2tlLXdpZHRoOjEuMDsiIHgxPSIzNjMiIHgyPSIzNjMiIHkxPSIxNjUuNzI2NiIgeTI9IjE3OC43MjY2Ii8+PGxpbmUgc3R5bGU9InN0cm9rZTojMTgxODE4O3N0cm9rZS13aWR0aDoxLjA7IiB4MT0iMzIyIiB4Mj0iMzYzIiB5MT0iMTc4LjcyNjYiIHkyPSIxNzguNzI2NiIvPjxwb2x5Z29uIGZpbGw9IiMxODE4MTgiIHBvaW50cz0iMzMyLDE3NC43MjY2LDMyMiwxNzguNzI2NiwzMzIsMTgyLjcyNjYsMzI4LDE3OC43MjY2IiBzdHlsZT0ic3Ryb2tlOiMxODE4MTg7c3Ryb2tlLXdpZHRoOjEuMDsiLz48dGV4dCBmaWxsPSIjMDAwMDAwIiBmb250LWZhbWlseT0ic2Fucy1zZXJpZiIgZm9udC1zaXplPSIxMyIgbGVuZ3RoQWRqdXN0PSJzcGFjaW5nIiB0ZXh0TGVuZ3RoPSIxMjEiIHg9IjMyOCIgeT0iMTYyLjEwMTYiPlRhc2sgRGVjb21wb3NpdGlvbjwvdGV4dD48cG9seWdvbiBmaWxsPSIjMTgxODE4IiBwb2ludHM9IjQ0NCwyMDIuNjQwNiw0NTQsMjA2LjY0MDYsNDQ0LDIxMC42NDA2LDQ0OCwyMDYuNjQwNiIgc3R5bGU9InN0cm9rZTojMTgxODE4O3N0cm9rZS13aWR0aDoxLjA7Ii8+PGxpbmUgc3R5bGU9InN0cm9rZTojMTgxODE4O3N0cm9rZS13aWR0aDoxLjA7IiB4MT0iMzIxIiB4Mj0iNDUwIiB5MT0iMjA2LjY0MDYiIHkyPSIyMDYuNjQwNiIvPjx0ZXh0IGZpbGw9IiMwMDAwMDAiIGZvbnQtZmFtaWx5PSJzYW5zLXNlcmlmIiBmb250LXNpemU9IjEzIiBsZW5ndGhBZGp1c3Q9InNwYWNpbmciIHRleHRMZW5ndGg9IjkwIiB4PSIzMjgiIHk9IjIwMy4wMTU2Ij5QdXNoIFN1YnRhc2tzPC90ZXh0Pjxwb2x5Z29uIGZpbGw9IiMxODE4MTgiIHBvaW50cz0iNTU3LDIzMC41NTQ3LDU2NywyMzQuNTU0Nyw1NTcsMjM4LjU1NDcsNTYxLDIzNC41NTQ3IiBzdHlsZT0ic3Ryb2tlOiMxODE4MTg7c3Ryb2tlLXdpZHRoOjEuMDsiLz48bGluZSBzdHlsZT0ic3Ryb2tlOiMxODE4MTg7c3Ryb2tlLXdpZHRoOjEuMDsiIHgxPSI0NTYiIHgyPSI1NjMiIHkxPSIyMzQuNTU0NyIgeTI9IjIzNC41NTQ3Ii8+PHRleHQgZmlsbD0iIzAwMDAwMCIgZm9udC1mYW1pbHk9InNhbnMtc2VyaWYiIGZvbnQtc2l6ZT0iMTMiIGxlbmd0aEFkanVzdD0ic3BhY2luZyIgdGV4dExlbmd0aD0iODkiIHg9IjQ2MyIgeT0iMjMwLjkyOTciPkNvbnN1bWUgVGFza3M8L3RleHQ+PHBvbHlnb24gZmlsbD0iIzE4MTgxOCIgcG9pbnRzPSI3MTcsMjU4LjQ2ODgsNzI3LDI2Mi40Njg4LDcxNywyNjYuNDY4OCw3MjEsMjYyLjQ2ODgiIHN0eWxlPSJzdHJva2U6IzE4MTgxODtzdHJva2Utd2lkdGg6MS4wOyIvPjxsaW5lIHN0eWxlPSJzdHJva2U6IzE4MTgxODtzdHJva2Utd2lkdGg6MS4wOyIgeDE9IjU2OSIgeDI9IjcyMyIgeTE9IjI2Mi40Njg4IiB5Mj0iMjYyLjQ2ODgiLz48dGV4dCBmaWxsPSIjMDAwMDAwIiBmb250LWZhbWlseT0ic2Fucy1zZXJpZiIgZm9udC1zaXplPSIxMyIgbGVuZ3RoQWRqdXN0PSJzcGFjaW5nIiB0ZXh0TGVuZ3RoPSI3NSIgeD0iNTc2IiB5PSIyNTguODQzOCI+R2V0IEFQSSBLZXk8L3RleHQ+PHBvbHlnb24gZmlsbD0iIzE4MTgxOCIgcG9pbnRzPSI1ODAsMjg2LjM4MjgsNTcwLDI5MC4zODI4LDU4MCwyOTQuMzgyOCw1NzYsMjkwLjM4MjgiIHN0eWxlPSJzdHJva2U6IzE4MTgxODtzdHJva2Utd2lkdGg6MS4wOyIvPjxsaW5lIHN0eWxlPSJzdHJva2U6IzE4MTgxODtzdHJva2Utd2lkdGg6MS4wOyIgeDE9IjU3NCIgeDI9IjcyOCIgeTE9IjI5MC4zODI4IiB5Mj0iMjkwLjM4MjgiLz48dGV4dCBmaWxsPSIjMDAwMDAwIiBmb250LWZhbWlseT0ic2Fucy1zZXJpZiIgZm9udC1zaXplPSIxMyIgbGVuZ3RoQWRqdXN0PSJzcGFjaW5nIiB0ZXh0TGVuZ3RoPSIxMzYiIHg9IjU4NiIgeT0iMjg2Ljc1NzgiPlJldHVybiBBdmFpbGFibGUgS2V5PC90ZXh0Pjxwb2x5Z29uIGZpbGw9IiMxODE4MTgiIHBvaW50cz0iODIxLjUsMzE0LjI5NjksODMxLjUsMzE4LjI5NjksODIxLjUsMzIyLjI5NjksODI1LjUsMzE4LjI5NjkiIHN0eWxlPSJzdHJva2U6IzE4MTgxODtzdHJva2Utd2lkdGg6MS4wOyIvPjxsaW5lIHN0eWxlPSJzdHJva2U6IzE4MTgxODtzdHJva2Utd2lkdGg6MS4wOyIgeDE9IjU2OSIgeDI9IjgyNy41IiB5MT0iMzE4LjI5NjkiIHkyPSIzMTguMjk2OSIvPjx0ZXh0IGZpbGw9IiMwMDAwMDAiIGZvbnQtZmFtaWx5PSJzYW5zLXNlcmlmIiBmb250LXNpemU9IjEzIiBsZW5ndGhBZGp1c3Q9InNwYWNpbmciIHRleHRMZW5ndGg9IjE0OCIgeD0iNTc2IiB5PSIzMTQuNjcxOSI+Q2FsbCBBUEkgKFJvdW5kIFJvYmluKTwvdGV4dD48cG9seWdvbiBmaWxsPSIjMTgxODE4IiBwb2ludHM9IjU4MCwzNDIuMjEwOSw1NzAsMzQ2LjIxMDksNTgwLDM1MC4yMTA5LDU3NiwzNDYuMjEwOSIgc3R5bGU9InN0cm9rZTojMTgxODE4O3N0cm9rZS13aWR0aDoxLjA7Ii8+PGxpbmUgc3R5bGU9InN0cm9rZTojMTgxODE4O3N0cm9rZS13aWR0aDoxLjA7IiB4MT0iNTc0IiB4Mj0iODMyLjUiIHkxPSIzNDYuMjEwOSIgeTI9IjM0Ni4yMTA5Ii8+PHRleHQgZmlsbD0iIzAwMDAwMCIgZm9udC1mYW1pbHk9InNhbnMtc2VyaWYiIGZvbnQtc2l6ZT0iMTMiIGxlbmd0aEFkanVzdD0ic3BhY2luZyIgdGV4dExlbmd0aD0iODgiIHg9IjU4NiIgeT0iMzQyLjU4NTkiPlJldHVybiBSZXN1bHQ8L3RleHQ+PHBvbHlnb24gZmlsbD0iIzE4MTgxOCIgcG9pbnRzPSI5MDguNSwzNzAuMTI1LDkxOC41LDM3NC4xMjUsOTA4LjUsMzc4LjEyNSw5MTIuNSwzNzQuMTI1IiBzdHlsZT0ic3Ryb2tlOiMxODE4MTg7c3Ryb2tlLXdpZHRoOjEuMDsiLz48bGluZSBzdHlsZT0ic3Ryb2tlOiMxODE4MTg7c3Ryb2tlLXdpZHRoOjEuMDsiIHgxPSI1NjkiIHgyPSI5MTQuNSIgeTE9IjM3NC4xMjUiIHkyPSIzNzQuMTI1Ii8+PHRleHQgZmlsbD0iIzAwMDAwMCIgZm9udC1mYW1pbHk9InNhbnMtc2VyaWYiIGZvbnQtc2l6ZT0iMTMiIGxlbmd0aEFkanVzdD0ic3BhY2luZyIgdGV4dExlbmd0aD0iNzUiIHg9IjU3NiIgeT0iMzcwLjUiPlNlbmQgUmVzdWx0PC90ZXh0Pjxwb2x5Z29uIGZpbGw9IiMxODE4MTgiIHBvaW50cz0iMTAzOS41LDM5OC4wMzkxLDEwNDkuNSw0MDIuMDM5MSwxMDM5LjUsNDA2LjAzOTEsMTA0My41LDQwMi4wMzkxIiBzdHlsZT0ic3Ryb2tlOiMxODE4MTg7c3Ryb2tlLXdpZHRoOjEuMDsiLz48bGluZSBzdHlsZT0ic3Ryb2tlOiMxODE4MTg7c3Ryb2tlLXdpZHRoOjEuMDsiIHgxPSI5MjAuNSIgeDI9IjEwNDUuNSIgeTE9IjQwMi4wMzkxIiB5Mj0iNDAyLjAzOTEiLz48dGV4dCBmaWxsPSIjMDAwMDAwIiBmb250LWZhbWlseT0ic2Fucy1zZXJpZiIgZm9udC1zaXplPSIxMyIgbGVuZ3RoQWRqdXN0PSJzcGFjaW5nIiB0ZXh0TGVuZ3RoPSIxMDciIHg9IjkyNy41IiB5PSIzOTguNDE0MSI+VmFsaWRhdGUgUmVzdWx0czwvdGV4dD48cG9seWdvbiBmaWxsPSIjMTgxODE4IiBwb2ludHM9IjMzMiw0MjUuOTUzMSwzMjIsNDI5Ljk1MzEsMzMyLDQzMy45NTMxLDMyOCw0MjkuOTUzMSIgc3R5bGU9InN0cm9rZTojMTgxODE4O3N0cm9rZS13aWR0aDoxLjA7Ii8+PGxpbmUgc3R5bGU9InN0cm9rZTojMTgxODE4O3N0cm9rZS13aWR0aDoxLjA7IiB4MT0iMzI2IiB4Mj0iMTA1MC41IiB5MT0iNDI5Ljk1MzEiIHkyPSI0MjkuOTUzMSIvPjx0ZXh0IGZpbGw9IiMwMDAwMDAiIGZvbnQtZmFtaWx5PSJzYW5zLXNlcmlmIiBmb250LXNpemU9IjEzIiBsZW5ndGhBZGp1c3Q9InNwYWNpbmciIHRleHRMZW5ndGg9IjEwNyIgeD0iMzM4IiB5PSI0MjYuMzI4MSI+RmluYWwgRXZhbHVhdGlvbjwvdGV4dD48cG9seWdvbiBmaWxsPSIjMTgxODE4IiBwb2ludHM9IjQwLDQ1My44NjcyLDMwLDQ1Ny44NjcyLDQwLDQ2MS44NjcyLDM2LDQ1Ny44NjcyIiBzdHlsZT0ic3Ryb2tlOiMxODE4MTg7c3Ryb2tlLXdpZHRoOjEuMDsiLz48bGluZSBzdHlsZT0ic3Ryb2tlOiMxODE4MTg7c3Ryb2tlLXdpZHRoOjEuMDsiIHgxPSIzNCIgeDI9IjMyMCIgeTE9IjQ1Ny44NjcyIiB5Mj0iNDU3Ljg2NzIiLz48dGV4dCBmaWxsPSIjMDAwMDAwIiBmb250LWZhbWlseT0ic2Fucy1zZXJpZiIgZm9udC1zaXplPSIxMyIgbGVuZ3RoQWRqdXN0PSJzcGFjaW5nIiB0ZXh0TGVuZ3RoPSIxMjgiIHg9IjQ2IiB5PSI0NTQuMjQyMiI+UmV0dXJuIEZpbmFsIFJlc3VsdDwvdGV4dD48IS0tU1JDPVtSTDUxUmk4bTRCcHg1Tms0R3AtR0dvTDRNekcyMU9NZ0ZRQjVSOEVCaVFjejFsN3hFZE85Mk4ycFBjUjdpeENlc0plT1FhTTZuSHVUQXdkc1ExVzZ5elZiMjljRVVFaFdDb1N0dkRiWGRFaUdPX3BVT1dWdmljdkJOVDUwSVhpQ0J3VGVpQmhZOWZGZkNseGdrbURMdlFZdy1VbUpqTGVkTEVKaXlGM09aYnAwOGduc1ljN2t4MHo5WGp4Uk9sUlU1b3I5RlQ1VWZlME53dXhlcmIzSVJ1WWVRQkV0d1dfcU10V1lRTlR4d25LaFFzdTZLWUs1cDhGVnI3YXVKZFlIbTloRHpIR21qQ1E3N0lMM0JwQVFya2JzTFMyOHFiYldKMlRuSFJSeklrQlczMG1FZzNJa0QyTnpuVlBTU19tT2pLdzZsSjl3blJ0aklmYy1FMGxrVTlSYVctUHNua095aU42Z0ZSQllXalVndmJoNS1LZF9HWXlReGl1emI0NERwbVZLMFVfc2NxX1ZmQ2x3UkZtN10tLT48L2c+PC9zdmc+;" vertex="1" parent="1">
            <mxGeometry x="1200" y="-660" width="1096" height="555" as="geometry" />
          </mxCell>
        </UserObject>
        <UserObject label="" plantUmlData="{&#xa;  &quot;data&quot;: &quot;@startuml\nactor Client\nparticipant \&quot;API Gateway\&quot; as GW\nparticipant \&quot;Task Manager\&quot; as TM\nparticipant \&quot;DeepSeek R1\\n(Orchestrator)\&quot; as DS\nparticipant \&quot;Kafka Broker\&quot; as KB\nparticipant \&quot;OpenAI Worker\&quot; as W1\nparticipant \&quot;Genmini Worker\&quot; as W2\nparticipant \&quot;Claude Worker\&quot; as W3\nparticipant \&quot;DeepSeek Worker\&quot; as W4\nparticipant \&quot;Qwen-2.5 Worker\&quot; as W5\nparticipant \&quot;Result Merger\&quot; as RM\nparticipant \&quot;Rate Limiter / \\nAccount Manager\&quot; as RL\n\nClient -&gt; GW: Gửi yêu cầu lớn\nGW -&gt; TM: Chuyển tiếp yêu cầu\nTM -&gt; DS: Yêu cầu phân tích &amp; chia task\nDS -&gt; DS: Phân tích, làm rõ và chia nhỏ task\\n(sinh ra danh sách sub-task)\nDS -&gt; TM: Trả về danh sách sub-task\nTM -&gt; KB: Đẩy các sub-task vào Kafka\n\nnote over KB: Các sub-task được phân phối song song\n\nKB -&gt; W1: Giao nhiệm vụ (OpenAI)\nKB -&gt; W2: Giao nhiệm vụ (Genmini)\nKB -&gt; W3: Giao nhiệm vụ (Claude)\nKB -&gt; W4: Giao nhiệm vụ (DeepSeek)\nKB -&gt; W5: Giao nhiệm vụ (Qwen-2.5)\n\nW1 -&gt; TM: Trả kết quả cho task 1\nW2 -&gt; TM: Trả kết quả cho task 2\nW3 -&gt; TM: Trả kết quả cho task 3\nW4 -&gt; TM: Trả kết quả cho task 4\nW5 -&gt; TM: Trả kết quả cho task 5\n\nTM -&gt; RM: Gửi các kết quả để hợp nhất\nRM -&gt; DS: Gửi kết quả hợp nhất để đánh giá\nDS -&gt; DS: Đánh giá kết quả hoàn thiện\nDS -&gt; RL: Cập nhật thông tin sử dụng/giới hạn\nDS -&gt; Client: Trả kết quả cuối cùng\n\n@enduml\n&quot;,&#xa;  &quot;format&quot;: &quot;svg&quot;&#xa;}" id="P0KIgLAv_do0OGR5v37D-2">
          <mxCell style="shape=image;noLabel=1;verticalAlign=top;aspect=fixed;imageAspect=0;image=data:image/svg+xml,PD94bWwgdmVyc2lvbj0iMS4wIiBlbmNvZGluZz0idXMtYXNjaWkiIHN0YW5kYWxvbmU9Im5vIj8+PHN2ZyB4bWxucz0iaHR0cDovL3d3dy53My5vcmcvMjAwMC9zdmciIHhtbG5zOnhsaW5rPSJodHRwOi8vd3d3LnczLm9yZy8xOTk5L3hsaW5rIiBjb250ZW50U3R5bGVUeXBlPSJ0ZXh0L2NzcyIgaGVpZ2h0PSI4MzlweCIgcHJlc2VydmVBc3BlY3RSYXRpbz0ibm9uZSIgc3R5bGU9IndpZHRoOjE3NTFweDtoZWlnaHQ6ODM5cHg7YmFja2dyb3VuZDojRkZGRkZGOyIgdmVyc2lvbj0iMS4xIiB2aWV3Qm94PSIwIDAgMTc1MSA4MzkiIHdpZHRoPSIxNzUxcHgiIHpvb21BbmRQYW49Im1hZ25pZnkiPjxkZWZzLz48Zz48bGluZSBzdHlsZT0ic3Ryb2tlOiMxODE4MTg7c3Ryb2tlLXdpZHRoOjAuNTtzdHJva2UtZGFzaGFycmF5OjUuMCw1LjA7IiB4MT0iMjkiIHgyPSIyOSIgeTE9Ijc5Ljk4NDQiIHkyPSI3NjAuMDA3OCIvPjxsaW5lIHN0eWxlPSJzdHJva2U6IzE4MTgxODtzdHJva2Utd2lkdGg6MC41O3N0cm9rZS1kYXNoYXJyYXk6NS4wLDUuMDsiIHgxPSIxNTYiIHgyPSIxNTYiIHkxPSI3OS45ODQ0IiB5Mj0iNzYwLjAwNzgiLz48bGluZSBzdHlsZT0ic3Ryb2tlOiMxODE4MTg7c3Ryb2tlLXdpZHRoOjAuNTtzdHJva2UtZGFzaGFycmF5OjUuMCw1LjA7IiB4MT0iMzExIiB4Mj0iMzExIiB5MT0iNzkuOTg0NCIgeTI9Ijc2MC4wMDc4Ii8+PGxpbmUgc3R5bGU9InN0cm9rZTojMTgxODE4O3N0cm9rZS13aWR0aDowLjU7c3Ryb2tlLWRhc2hhcnJheTo1LjAsNS4wOyIgeDE9IjUzNCIgeDI9IjUzNCIgeTE9Ijc5Ljk4NDQiIHkyPSI3NjAuMDA3OCIvPjxsaW5lIHN0eWxlPSJzdHJva2U6IzE4MTgxODtzdHJva2Utd2lkdGg6MC41O3N0cm9rZS1kYXNoYXJyYXk6NS4wLDUuMDsiIHgxPSI3NzkiIHgyPSI3NzkiIHkxPSI3OS45ODQ0IiB5Mj0iNzYwLjAwNzgiLz48bGluZSBzdHlsZT0ic3Ryb2tlOiMxODE4MTg7c3Ryb2tlLXdpZHRoOjAuNTtzdHJva2UtZGFzaGFycmF5OjUuMCw1LjA7IiB4MT0iOTUwLjUiIHgyPSI5NTAuNSIgeTE9Ijc5Ljk4NDQiIHkyPSI3NjAuMDA3OCIvPjxsaW5lIHN0eWxlPSJzdHJva2U6IzE4MTgxODtzdHJva2Utd2lkdGg6MC41O3N0cm9rZS1kYXNoYXJyYXk6NS4wLDUuMDsiIHgxPSIxMDY5LjUiIHgyPSIxMDY5LjUiIHkxPSI3OS45ODQ0IiB5Mj0iNzYwLjAwNzgiLz48bGluZSBzdHlsZT0ic3Ryb2tlOiMxODE4MTg7c3Ryb2tlLXdpZHRoOjAuNTtzdHJva2UtZGFzaGFycmF5OjUuMCw1LjA7IiB4MT0iMTE4OC41IiB4Mj0iMTE4OC41IiB5MT0iNzkuOTg0NCIgeTI9Ijc2MC4wMDc4Ii8+PGxpbmUgc3R5bGU9InN0cm9rZTojMTgxODE4O3N0cm9rZS13aWR0aDowLjU7c3Ryb2tlLWRhc2hhcnJheTo1LjAsNS4wOyIgeDE9IjEzMTAuNSIgeDI9IjEzMTAuNSIgeTE9Ijc5Ljk4NDQiIHkyPSI3NjAuMDA3OCIvPjxsaW5lIHN0eWxlPSJzdHJva2U6IzE4MTgxODtzdHJva2Utd2lkdGg6MC41O3N0cm9rZS1kYXNoYXJyYXk6NS4wLDUuMDsiIHgxPSIxNDQwLjUiIHgyPSIxNDQwLjUiIHkxPSI3OS45ODQ0IiB5Mj0iNzYwLjAwNzgiLz48bGluZSBzdHlsZT0ic3Ryb2tlOiMxODE4MTg7c3Ryb2tlLXdpZHRoOjAuNTtzdHJva2UtZGFzaGFycmF5OjUuMCw1LjA7IiB4MT0iMTU2Mi41IiB4Mj0iMTU2Mi41IiB5MT0iNzkuOTg0NCIgeTI9Ijc2MC4wMDc4Ii8+PGxpbmUgc3R5bGU9InN0cm9rZTojMTgxODE4O3N0cm9rZS13aWR0aDowLjU7c3Ryb2tlLWRhc2hhcnJheTo1LjAsNS4wOyIgeDE9IjE2ODUuNSIgeDI9IjE2ODUuNSIgeTE9Ijc5Ljk4NDQiIHkyPSI3NjAuMDA3OCIvPjx0ZXh0IGZpbGw9IiMwMDAwMDAiIGZvbnQtZmFtaWx5PSJzYW5zLXNlcmlmIiBmb250LXNpemU9IjE0IiBsZW5ndGhBZGp1c3Q9InNwYWNpbmciIHRleHRMZW5ndGg9IjQyIiB4PSI1IiB5PSI3OC4yMzQ0Ij5DbGllbnQ8L3RleHQ+PGVsbGlwc2UgY3g9IjI5IiBjeT0iMTMuNSIgZmlsbD0iI0UyRTJGMCIgcng9IjgiIHJ5PSI4IiBzdHlsZT0ic3Ryb2tlOiMxODE4MTg7c3Ryb2tlLXdpZHRoOjAuNTsiLz48cGF0aCBkPSJNMjksMjEuNSBMMjksNDguNSBNMTYsMjkuNSBMNDIsMjkuNSBNMjksNDguNSBMMTYsNjMuNSBNMjksNDguNSBMNDIsNjMuNSAiIGZpbGw9Im5vbmUiIHN0eWxlPSJzdHJva2U6IzE4MTgxODtzdHJva2Utd2lkdGg6MC41OyIvPjx0ZXh0IGZpbGw9IiMwMDAwMDAiIGZvbnQtZmFtaWx5PSJzYW5zLXNlcmlmIiBmb250LXNpemU9IjE0IiBsZW5ndGhBZGp1c3Q9InNwYWNpbmciIHRleHRMZW5ndGg9IjQyIiB4PSI1IiB5PSI3NzIuMjQyMiI+Q2xpZW50PC90ZXh0PjxlbGxpcHNlIGN4PSIyOSIgY3k9Ijc4Mi40OTIyIiBmaWxsPSIjRTJFMkYwIiByeD0iOCIgcnk9IjgiIHN0eWxlPSJzdHJva2U6IzE4MTgxODtzdHJva2Utd2lkdGg6MC41OyIvPjxwYXRoIGQ9Ik0yOSw3OTAuNDkyMiBMMjksODE3LjQ5MjIgTTE2LDc5OC40OTIyIEw0Miw3OTguNDkyMiBNMjksODE3LjQ5MjIgTDE2LDgzMi40OTIyIE0yOSw4MTcuNDkyMiBMNDIsODMyLjQ5MjIgIiBmaWxsPSJub25lIiBzdHlsZT0ic3Ryb2tlOiMxODE4MTg7c3Ryb2tlLXdpZHRoOjAuNTsiLz48cmVjdCBmaWxsPSIjRTJFMkYwIiBoZWlnaHQ9IjI4Ljk4NDQiIHJ4PSIyLjUiIHJ5PSIyLjUiIHN0eWxlPSJzdHJva2U6IzE4MTgxODtzdHJva2Utd2lkdGg6MC41OyIgd2lkdGg9IjkyIiB4PSIxMTAiIHk9IjUwIi8+PHRleHQgZmlsbD0iIzAwMDAwMCIgZm9udC1mYW1pbHk9InNhbnMtc2VyaWYiIGZvbnQtc2l6ZT0iMTQiIGxlbmd0aEFkanVzdD0ic3BhY2luZyIgdGV4dExlbmd0aD0iNzgiIHg9IjExNyIgeT0iNzAuMjM0NCI+QVBJIEdhdGV3YXk8L3RleHQ+PHJlY3QgZmlsbD0iI0UyRTJGMCIgaGVpZ2h0PSIyOC45ODQ0IiByeD0iMi41IiByeT0iMi41IiBzdHlsZT0ic3Ryb2tlOiMxODE4MTg7c3Ryb2tlLXdpZHRoOjAuNTsiIHdpZHRoPSI5MiIgeD0iMTEwIiB5PSI3NTkuMDA3OCIvPjx0ZXh0IGZpbGw9IiMwMDAwMDAiIGZvbnQtZmFtaWx5PSJzYW5zLXNlcmlmIiBmb250LXNpemU9IjE0IiBsZW5ndGhBZGp1c3Q9InNwYWNpbmciIHRleHRMZW5ndGg9Ijc4IiB4PSIxMTciIHk9Ijc3OS4yNDIyIj5BUEkgR2F0ZXdheTwvdGV4dD48cmVjdCBmaWxsPSIjRTJFMkYwIiBoZWlnaHQ9IjI4Ljk4NDQiIHJ4PSIyLjUiIHJ5PSIyLjUiIHN0eWxlPSJzdHJva2U6IzE4MTgxODtzdHJva2Utd2lkdGg6MC41OyIgd2lkdGg9Ijk4IiB4PSIyNjIiIHk9IjUwIi8+PHRleHQgZmlsbD0iIzAwMDAwMCIgZm9udC1mYW1pbHk9InNhbnMtc2VyaWYiIGZvbnQtc2l6ZT0iMTQiIGxlbmd0aEFkanVzdD0ic3BhY2luZyIgdGV4dExlbmd0aD0iODQiIHg9IjI2OSIgeT0iNzAuMjM0NCI+VGFzayBNYW5hZ2VyPC90ZXh0PjxyZWN0IGZpbGw9IiNFMkUyRjAiIGhlaWdodD0iMjguOTg0NCIgcng9IjIuNSIgcnk9IjIuNSIgc3R5bGU9InN0cm9rZTojMTgxODE4O3N0cm9rZS13aWR0aDowLjU7IiB3aWR0aD0iOTgiIHg9IjI2MiIgeT0iNzU5LjAwNzgiLz48dGV4dCBmaWxsPSIjMDAwMDAwIiBmb250LWZhbWlseT0ic2Fucy1zZXJpZiIgZm9udC1zaXplPSIxNCIgbGVuZ3RoQWRqdXN0PSJzcGFjaW5nIiB0ZXh0TGVuZ3RoPSI4NCIgeD0iMjY5IiB5PSI3NzkuMjQyMiI+VGFzayBNYW5hZ2VyPC90ZXh0PjxyZWN0IGZpbGw9IiNFMkUyRjAiIGhlaWdodD0iNDMuOTY4OCIgcng9IjIuNSIgcnk9IjIuNSIgc3R5bGU9InN0cm9rZTojMTgxODE4O3N0cm9rZS13aWR0aDowLjU7IiB3aWR0aD0iMTE0IiB4PSI0NzciIHk9IjM1LjAxNTYiLz48dGV4dCBmaWxsPSIjMDAwMDAwIiBmb250LWZhbWlseT0ic2Fucy1zZXJpZiIgZm9udC1zaXplPSIxNCIgbGVuZ3RoQWRqdXN0PSJzcGFjaW5nIiB0ZXh0TGVuZ3RoPSI3NyIgeD0iNDk1LjUiIHk9IjU1LjI1Ij5EZWVwU2VlayBSMTwvdGV4dD48dGV4dCBmaWxsPSIjMDAwMDAwIiBmb250LWZhbWlseT0ic2Fucy1zZXJpZiIgZm9udC1zaXplPSIxNCIgbGVuZ3RoQWRqdXN0PSJzcGFjaW5nIiB0ZXh0TGVuZ3RoPSIxMDAiIHg9IjQ4NCIgeT0iNzAuMjM0NCI+KE9yY2hlc3RyYXRvcik8L3RleHQ+PHJlY3QgZmlsbD0iI0UyRTJGMCIgaGVpZ2h0PSI0My45Njg4IiByeD0iMi41IiByeT0iMi41IiBzdHlsZT0ic3Ryb2tlOiMxODE4MTg7c3Ryb2tlLXdpZHRoOjAuNTsiIHdpZHRoPSIxMTQiIHg9IjQ3NyIgeT0iNzU5LjAwNzgiLz48dGV4dCBmaWxsPSIjMDAwMDAwIiBmb250LWZhbWlseT0ic2Fucy1zZXJpZiIgZm9udC1zaXplPSIxNCIgbGVuZ3RoQWRqdXN0PSJzcGFjaW5nIiB0ZXh0TGVuZ3RoPSI3NyIgeD0iNDk1LjUiIHk9Ijc3OS4yNDIyIj5EZWVwU2VlayBSMTwvdGV4dD48dGV4dCBmaWxsPSIjMDAwMDAwIiBmb250LWZhbWlseT0ic2Fucy1zZXJpZiIgZm9udC1zaXplPSIxNCIgbGVuZ3RoQWRqdXN0PSJzcGFjaW5nIiB0ZXh0TGVuZ3RoPSIxMDAiIHg9IjQ4NCIgeT0iNzk0LjIyNjYiPihPcmNoZXN0cmF0b3IpPC90ZXh0PjxyZWN0IGZpbGw9IiNFMkUyRjAiIGhlaWdodD0iMjguOTg0NCIgcng9IjIuNSIgcnk9IjIuNSIgc3R5bGU9InN0cm9rZTojMTgxODE4O3N0cm9rZS13aWR0aDowLjU7IiB3aWR0aD0iOTgiIHg9IjczMCIgeT0iNTAiLz48dGV4dCBmaWxsPSIjMDAwMDAwIiBmb250LWZhbWlseT0ic2Fucy1zZXJpZiIgZm9udC1zaXplPSIxNCIgbGVuZ3RoQWRqdXN0PSJzcGFjaW5nIiB0ZXh0TGVuZ3RoPSI4NCIgeD0iNzM3IiB5PSI3MC4yMzQ0Ij5LYWZrYSBCcm9rZXI8L3RleHQ+PHJlY3QgZmlsbD0iI0UyRTJGMCIgaGVpZ2h0PSIyOC45ODQ0IiByeD0iMi41IiByeT0iMi41IiBzdHlsZT0ic3Ryb2tlOiMxODE4MTg7c3Ryb2tlLXdpZHRoOjAuNTsiIHdpZHRoPSI5OCIgeD0iNzMwIiB5PSI3NTkuMDA3OCIvPjx0ZXh0IGZpbGw9IiMwMDAwMDAiIGZvbnQtZmFtaWx5PSJzYW5zLXNlcmlmIiBmb250LXNpemU9IjE0IiBsZW5ndGhBZGp1c3Q9InNwYWNpbmciIHRleHRMZW5ndGg9Ijg0IiB4PSI3MzciIHk9Ijc3OS4yNDIyIj5LYWZrYSBCcm9rZXI8L3RleHQ+PHJlY3QgZmlsbD0iI0UyRTJGMCIgaGVpZ2h0PSIyOC45ODQ0IiByeD0iMi41IiByeT0iMi41IiBzdHlsZT0ic3Ryb2tlOiMxODE4MTg7c3Ryb2tlLXdpZHRoOjAuNTsiIHdpZHRoPSIxMDUiIHg9Ijg5OC41IiB5PSI1MCIvPjx0ZXh0IGZpbGw9IiMwMDAwMDAiIGZvbnQtZmFtaWx5PSJzYW5zLXNlcmlmIiBmb250LXNpemU9IjE0IiBsZW5ndGhBZGp1c3Q9InNwYWNpbmciIHRleHRMZW5ndGg9IjkxIiB4PSI5MDUuNSIgeT0iNzAuMjM0NCI+T3BlbkFJIFdvcmtlcjwvdGV4dD48cmVjdCBmaWxsPSIjRTJFMkYwIiBoZWlnaHQ9IjI4Ljk4NDQiIHJ4PSIyLjUiIHJ5PSIyLjUiIHN0eWxlPSJzdHJva2U6IzE4MTgxODtzdHJva2Utd2lkdGg6MC41OyIgd2lkdGg9IjEwNSIgeD0iODk4LjUiIHk9Ijc1OS4wMDc4Ii8+PHRleHQgZmlsbD0iIzAwMDAwMCIgZm9udC1mYW1pbHk9InNhbnMtc2VyaWYiIGZvbnQtc2l6ZT0iMTQiIGxlbmd0aEFkanVzdD0ic3BhY2luZyIgdGV4dExlbmd0aD0iOTEiIHg9IjkwNS41IiB5PSI3NzkuMjQyMiI+T3BlbkFJIFdvcmtlcjwvdGV4dD48cmVjdCBmaWxsPSIjRTJFMkYwIiBoZWlnaHQ9IjI4Ljk4NDQiIHJ4PSIyLjUiIHJ5PSIyLjUiIHN0eWxlPSJzdHJva2U6IzE4MTgxODtzdHJva2Utd2lkdGg6MC41OyIgd2lkdGg9IjExMyIgeD0iMTAxMy41IiB5PSI1MCIvPjx0ZXh0IGZpbGw9IiMwMDAwMDAiIGZvbnQtZmFtaWx5PSJzYW5zLXNlcmlmIiBmb250LXNpemU9IjE0IiBsZW5ndGhBZGp1c3Q9InNwYWNpbmciIHRleHRMZW5ndGg9Ijk5IiB4PSIxMDIwLjUiIHk9IjcwLjIzNDQiPkdlbm1pbmkgV29ya2VyPC90ZXh0PjxyZWN0IGZpbGw9IiNFMkUyRjAiIGhlaWdodD0iMjguOTg0NCIgcng9IjIuNSIgcnk9IjIuNSIgc3R5bGU9InN0cm9rZTojMTgxODE4O3N0cm9rZS13aWR0aDowLjU7IiB3aWR0aD0iMTEzIiB4PSIxMDEzLjUiIHk9Ijc1OS4wMDc4Ii8+PHRleHQgZmlsbD0iIzAwMDAwMCIgZm9udC1mYW1pbHk9InNhbnMtc2VyaWYiIGZvbnQtc2l6ZT0iMTQiIGxlbmd0aEFkanVzdD0ic3BhY2luZyIgdGV4dExlbmd0aD0iOTkiIHg9IjEwMjAuNSIgeT0iNzc5LjI0MjIiPkdlbm1pbmkgV29ya2VyPC90ZXh0PjxyZWN0IGZpbGw9IiNFMkUyRjAiIGhlaWdodD0iMjguOTg0NCIgcng9IjIuNSIgcnk9IjIuNSIgc3R5bGU9InN0cm9rZTojMTgxODE4O3N0cm9rZS13aWR0aDowLjU7IiB3aWR0aD0iMTA1IiB4PSIxMTM2LjUiIHk9IjUwIi8+PHRleHQgZmlsbD0iIzAwMDAwMCIgZm9udC1mYW1pbHk9InNhbnMtc2VyaWYiIGZvbnQtc2l6ZT0iMTQiIGxlbmd0aEFkanVzdD0ic3BhY2luZyIgdGV4dExlbmd0aD0iOTEiIHg9IjExNDMuNSIgeT0iNzAuMjM0NCI+Q2xhdWRlIFdvcmtlcjwvdGV4dD48cmVjdCBmaWxsPSIjRTJFMkYwIiBoZWlnaHQ9IjI4Ljk4NDQiIHJ4PSIyLjUiIHJ5PSIyLjUiIHN0eWxlPSJzdHJva2U6IzE4MTgxODtzdHJva2Utd2lkdGg6MC41OyIgd2lkdGg9IjEwNSIgeD0iMTEzNi41IiB5PSI3NTkuMDA3OCIvPjx0ZXh0IGZpbGw9IiMwMDAwMDAiIGZvbnQtZmFtaWx5PSJzYW5zLXNlcmlmIiBmb250LXNpemU9IjE0IiBsZW5ndGhBZGp1c3Q9InNwYWNpbmciIHRleHRMZW5ndGg9IjkxIiB4PSIxMTQzLjUiIHk9Ijc3OS4yNDIyIj5DbGF1ZGUgV29ya2VyPC90ZXh0PjxyZWN0IGZpbGw9IiNFMkUyRjAiIGhlaWdodD0iMjguOTg0NCIgcng9IjIuNSIgcnk9IjIuNSIgc3R5bGU9InN0cm9rZTojMTgxODE4O3N0cm9rZS13aWR0aDowLjU7IiB3aWR0aD0iMTE5IiB4PSIxMjUxLjUiIHk9IjUwIi8+PHRleHQgZmlsbD0iIzAwMDAwMCIgZm9udC1mYW1pbHk9InNhbnMtc2VyaWYiIGZvbnQtc2l6ZT0iMTQiIGxlbmd0aEFkanVzdD0ic3BhY2luZyIgdGV4dExlbmd0aD0iMTA1IiB4PSIxMjU4LjUiIHk9IjcwLjIzNDQiPkRlZXBTZWVrIFdvcmtlcjwvdGV4dD48cmVjdCBmaWxsPSIjRTJFMkYwIiBoZWlnaHQ9IjI4Ljk4NDQiIHJ4PSIyLjUiIHJ5PSIyLjUiIHN0eWxlPSJzdHJva2U6IzE4MTgxODtzdHJva2Utd2lkdGg6MC41OyIgd2lkdGg9IjExOSIgeD0iMTI1MS41IiB5PSI3NTkuMDA3OCIvPjx0ZXh0IGZpbGw9IiMwMDAwMDAiIGZvbnQtZmFtaWx5PSJzYW5zLXNlcmlmIiBmb250LXNpemU9IjE0IiBsZW5ndGhBZGp1c3Q9InNwYWNpbmciIHRleHRMZW5ndGg9IjEwNSIgeD0iMTI1OC41IiB5PSI3NzkuMjQyMiI+RGVlcFNlZWsgV29ya2VyPC90ZXh0PjxyZWN0IGZpbGw9IiNFMkUyRjAiIGhlaWdodD0iMjguOTg0NCIgcng9IjIuNSIgcnk9IjIuNSIgc3R5bGU9InN0cm9rZTojMTgxODE4O3N0cm9rZS13aWR0aDowLjU7IiB3aWR0aD0iMTIwIiB4PSIxMzgwLjUiIHk9IjUwIi8+PHRleHQgZmlsbD0iIzAwMDAwMCIgZm9udC1mYW1pbHk9InNhbnMtc2VyaWYiIGZvbnQtc2l6ZT0iMTQiIGxlbmd0aEFkanVzdD0ic3BhY2luZyIgdGV4dExlbmd0aD0iMTA2IiB4PSIxMzg3LjUiIHk9IjcwLjIzNDQiPlF3ZW4tMi41IFdvcmtlcjwvdGV4dD48cmVjdCBmaWxsPSIjRTJFMkYwIiBoZWlnaHQ9IjI4Ljk4NDQiIHJ4PSIyLjUiIHJ5PSIyLjUiIHN0eWxlPSJzdHJva2U6IzE4MTgxODtzdHJva2Utd2lkdGg6MC41OyIgd2lkdGg9IjEyMCIgeD0iMTM4MC41IiB5PSI3NTkuMDA3OCIvPjx0ZXh0IGZpbGw9IiMwMDAwMDAiIGZvbnQtZmFtaWx5PSJzYW5zLXNlcmlmIiBmb250LXNpemU9IjE0IiBsZW5ndGhBZGp1c3Q9InNwYWNpbmciIHRleHRMZW5ndGg9IjEwNiIgeD0iMTM4Ny41IiB5PSI3NzkuMjQyMiI+UXdlbi0yLjUgV29ya2VyPC90ZXh0PjxyZWN0IGZpbGw9IiNFMkUyRjAiIGhlaWdodD0iMjguOTg0NCIgcng9IjIuNSIgcnk9IjIuNSIgc3R5bGU9InN0cm9rZTojMTgxODE4O3N0cm9rZS13aWR0aDowLjU7IiB3aWR0aD0iMTA1IiB4PSIxNTEwLjUiIHk9IjUwIi8+PHRleHQgZmlsbD0iIzAwMDAwMCIgZm9udC1mYW1pbHk9InNhbnMtc2VyaWYiIGZvbnQtc2l6ZT0iMTQiIGxlbmd0aEFkanVzdD0ic3BhY2luZyIgdGV4dExlbmd0aD0iOTEiIHg9IjE1MTcuNSIgeT0iNzAuMjM0NCI+UmVzdWx0IE1lcmdlcjwvdGV4dD48cmVjdCBmaWxsPSIjRTJFMkYwIiBoZWlnaHQ9IjI4Ljk4NDQiIHJ4PSIyLjUiIHJ5PSIyLjUiIHN0eWxlPSJzdHJva2U6IzE4MTgxODtzdHJva2Utd2lkdGg6MC41OyIgd2lkdGg9IjEwNSIgeD0iMTUxMC41IiB5PSI3NTkuMDA3OCIvPjx0ZXh0IGZpbGw9IiMwMDAwMDAiIGZvbnQtZmFtaWx5PSJzYW5zLXNlcmlmIiBmb250LXNpemU9IjE0IiBsZW5ndGhBZGp1c3Q9InNwYWNpbmciIHRleHRMZW5ndGg9IjkxIiB4PSIxNTE3LjUiIHk9Ijc3OS4yNDIyIj5SZXN1bHQgTWVyZ2VyPC90ZXh0PjxyZWN0IGZpbGw9IiNFMkUyRjAiIGhlaWdodD0iNDMuOTY4OCIgcng9IjIuNSIgcnk9IjIuNSIgc3R5bGU9InN0cm9rZTojMTgxODE4O3N0cm9rZS13aWR0aDowLjU7IiB3aWR0aD0iMTIwIiB4PSIxNjI1LjUiIHk9IjM1LjAxNTYiLz48dGV4dCBmaWxsPSIjMDAwMDAwIiBmb250LWZhbWlseT0ic2Fucy1zZXJpZiIgZm9udC1zaXplPSIxNCIgbGVuZ3RoQWRqdXN0PSJzcGFjaW5nIiB0ZXh0TGVuZ3RoPSI5OSIgeD0iMTYzMi41IiB5PSI1NS4yNSI+UmF0ZSBMaW1pdGVyIC88L3RleHQ+PHRleHQgZmlsbD0iIzAwMDAwMCIgZm9udC1mYW1pbHk9InNhbnMtc2VyaWYiIGZvbnQtc2l6ZT0iMTQiIGxlbmd0aEFkanVzdD0ic3BhY2luZyIgdGV4dExlbmd0aD0iMTA1IiB4PSIxNjMzIiB5PSI3MC4yMzQ0Ij5BY2NvdW50IE1hbmFnZXI8L3RleHQ+PHJlY3QgZmlsbD0iI0UyRTJGMCIgaGVpZ2h0PSI0My45Njg4IiByeD0iMi41IiByeT0iMi41IiBzdHlsZT0ic3Ryb2tlOiMxODE4MTg7c3Ryb2tlLXdpZHRoOjAuNTsiIHdpZHRoPSIxMjAiIHg9IjE2MjUuNSIgeT0iNzU5LjAwNzgiLz48dGV4dCBmaWxsPSIjMDAwMDAwIiBmb250LWZhbWlseT0ic2Fucy1zZXJpZiIgZm9udC1zaXplPSIxNCIgbGVuZ3RoQWRqdXN0PSJzcGFjaW5nIiB0ZXh0TGVuZ3RoPSI5OSIgeD0iMTYzMi41IiB5PSI3NzkuMjQyMiI+UmF0ZSBMaW1pdGVyIC88L3RleHQ+PHRleHQgZmlsbD0iIzAwMDAwMCIgZm9udC1mYW1pbHk9InNhbnMtc2VyaWYiIGZvbnQtc2l6ZT0iMTQiIGxlbmd0aEFkanVzdD0ic3BhY2luZyIgdGV4dExlbmd0aD0iMTA1IiB4PSIxNjMzIiB5PSI3OTQuMjI2NiI+QWNjb3VudCBNYW5hZ2VyPC90ZXh0Pjxwb2x5Z29uIGZpbGw9IiMxODE4MTgiIHBvaW50cz0iMTQ0LDEwNS44OTg0LDE1NCwxMDkuODk4NCwxNDQsMTEzLjg5ODQsMTQ4LDEwOS44OTg0IiBzdHlsZT0ic3Ryb2tlOiMxODE4MTg7c3Ryb2tlLXdpZHRoOjEuMDsiLz48bGluZSBzdHlsZT0ic3Ryb2tlOiMxODE4MTg7c3Ryb2tlLXdpZHRoOjEuMDsiIHgxPSIyOSIgeDI9IjE1MCIgeTE9IjEwOS44OTg0IiB5Mj0iMTA5Ljg5ODQiLz48dGV4dCBmaWxsPSIjMDAwMDAwIiBmb250LWZhbWlseT0ic2Fucy1zZXJpZiIgZm9udC1zaXplPSIxMyIgbGVuZ3RoQWRqdXN0PSJzcGFjaW5nIiB0ZXh0TGVuZ3RoPSIxMDMiIHg9IjM2IiB5PSIxMDYuMjczNCI+RyYjNzkxNztpIHkmIzIzNDt1IGMmIzc4NDc7dSBsJiM3ODk5O248L3RleHQ+PHBvbHlnb24gZmlsbD0iIzE4MTgxOCIgcG9pbnRzPSIyOTksMTMzLjgxMjUsMzA5LDEzNy44MTI1LDI5OSwxNDEuODEyNSwzMDMsMTM3LjgxMjUiIHN0eWxlPSJzdHJva2U6IzE4MTgxODtzdHJva2Utd2lkdGg6MS4wOyIvPjxsaW5lIHN0eWxlPSJzdHJva2U6IzE4MTgxODtzdHJva2Utd2lkdGg6MS4wOyIgeDE9IjE1NiIgeDI9IjMwNSIgeTE9IjEzNy44MTI1IiB5Mj0iMTM3LjgxMjUiLz48dGV4dCBmaWxsPSIjMDAwMDAwIiBmb250LWZhbWlseT0ic2Fucy1zZXJpZiIgZm9udC1zaXplPSIxMyIgbGVuZ3RoQWRqdXN0PSJzcGFjaW5nIiB0ZXh0TGVuZ3RoPSIxMzEiIHg9IjE2MyIgeT0iMTM0LjE4NzUiPkNodXkmIzc4NzU7biB0aSYjNzg3MTtwIHkmIzIzNDt1IGMmIzc4NDc7dTwvdGV4dD48cG9seWdvbiBmaWxsPSIjMTgxODE4IiBwb2ludHM9IjUyMiwxNjEuNzI2Niw1MzIsMTY1LjcyNjYsNTIyLDE2OS43MjY2LDUyNiwxNjUuNzI2NiIgc3R5bGU9InN0cm9rZTojMTgxODE4O3N0cm9rZS13aWR0aDoxLjA7Ii8+PGxpbmUgc3R5bGU9InN0cm9rZTojMTgxODE4O3N0cm9rZS13aWR0aDoxLjA7IiB4MT0iMzExIiB4Mj0iNTI4IiB5MT0iMTY1LjcyNjYiIHkyPSIxNjUuNzI2NiIvPjx0ZXh0IGZpbGw9IiMwMDAwMDAiIGZvbnQtZmFtaWx5PSJzYW5zLXNlcmlmIiBmb250LXNpemU9IjEzIiBsZW5ndGhBZGp1c3Q9InNwYWNpbmciIHRleHRMZW5ndGg9IjE5OSIgeD0iMzE4IiB5PSIxNjIuMTAxNiI+WSYjMjM0O3UgYyYjNzg0Nzt1IHBoJiMyMjY7biB0JiMyMzc7Y2ggJmFtcDsgY2hpYSB0YXNrPC90ZXh0PjxsaW5lIHN0eWxlPSJzdHJva2U6IzE4MTgxODtzdHJva2Utd2lkdGg6MS4wOyIgeDE9IjUzNCIgeDI9IjU3NiIgeTE9IjIwNy41NTQ3IiB5Mj0iMjA3LjU1NDciLz48bGluZSBzdHlsZT0ic3Ryb2tlOiMxODE4MTg7c3Ryb2tlLXdpZHRoOjEuMDsiIHgxPSI1NzYiIHgyPSI1NzYiIHkxPSIyMDcuNTU0NyIgeTI9IjIyMC41NTQ3Ii8+PGxpbmUgc3R5bGU9InN0cm9rZTojMTgxODE4O3N0cm9rZS13aWR0aDoxLjA7IiB4MT0iNTM1IiB4Mj0iNTc2IiB5MT0iMjIwLjU1NDciIHkyPSIyMjAuNTU0NyIvPjxwb2x5Z29uIGZpbGw9IiMxODE4MTgiIHBvaW50cz0iNTQ1LDIxNi41NTQ3LDUzNSwyMjAuNTU0Nyw1NDUsMjI0LjU1NDcsNTQxLDIyMC41NTQ3IiBzdHlsZT0ic3Ryb2tlOiMxODE4MTg7c3Ryb2tlLXdpZHRoOjEuMDsiLz48dGV4dCBmaWxsPSIjMDAwMDAwIiBmb250LWZhbWlseT0ic2Fucy1zZXJpZiIgZm9udC1zaXplPSIxMyIgbGVuZ3RoQWRqdXN0PSJzcGFjaW5nIiB0ZXh0TGVuZ3RoPSIyMzEiIHg9IjU0MSIgeT0iMTkwLjAxNTYiPlBoJiMyMjY7biB0JiMyMzc7Y2gsIGwmIzIyNDttIHImIzI0NTsgdiYjMjI0OyBjaGlhIG5oJiM3ODg3OyB0YXNrPC90ZXh0Pjx0ZXh0IGZpbGw9IiMwMDAwMDAiIGZvbnQtZmFtaWx5PSJzYW5zLXNlcmlmIiBmb250LXNpemU9IjEzIiBsZW5ndGhBZGp1c3Q9InNwYWNpbmciIHRleHRMZW5ndGg9IjE5MiIgeD0iNTQxIiB5PSIyMDMuOTI5NyI+KHNpbmggcmEgZGFuaCBzJiMyMjU7Y2ggc3ViLXRhc2spPC90ZXh0Pjxwb2x5Z29uIGZpbGw9IiMxODE4MTgiIHBvaW50cz0iMzIyLDI0NC40Njg4LDMxMiwyNDguNDY4OCwzMjIsMjUyLjQ2ODgsMzE4LDI0OC40Njg4IiBzdHlsZT0ic3Ryb2tlOiMxODE4MTg7c3Ryb2tlLXdpZHRoOjEuMDsiLz48bGluZSBzdHlsZT0ic3Ryb2tlOiMxODE4MTg7c3Ryb2tlLXdpZHRoOjEuMDsiIHgxPSIzMTYiIHgyPSI1MzMiIHkxPSIyNDguNDY4OCIgeTI9IjI0OC40Njg4Ii8+PHRleHQgZmlsbD0iIzAwMDAwMCIgZm9udC1mYW1pbHk9InNhbnMtc2VyaWYiIGZvbnQtc2l6ZT0iMTMiIGxlbmd0aEFkanVzdD0ic3BhY2luZyIgdGV4dExlbmd0aD0iMTczIiB4PSIzMjgiIHk9IjI0NC44NDM4Ij5UciYjNzg0MzsgdiYjNzg3MzsgZGFuaCBzJiMyMjU7Y2ggc3ViLXRhc2s8L3RleHQ+PHBvbHlnb24gZmlsbD0iIzE4MTgxOCIgcG9pbnRzPSI3NjcsMjcyLjM4MjgsNzc3LDI3Ni4zODI4LDc2NywyODAuMzgyOCw3NzEsMjc2LjM4MjgiIHN0eWxlPSJzdHJva2U6IzE4MTgxODtzdHJva2Utd2lkdGg6MS4wOyIvPjxsaW5lIHN0eWxlPSJzdHJva2U6IzE4MTgxODtzdHJva2Utd2lkdGg6MS4wOyIgeDE9IjMxMSIgeDI9Ijc3MyIgeTE9IjI3Ni4zODI4IiB5Mj0iMjc2LjM4MjgiLz48dGV4dCBmaWxsPSIjMDAwMDAwIiBmb250LWZhbWlseT0ic2Fucy1zZXJpZiIgZm9udC1zaXplPSIxMyIgbGVuZ3RoQWRqdXN0PSJzcGFjaW5nIiB0ZXh0TGVuZ3RoPSIxODAiIHg9IjMxOCIgeT0iMjcyLjc1NzgiPiYjMjcyOyYjNzg0OTt5IGMmIzIyNTtjIHN1Yi10YXNrIHYmIzIyNDtvIEthZmthPC90ZXh0PjxwYXRoIGQ9Ik02NDAsMjg5LjM4MjggTDY0MCwzMTIuMzgyOCBMOTE4LDMxMi4zODI4IEw5MTgsMjk5LjM4MjggTDkwOCwyODkuMzgyOCBMNjQwLDI4OS4zODI4ICIgZmlsbD0iI0ZFRkZERCIgc3R5bGU9InN0cm9rZTojMTgxODE4O3N0cm9rZS13aWR0aDowLjU7Ii8+PHBhdGggZD0iTTkwOCwyODkuMzgyOCBMOTA4LDI5OS4zODI4IEw5MTgsMjk5LjM4MjggTDkwOCwyODkuMzgyOCAiIGZpbGw9IiNGRUZGREQiIHN0eWxlPSJzdHJva2U6IzE4MTgxODtzdHJva2Utd2lkdGg6MC41OyIvPjx0ZXh0IGZpbGw9IiMwMDAwMDAiIGZvbnQtZmFtaWx5PSJzYW5zLXNlcmlmIiBmb250LXNpemU9IjEzIiBsZW5ndGhBZGp1c3Q9InNwYWNpbmciIHRleHRMZW5ndGg9IjI1NyIgeD0iNjQ2IiB5PSIzMDYuNjcxOSI+QyYjMjI1O2Mgc3ViLXRhc2sgJiMyNzM7JiM0MzI7JiM3OTA3O2MgcGgmIzIyNjtuIHBoJiM3ODg5O2kgc29uZyBzb25nPC90ZXh0Pjxwb2x5Z29uIGZpbGw9IiMxODE4MTgiIHBvaW50cz0iOTM5LDMzNC4yMTA5LDk0OSwzMzguMjEwOSw5MzksMzQyLjIxMDksOTQzLDMzOC4yMTA5IiBzdHlsZT0ic3Ryb2tlOiMxODE4MTg7c3Ryb2tlLXdpZHRoOjEuMDsiLz48bGluZSBzdHlsZT0ic3Ryb2tlOiMxODE4MTg7c3Ryb2tlLXdpZHRoOjEuMDsiIHgxPSI3NzkiIHgyPSI5NDUiIHkxPSIzMzguMjEwOSIgeTI9IjMzOC4yMTA5Ii8+PHRleHQgZmlsbD0iIzAwMDAwMCIgZm9udC1mYW1pbHk9InNhbnMtc2VyaWYiIGZvbnQtc2l6ZT0iMTMiIGxlbmd0aEFkanVzdD0ic3BhY2luZyIgdGV4dExlbmd0aD0iMTQ4IiB4PSI3ODYiIHk9IjMzNC41ODU5Ij5HaWFvIG5oaSYjNzg3OTttIHYmIzc5MDk7IChPcGVuQUkpPC90ZXh0Pjxwb2x5Z29uIGZpbGw9IiMxODE4MTgiIHBvaW50cz0iMTA1OCwzNjIuMTI1LDEwNjgsMzY2LjEyNSwxMDU4LDM3MC4xMjUsMTA2MiwzNjYuMTI1IiBzdHlsZT0ic3Ryb2tlOiMxODE4MTg7c3Ryb2tlLXdpZHRoOjEuMDsiLz48bGluZSBzdHlsZT0ic3Ryb2tlOiMxODE4MTg7c3Ryb2tlLXdpZHRoOjEuMDsiIHgxPSI3NzkiIHgyPSIxMDY0IiB5MT0iMzY2LjEyNSIgeTI9IjM2Ni4xMjUiLz48dGV4dCBmaWxsPSIjMDAwMDAwIiBmb250LWZhbWlseT0ic2Fucy1zZXJpZiIgZm9udC1zaXplPSIxMyIgbGVuZ3RoQWRqdXN0PSJzcGFjaW5nIiB0ZXh0TGVuZ3RoPSIxNTMiIHg9Ijc4NiIgeT0iMzYyLjUiPkdpYW8gbmhpJiM3ODc5O20gdiYjNzkwOTsgKEdlbm1pbmkpPC90ZXh0Pjxwb2x5Z29uIGZpbGw9IiMxODE4MTgiIHBvaW50cz0iMTE3NywzOTAuMDM5MSwxMTg3LDM5NC4wMzkxLDExNzcsMzk4LjAzOTEsMTE4MSwzOTQuMDM5MSIgc3R5bGU9InN0cm9rZTojMTgxODE4O3N0cm9rZS13aWR0aDoxLjA7Ii8+PGxpbmUgc3R5bGU9InN0cm9rZTojMTgxODE4O3N0cm9rZS13aWR0aDoxLjA7IiB4MT0iNzc5IiB4Mj0iMTE4MyIgeTE9IjM5NC4wMzkxIiB5Mj0iMzk0LjAzOTEiLz48dGV4dCBmaWxsPSIjMDAwMDAwIiBmb250LWZhbWlseT0ic2Fucy1zZXJpZiIgZm9udC1zaXplPSIxMyIgbGVuZ3RoQWRqdXN0PSJzcGFjaW5nIiB0ZXh0TGVuZ3RoPSIxNDgiIHg9Ijc4NiIgeT0iMzkwLjQxNDEiPkdpYW8gbmhpJiM3ODc5O20gdiYjNzkwOTsgKENsYXVkZSk8L3RleHQ+PHBvbHlnb24gZmlsbD0iIzE4MTgxOCIgcG9pbnRzPSIxMjk5LDQxNy45NTMxLDEzMDksNDIxLjk1MzEsMTI5OSw0MjUuOTUzMSwxMzAzLDQyMS45NTMxIiBzdHlsZT0ic3Ryb2tlOiMxODE4MTg7c3Ryb2tlLXdpZHRoOjEuMDsiLz48bGluZSBzdHlsZT0ic3Ryb2tlOiMxODE4MTg7c3Ryb2tlLXdpZHRoOjEuMDsiIHgxPSI3NzkiIHgyPSIxMzA1IiB5MT0iNDIxLjk1MzEiIHkyPSI0MjEuOTUzMSIvPjx0ZXh0IGZpbGw9IiMwMDAwMDAiIGZvbnQtZmFtaWx5PSJzYW5zLXNlcmlmIiBmb250LXNpemU9IjEzIiBsZW5ndGhBZGp1c3Q9InNwYWNpbmciIHRleHRMZW5ndGg9IjE2MyIgeD0iNzg2IiB5PSI0MTguMzI4MSI+R2lhbyBuaGkmIzc4Nzk7bSB2JiM3OTA5OyAoRGVlcFNlZWspPC90ZXh0Pjxwb2x5Z29uIGZpbGw9IiMxODE4MTgiIHBvaW50cz0iMTQyOC41LDQ0NS44NjcyLDE0MzguNSw0NDkuODY3MiwxNDI4LjUsNDUzLjg2NzIsMTQzMi41LDQ0OS44NjcyIiBzdHlsZT0ic3Ryb2tlOiMxODE4MTg7c3Ryb2tlLXdpZHRoOjEuMDsiLz48bGluZSBzdHlsZT0ic3Ryb2tlOiMxODE4MTg7c3Ryb2tlLXdpZHRoOjEuMDsiIHgxPSI3NzkiIHgyPSIxNDM0LjUiIHkxPSI0NDkuODY3MiIgeTI9IjQ0OS44NjcyIi8+PHRleHQgZmlsbD0iIzAwMDAwMCIgZm9udC1mYW1pbHk9InNhbnMtc2VyaWYiIGZvbnQtc2l6ZT0iMTMiIGxlbmd0aEFkanVzdD0ic3BhY2luZyIgdGV4dExlbmd0aD0iMTYxIiB4PSI3ODYiIHk9IjQ0Ni4yNDIyIj5HaWFvIG5oaSYjNzg3OTttIHYmIzc5MDk7IChRd2VuLTIuNSk8L3RleHQ+PHBvbHlnb24gZmlsbD0iIzE4MTgxOCIgcG9pbnRzPSIzMjIsNDczLjc4MTMsMzEyLDQ3Ny43ODEzLDMyMiw0ODEuNzgxMywzMTgsNDc3Ljc4MTMiIHN0eWxlPSJzdHJva2U6IzE4MTgxODtzdHJva2Utd2lkdGg6MS4wOyIvPjxsaW5lIHN0eWxlPSJzdHJva2U6IzE4MTgxODtzdHJva2Utd2lkdGg6MS4wOyIgeDE9IjMxNiIgeDI9Ijk1MCIgeTE9IjQ3Ny43ODEzIiB5Mj0iNDc3Ljc4MTMiLz48dGV4dCBmaWxsPSIjMDAwMDAwIiBmb250LWZhbWlseT0ic2Fucy1zZXJpZiIgZm9udC1zaXplPSIxMyIgbGVuZ3RoQWRqdXN0PSJzcGFjaW5nIiB0ZXh0TGVuZ3RoPSIxNTEiIHg9IjMyOCIgeT0iNDc0LjE1NjMiPlRyJiM3ODQzOyBrJiM3ODcxO3QgcXUmIzc4NDM7IGNobyB0YXNrIDE8L3RleHQ+PHBvbHlnb24gZmlsbD0iIzE4MTgxOCIgcG9pbnRzPSIzMjIsNTAxLjY5NTMsMzEyLDUwNS42OTUzLDMyMiw1MDkuNjk1MywzMTgsNTA1LjY5NTMiIHN0eWxlPSJzdHJva2U6IzE4MTgxODtzdHJva2Utd2lkdGg6MS4wOyIvPjxsaW5lIHN0eWxlPSJzdHJva2U6IzE4MTgxODtzdHJva2Utd2lkdGg6MS4wOyIgeDE9IjMxNiIgeDI9IjEwNjkiIHkxPSI1MDUuNjk1MyIgeTI9IjUwNS42OTUzIi8+PHRleHQgZmlsbD0iIzAwMDAwMCIgZm9udC1mYW1pbHk9InNhbnMtc2VyaWYiIGZvbnQtc2l6ZT0iMTMiIGxlbmd0aEFkanVzdD0ic3BhY2luZyIgdGV4dExlbmd0aD0iMTUxIiB4PSIzMjgiIHk9IjUwMi4wNzAzIj5UciYjNzg0MzsgayYjNzg3MTt0IHF1JiM3ODQzOyBjaG8gdGFzayAyPC90ZXh0Pjxwb2x5Z29uIGZpbGw9IiMxODE4MTgiIHBvaW50cz0iMzIyLDUyOS42MDk0LDMxMiw1MzMuNjA5NCwzMjIsNTM3LjYwOTQsMzE4LDUzMy42MDk0IiBzdHlsZT0ic3Ryb2tlOiMxODE4MTg7c3Ryb2tlLXdpZHRoOjEuMDsiLz48bGluZSBzdHlsZT0ic3Ryb2tlOiMxODE4MTg7c3Ryb2tlLXdpZHRoOjEuMDsiIHgxPSIzMTYiIHgyPSIxMTg4IiB5MT0iNTMzLjYwOTQiIHkyPSI1MzMuNjA5NCIvPjx0ZXh0IGZpbGw9IiMwMDAwMDAiIGZvbnQtZmFtaWx5PSJzYW5zLXNlcmlmIiBmb250LXNpemU9IjEzIiBsZW5ndGhBZGp1c3Q9InNwYWNpbmciIHRleHRMZW5ndGg9IjE1MSIgeD0iMzI4IiB5PSI1MjkuOTg0NCI+VHImIzc4NDM7IGsmIzc4NzE7dCBxdSYjNzg0MzsgY2hvIHRhc2sgMzwvdGV4dD48cG9seWdvbiBmaWxsPSIjMTgxODE4IiBwb2ludHM9IjMyMiw1NTcuNTIzNCwzMTIsNTYxLjUyMzQsMzIyLDU2NS41MjM0LDMxOCw1NjEuNTIzNCIgc3R5bGU9InN0cm9rZTojMTgxODE4O3N0cm9rZS13aWR0aDoxLjA7Ii8+PGxpbmUgc3R5bGU9InN0cm9rZTojMTgxODE4O3N0cm9rZS13aWR0aDoxLjA7IiB4MT0iMzE2IiB4Mj0iMTMxMCIgeTE9IjU2MS41MjM0IiB5Mj0iNTYxLjUyMzQiLz48dGV4dCBmaWxsPSIjMDAwMDAwIiBmb250LWZhbWlseT0ic2Fucy1zZXJpZiIgZm9udC1zaXplPSIxMyIgbGVuZ3RoQWRqdXN0PSJzcGFjaW5nIiB0ZXh0TGVuZ3RoPSIxNTEiIHg9IjMyOCIgeT0iNTU3Ljg5ODQiPlRyJiM3ODQzOyBrJiM3ODcxO3QgcXUmIzc4NDM7IGNobyB0YXNrIDQ8L3RleHQ+PHBvbHlnb24gZmlsbD0iIzE4MTgxOCIgcG9pbnRzPSIzMjIsNTg1LjQzNzUsMzEyLDU4OS40Mzc1LDMyMiw1OTMuNDM3NSwzMTgsNTg5LjQzNzUiIHN0eWxlPSJzdHJva2U6IzE4MTgxODtzdHJva2Utd2lkdGg6MS4wOyIvPjxsaW5lIHN0eWxlPSJzdHJva2U6IzE4MTgxODtzdHJva2Utd2lkdGg6MS4wOyIgeDE9IjMxNiIgeDI9IjE0MzkuNSIgeTE9IjU4OS40Mzc1IiB5Mj0iNTg5LjQzNzUiLz48dGV4dCBmaWxsPSIjMDAwMDAwIiBmb250LWZhbWlseT0ic2Fucy1zZXJpZiIgZm9udC1zaXplPSIxMyIgbGVuZ3RoQWRqdXN0PSJzcGFjaW5nIiB0ZXh0TGVuZ3RoPSIxNTEiIHg9IjMyOCIgeT0iNTg1LjgxMjUiPlRyJiM3ODQzOyBrJiM3ODcxO3QgcXUmIzc4NDM7IGNobyB0YXNrIDU8L3RleHQ+PHBvbHlnb24gZmlsbD0iIzE4MTgxOCIgcG9pbnRzPSIxNTUxLDYxMy4zNTE2LDE1NjEsNjE3LjM1MTYsMTU1MSw2MjEuMzUxNiwxNTU1LDYxNy4zNTE2IiBzdHlsZT0ic3Ryb2tlOiMxODE4MTg7c3Ryb2tlLXdpZHRoOjEuMDsiLz48bGluZSBzdHlsZT0ic3Ryb2tlOiMxODE4MTg7c3Ryb2tlLXdpZHRoOjEuMDsiIHgxPSIzMTEiIHgyPSIxNTU3IiB5MT0iNjE3LjM1MTYiIHkyPSI2MTcuMzUxNiIvPjx0ZXh0IGZpbGw9IiMwMDAwMDAiIGZvbnQtZmFtaWx5PSJzYW5zLXNlcmlmIiBmb250LXNpemU9IjEzIiBsZW5ndGhBZGp1c3Q9InNwYWNpbmciIHRleHRMZW5ndGg9IjE4NiIgeD0iMzE4IiB5PSI2MTMuNzI2NiI+RyYjNzkxNztpIGMmIzIyNTtjIGsmIzc4NzE7dCBxdSYjNzg0MzsgJiMyNzM7JiM3ODc1OyBoJiM3OTA3O3AgbmgmIzc4NDU7dDwvdGV4dD48cG9seWdvbiBmaWxsPSIjMTgxODE4IiBwb2ludHM9IjU0NSw2NDEuMjY1Niw1MzUsNjQ1LjI2NTYsNTQ1LDY0OS4yNjU2LDU0MSw2NDUuMjY1NiIgc3R5bGU9InN0cm9rZTojMTgxODE4O3N0cm9rZS13aWR0aDoxLjA7Ii8+PGxpbmUgc3R5bGU9InN0cm9rZTojMTgxODE4O3N0cm9rZS13aWR0aDoxLjA7IiB4MT0iNTM5IiB4Mj0iMTU2MiIgeTE9IjY0NS4yNjU2IiB5Mj0iNjQ1LjI2NTYiLz48dGV4dCBmaWxsPSIjMDAwMDAwIiBmb250LWZhbWlseT0ic2Fucy1zZXJpZiIgZm9udC1zaXplPSIxMyIgbGVuZ3RoQWRqdXN0PSJzcGFjaW5nIiB0ZXh0TGVuZ3RoPSIyMjAiIHg9IjU1MSIgeT0iNjQxLjY0MDYiPkcmIzc5MTc7aSBrJiM3ODcxO3QgcXUmIzc4NDM7IGgmIzc5MDc7cCBuaCYjNzg0NTt0ICYjMjczOyYjNzg3NTsgJiMyNzM7JiMyMjU7bmggZ2kmIzIyNTs8L3RleHQ+PGxpbmUgc3R5bGU9InN0cm9rZTojMTgxODE4O3N0cm9rZS13aWR0aDoxLjA7IiB4MT0iNTM0IiB4Mj0iNTc2IiB5MT0iNjczLjE3OTciIHkyPSI2NzMuMTc5NyIvPjxsaW5lIHN0eWxlPSJzdHJva2U6IzE4MTgxODtzdHJva2Utd2lkdGg6MS4wOyIgeDE9IjU3NiIgeDI9IjU3NiIgeTE9IjY3My4xNzk3IiB5Mj0iNjg2LjE3OTciLz48bGluZSBzdHlsZT0ic3Ryb2tlOiMxODE4MTg7c3Ryb2tlLXdpZHRoOjEuMDsiIHgxPSI1MzUiIHgyPSI1NzYiIHkxPSI2ODYuMTc5NyIgeTI9IjY4Ni4xNzk3Ii8+PHBvbHlnb24gZmlsbD0iIzE4MTgxOCIgcG9pbnRzPSI1NDUsNjgyLjE3OTcsNTM1LDY4Ni4xNzk3LDU0NSw2OTAuMTc5Nyw1NDEsNjg2LjE3OTciIHN0eWxlPSJzdHJva2U6IzE4MTgxODtzdHJva2Utd2lkdGg6MS4wOyIvPjx0ZXh0IGZpbGw9IiMwMDAwMDAiIGZvbnQtZmFtaWx5PSJzYW5zLXNlcmlmIiBmb250LXNpemU9IjEzIiBsZW5ndGhBZGp1c3Q9InNwYWNpbmciIHRleHRMZW5ndGg9IjE4NSIgeD0iNTQxIiB5PSI2NjkuNTU0NyI+JiMyNzI7JiMyMjU7bmggZ2kmIzIyNTsgayYjNzg3MTt0IHF1JiM3ODQzOyBobyYjMjI0O24gdGhpJiM3ODc5O248L3RleHQ+PHBvbHlnb24gZmlsbD0iIzE4MTgxOCIgcG9pbnRzPSIxNjczLjUsNzEwLjA5MzgsMTY4My41LDcxNC4wOTM4LDE2NzMuNSw3MTguMDkzOCwxNjc3LjUsNzE0LjA5MzgiIHN0eWxlPSJzdHJva2U6IzE4MTgxODtzdHJva2Utd2lkdGg6MS4wOyIvPjxsaW5lIHN0eWxlPSJzdHJva2U6IzE4MTgxODtzdHJva2Utd2lkdGg6MS4wOyIgeDE9IjUzNCIgeDI9IjE2NzkuNSIgeTE9IjcxNC4wOTM4IiB5Mj0iNzE0LjA5MzgiLz48dGV4dCBmaWxsPSIjMDAwMDAwIiBmb250LWZhbWlseT0ic2Fucy1zZXJpZiIgZm9udC1zaXplPSIxMyIgbGVuZ3RoQWRqdXN0PSJzcGFjaW5nIiB0ZXh0TGVuZ3RoPSIyMzkiIHg9IjU0MSIgeT0iNzEwLjQ2ODgiPkMmIzc4NTM7cCBuaCYjNzg1Mzt0IHRoJiMyNDQ7bmcgdGluIHMmIzc5MTc7IGQmIzc5MDk7bmcvZ2kmIzc4OTk7aSBoJiM3ODQxO248L3RleHQ+PHBvbHlnb24gZmlsbD0iIzE4MTgxOCIgcG9pbnRzPSI0MCw3MzguMDA3OCwzMCw3NDIuMDA3OCw0MCw3NDYuMDA3OCwzNiw3NDIuMDA3OCIgc3R5bGU9InN0cm9rZTojMTgxODE4O3N0cm9rZS13aWR0aDoxLjA7Ii8+PGxpbmUgc3R5bGU9InN0cm9rZTojMTgxODE4O3N0cm9rZS13aWR0aDoxLjA7IiB4MT0iMzQiIHgyPSI1MzMiIHkxPSI3NDIuMDA3OCIgeTI9Ijc0Mi4wMDc4Ii8+PHRleHQgZmlsbD0iIzAwMDAwMCIgZm9udC1mYW1pbHk9InNhbnMtc2VyaWYiIGZvbnQtc2l6ZT0iMTMiIGxlbmd0aEFkanVzdD0ic3BhY2luZyIgdGV4dExlbmd0aD0iMTQ0IiB4PSI0NiIgeT0iNzM4LjM4MjgiPlRyJiM3ODQzOyBrJiM3ODcxO3QgcXUmIzc4NDM7IGN1JiM3ODg5O2kgYyYjMjQ5O25nPC90ZXh0PjwhLS1TUkM9W1pQRXhZamowNThSeFVPaDM1YzREU0hSVjZYUzFOeTBpampjRFIxMjFSSVJvbjFmaVpuSGZqOGxCYTI5YnJsS3NUaW1JNFoyYUk4ZjhIR2dQbDhWVTk0U3Rob091dTRPSUVqeXZTX0pfbHdXWEJHU3dTeXc0OTNQcjkzVXVKT000aXpScjlWSWVQN1RxVUdSS1hQd2tyaVZLZFM2RzJaZmJKV0FDWG9oR1BTbVVDSk8zaE44WnBneVNtc0lrVDJZVUxxaHV4YVpiLV9Kalo0QlJpTVJQbTd2UjFRdmk5YmdOZTVqRUprV0xiVVduaVUyMkFxWExISmZwd2FzT0dqSi1pdFVIZ1FsQ2dwaWNvaktOM09MZmc4cDZONnlrT1NZU04yN2o3dUtxYjFTNlZDNGJTLTAyUmFKQkMybUZBcUxQakc0WGdKekdWZWFrREE0TjFKaUVvXzJSMXFSYVZfNVc3V0tGV2xKcTYxV0ZjejBubE1LS1YxMFdVVUpfaldpZTZHelpnM2pnbWtrZFZqaUNGb0NTeFdtSmRlNVhTV2VJdElOVEtHdlZGbjdGT0h3azUtMjRGLTRzTkFVcUNBRldLekEzSmhqU2NFMUdjNTJ5ay00Nlh4aFVjdDlTQk1LWnVvTjdKa0hsdUpPQXRYeVppcU54eElSaXhvRl93bjhDaDFfQXlUNE05OGFYSDVXZWV0TUI2aVB1SC03c2dwX1ZlczFoUER6ZXV3OGgzZ3ViZmljNWE3dXhGYVVsZUFvU01sV2JGMGUtQmtBejdrNHlKTG1mWHdmN2VJbnExd2ZzYjRmcFR1M2dIdzR5VVdVaVNISkJxclNZSEEtZVVpeEdTMGRsbEZaUENBdDQ0d1dHbE5lMkxZTHd4R0lpSGxKdzJMWVR3OHFKaTBSOWhEUTZVUjhKZnVsbVZlTGYxaEhrUXlUSHlueWJxR3V2SmRrQVUxN0NVbFVoUzhDUGNfOW1LcVpyX2x4bUxYcldYTWpDVXdBdm83WGpXRDZBXzVxd1UyVW43RngwNTRha21DS0xPOEJNWUVkNTU5aVVFRXhXUl9CTXpFeXpnZUFObkQ0OFZ1ZGZObTAwXS0tPjwvZz48L3N2Zz4=;" vertex="1" parent="1">
            <mxGeometry x="1435" y="-39.999999999999986" width="1751" height="839" as="geometry" />
          </mxCell>
        </UserObject>
      </root>
    </mxGraphModel>
  </diagram>
</mxfile>
